<svg width="20" height="20" viewBox="0 0 20 20" fill="none" xmlns="http://www.w3.org/2000/svg">
<g clip-path="url(#clip0)">
<path d="M2.12707 7.63718H11.8729C12.2179 7.63718 12.4979 7.35466 12.4979 7.0059C12.4979 6.65713 12.2179 6.37461 11.8729 6.37461H2.12707L5.37716 3.07766C5.62154 2.83078 5.62154 2.43142 5.37716 2.18516C5.13277 1.93828 4.73714 1.93828 4.49338 2.18516L0.181422 6.55962C-0.0592254 6.80276 -0.0617192 7.20966 0.181422 7.45275L4.494 11.8272C4.73839 12.0741 5.13401 12.0735 5.37778 11.8272C5.62217 11.5809 5.62217 11.181 5.37778 10.9347L2.12707 7.63718Z" fill="black"/>
<path d="M19.8186 11.5486L15.506 7.17419C15.2616 6.9273 14.866 6.92793 14.6222 7.17419C14.3778 7.42044 14.3778 7.82043 14.6222 8.06669L17.8723 11.3636H8.12646C7.78144 11.3636 7.50146 11.6462 7.50146 11.9949C7.50146 12.3437 7.78149 12.6262 8.12646 12.6262H17.8723L14.6222 15.9232C14.3778 16.17 14.3778 16.5694 14.6222 16.8157C14.8666 17.0625 15.2622 17.0625 15.506 16.8157L19.818 12.4412C20.0592 12.1987 20.0617 11.7918 19.8186 11.5486Z" fill="black"/>
</g>
<defs>
<clipPath id="clip0">
<rect width="20" height="20" fill="white"/>
</clipPath>
</defs>
</svg>
