<svg width="22" height="22" viewBox="0 0 22 22" fill="none" xmlns="http://www.w3.org/2000/svg">
<path d="M8.51605 6.7017C8.51605 6.61443 8.52811 6.42596 8.55221 6.13748C8.57812 5.8484 8.68658 5.54599 8.88121 5.22843C9.07403 4.91208 9.38676 4.62785 9.82181 4.37635C10.2551 4.12606 10.8811 4 11.6982 4H14V6.52292H12.3146C12.1477 6.52292 11.9923 6.58595 11.8519 6.71019C11.7127 6.83442 11.641 6.9526 11.641 7.06229V8.63192H13.9994C13.9747 8.93918 13.9476 9.23796 13.9162 9.52643L13.8228 10.2888C13.7855 10.5464 13.7475 10.7852 13.7102 11.0052H11.6241V18H8.51605V11.0045H7V8.63192H8.51605V6.7017Z" fill="black"/>
</svg>
