<svg width="140" height="140" viewBox="0 0 140 140" fill="none" xmlns="http://www.w3.org/2000/svg">
<path d="M119 88.6667C121.577 88.6667 123.667 86.5774 123.667 84C123.667 81.4227 121.577 79.3334 119 79.3334C116.423 79.3334 114.333 81.4227 114.333 84C114.333 86.5774 116.423 88.6667 119 88.6667Z" fill="#7F8E94"/>
<path fill-rule="evenodd" clip-rule="evenodd" d="M119.747 38.1734L111.253 46.6667H42.7233L85.4699 3.92004C86.478 2.90119 87.8517 2.32788 89.2849 2.32788C90.7182 2.32788 92.0919 2.90119 93.0999 3.92004L117.157 28L119.747 30.59C120.765 31.5888 121.339 32.9553 121.339 34.3817C121.339 35.8081 120.765 37.1746 119.747 38.1734Z" fill="#FFA800"/>
<path fill-rule="evenodd" clip-rule="evenodd" d="M57.9576 46.6667L96.9033 7.72571L104.092 14.9124L72.3333 46.6667H57.9576Z" fill="black"/>
<path d="M135.333 68.096V35C135.333 29.8453 131.155 25.6667 126 25.6667H118.123L94.759 2.28433C91.7047 -0.653924 86.8746 -0.653924 83.8203 2.28433L82.2103 3.89433C80.4612 1.46687 77.6586 0.0200306 74.6667 0H9.33333C4.17868 0 0 4.17868 0 9.33333V130.667C0 135.821 4.17868 140 9.33333 140H74.6667C79.8213 140 84 135.821 84 130.667V119H126C131.155 119 135.333 114.821 135.333 109.667V99.904C138.12 98.9187 139.988 96.2892 140 93.3333V74.6667C139.988 71.7108 138.12 69.0813 135.333 68.096ZM130.667 35V45.6307C129.254 44.7908 127.643 44.343 126 44.3333H116.886L121.387 39.8323C123.959 37.3281 124.423 33.3642 122.5 30.3333H126C128.577 30.3333 130.667 32.4227 130.667 35ZM63.5927 44.3333L96.8987 11.0297L100.786 14.9193L71.3673 44.3333H63.5927ZM104.085 18.221L118.106 32.2513C118.685 32.8114 119.012 33.5822 119.012 34.3875C119.012 35.1928 118.685 35.9636 118.106 36.5237L110.287 44.3333H77.966L104.085 18.221ZM87.129 5.56733C88.3305 4.39629 90.2465 4.39629 91.448 5.56733L93.6017 7.721L56.9917 44.3333H48.3583L87.129 5.56733ZM41.811 44.2797C38.3551 44.098 35.5154 41.4874 35.0443 38.059C35.021 37.8163 35 37.5667 35 37.3333C35 33.4673 38.134 30.3333 42 30.3333H55.7667L41.811 44.2797ZM59.948 4.66667L56.9567 7.85867C56.0726 8.79829 54.8402 9.33177 53.55 9.33333H30.45C29.1602 9.33336 27.9279 8.79956 27.0457 7.85867L24.0543 4.66667H59.948ZM74.6667 135.333H9.33333C6.756 135.333 4.66667 133.244 4.66667 130.667V127.036C6.07914 127.876 7.69008 128.324 9.33333 128.333H74.6667C76.3099 128.324 77.9209 127.876 79.3333 127.036V130.667C79.3333 133.244 77.244 135.333 74.6667 135.333ZM74.6667 123.667H9.33333C6.756 123.667 4.66667 121.577 4.66667 119V9.33333C4.66667 6.756 6.756 4.66667 9.33333 4.66667H17.6563L23.639 11.0483C25.4057 12.9285 27.87 13.9965 30.45 14H53.55C56.13 13.9965 58.5943 12.9285 60.361 11.0483L66.3437 4.66667H74.6667C76.4345 4.67609 78.0475 5.67687 78.841 7.25667L60.4333 25.6667H42C35.5599 25.6744 30.341 30.8932 30.3333 37.3333V107.333C30.341 113.773 35.5599 118.992 42 119H79.3333C79.3333 121.577 77.244 123.667 74.6667 123.667ZM126 114.333H42C38.134 114.333 35 111.199 35 107.333V46.4637C37.1219 48.0951 39.7201 48.986 42.3967 49H126C128.577 49 130.667 51.0893 130.667 53.6667V67.6667H119C109.979 67.6667 102.667 74.9793 102.667 84C102.667 93.0206 109.979 100.333 119 100.333H130.667V109.667C130.667 112.244 128.577 114.333 126 114.333ZM135.333 93.3333C135.333 94.622 134.289 95.6667 133 95.6667H119C112.557 95.6667 107.333 90.4433 107.333 84C107.333 77.5567 112.557 72.3333 119 72.3333H133C134.289 72.3333 135.333 73.378 135.333 74.6667V93.3333Z" fill="black"/>
<path d="M119 77C115.134 77 112 80.134 112 84C112 87.866 115.134 91 119 91C122.866 91 126 87.866 126 84C126 80.134 122.866 77 119 77ZM119 86.3333C117.711 86.3333 116.667 85.2887 116.667 84C116.667 82.7113 117.711 81.6667 119 81.6667C120.289 81.6667 121.333 82.7113 121.333 84C121.333 85.2887 120.289 86.3333 119 86.3333Z" fill="black"/>
</svg>
