<svg width="140" height="140" viewBox="0 0 140 140" fill="none" xmlns="http://www.w3.org/2000/svg">
<path d="M54.6875 30.625C54.6875 39.0687 61.5563 45.9375 70 45.9375V30.625H54.6875Z" fill="#FFA800"/>
<path d="M122.5 109.375H113.75C111.333 109.375 109.375 107.417 109.375 105C109.375 102.583 111.333 100.625 113.75 100.625H122.5V91.875H87.5C85.0828 91.875 83.125 89.9172 83.125 87.5C83.125 85.0828 85.0828 83.125 87.5 83.125H98.4375C102.062 83.125 105 80.1872 105 76.5625C105 72.9378 102.062 70 98.4375 70H74.375H65.625C59.5853 70 54.6875 65.1022 54.6875 59.0625C54.6875 53.0228 49.7897 48.125 43.75 48.125H30.625V91.875H56.875C60.4997 91.875 63.4375 94.8128 63.4375 98.4375C63.4375 102.062 60.4997 105 56.875 105H48.125C45.7078 105 43.75 106.958 43.75 109.375C43.75 111.792 45.7078 113.75 48.125 113.75H91.875C95.4997 113.75 98.4375 116.688 98.4375 120.312C98.4375 123.937 95.4997 126.875 91.875 126.875H85.3125C82.8953 126.875 80.9375 128.833 80.9375 131.25C80.9375 133.667 82.8953 135.625 85.3125 135.625H122.5V109.375Z" fill="#FFA800"/>
<path d="M114.8 27.2999L107.66 21.2288L102.9 25.277L98.14 21.2288L91 27.2999V4.19995H114.8V27.2999Z" fill="#FFA800"/>
<path d="M131.25 2.1875H74.375C70.7569 2.1875 67.8125 5.13187 67.8125 8.75V28.4375H32.6375C31.57 21.0284 25.1978 15.3125 17.5 15.3125C9.05625 15.3125 2.1875 22.1812 2.1875 30.625V122.5C2.1875 130.799 8.94688 137.812 16.9509 137.812H124.688V72.1875H131.25C134.868 72.1875 137.812 69.2431 137.812 65.625V8.75C137.812 5.13187 134.868 2.1875 131.25 2.1875ZM6.5625 30.625C6.5625 24.5941 11.4691 19.6875 17.5 19.6875C23.5309 19.6875 28.4375 24.5941 28.4375 30.625V111.792C25.6572 108.953 21.7809 107.188 17.5 107.188C13.2191 107.188 9.34281 108.953 6.5625 111.792V30.625ZM120.312 133.438H16.9509C11.3181 133.438 6.5625 128.428 6.5625 122.5C6.5625 116.469 11.4691 111.562 17.5 111.562C23.5309 111.562 28.4375 116.469 28.4375 122.5H32.8125V32.8125H67.8125V65.625C67.8125 69.2431 70.7569 72.1875 74.375 72.1875H120.312V133.438ZM133.438 65.625C133.438 66.8303 132.455 67.8125 131.25 67.8125H74.375C73.1697 67.8125 72.1875 66.8303 72.1875 65.625V8.75C72.1875 7.54469 73.1697 6.5625 74.375 6.5625H131.25C132.455 6.5625 133.438 7.54469 133.438 8.75V65.625Z" fill="black"/>
<path fill-rule="evenodd" clip-rule="evenodd" d="M87.5 30.1V5.59998H91.7V25.495L97.0897 20.8144C97.8939 20.1161 99.0935 20.1303 99.8808 20.8475L103.077 23.7593L106.274 20.8475C107.073 20.1193 108.295 20.1172 109.097 20.8426L114.1 25.3686V5.59998H118.3V30.1C118.3 30.9303 117.811 31.6826 117.052 32.0194C116.293 32.3562 115.407 32.2143 114.791 31.6573L107.693 25.2362L104.492 28.1524C103.69 28.8825 102.465 28.8825 101.663 28.1524L98.4333 25.2103L90.9769 31.6855C90.3559 32.2249 89.4771 32.352 88.7287 32.0107C87.9803 31.6694 87.5 30.9225 87.5 30.1Z" fill="black"/>
<path d="M124.688 61.25C124.688 60.0419 125.667 59.0625 126.875 59.0625C128.083 59.0625 129.062 60.0419 129.062 61.25C129.062 62.4581 128.083 63.4375 126.875 63.4375C125.667 63.4375 124.688 62.4581 124.688 61.25Z" fill="black"/>
<path d="M115.938 61.25C115.938 60.0419 116.917 59.0625 118.125 59.0625C119.333 59.0625 120.312 60.0419 120.312 61.25C120.312 62.4581 119.333 63.4375 118.125 63.4375C116.917 63.4375 115.938 62.4581 115.938 61.25Z" fill="black"/>
<path d="M107.188 61.25C107.188 60.0419 108.167 59.0625 109.375 59.0625C110.583 59.0625 111.562 60.0419 111.562 61.25C111.562 62.4581 110.583 63.4375 109.375 63.4375C108.167 63.4375 107.188 62.4581 107.188 61.25Z" fill="black"/>
</svg>
