<svg width="22" height="22" viewBox="0 0 22 22" fill="none" xmlns="http://www.w3.org/2000/svg">
<path d="M14.2136 4H7.89283C5.74632 4 4 5.73319 4 7.86346V14.1364C4 16.2668 5.74632 17.9999 7.89283 17.9999H14.2136C16.3603 17.9999 18.1066 16.2667 18.1066 14.1364V7.86346C18.1067 5.73319 16.3603 4 14.2136 4Z" fill="black"/>
<path d="M7.41833 11C7.41833 9.01083 9.04893 7.39258 11.0532 7.39258C13.0576 7.39258 14.6882 9.01083 14.6882 11C14.6882 12.9891 13.0576 14.6072 11.0532 14.6072C9.04893 14.6072 7.41833 12.9891 7.41833 11Z" fill="white"/>
<path d="M14.8407 6.33936C14.5996 6.33936 14.3627 6.43624 14.1924 6.606C14.0212 6.77493 13.9229 7.01011 13.9229 7.25026C13.9229 7.48966 14.0213 7.72475 14.1924 7.89451C14.3626 8.06344 14.5996 8.16115 14.8407 8.16115C15.0827 8.16115 15.3188 8.06344 15.4899 7.89451C15.6609 7.72475 15.7585 7.48957 15.7585 7.25026C15.7585 7.01011 15.6609 6.77493 15.4899 6.606C15.3196 6.43624 15.0827 6.33936 14.8407 6.33936Z" fill="white"/>
</svg>
