<svg width="100" height="100" viewBox="0 0 100 100" fill="none" xmlns="http://www.w3.org/2000/svg">
<g clip-path="url(#clip0)">
<path d="M95.7383 44.0977C99.9863 48.3458 97.9023 54.8341 93.2891 56.8419C88.5312 58.9142 79.9648 65.3028 76.2969 68.9727L75.168 70.0997V70.1016L69.6426 64.5763L70.7812 63.4395C74.4893 59.7239 80.917 51.2548 83.0156 46.5118C85.041 41.9317 91.4805 39.838 95.7383 44.0977Z" fill="#FFA800"/>
<path d="M80.6914 75.6252C83.7422 78.676 83.7422 83.6233 80.6914 86.6741L77.9297 89.4358C76.533 88.0391 51.7539 63.26 50.3086 61.8147L53.0703 59.053C56.1211 56.0002 61.0684 56.0002 64.1191 59.053C70.0133 64.9471 75.4404 70.3741 80.6914 75.6252Z" fill="#FFA800"/>
<path d="M46.0938 89.0608C50.4085 89.0608 53.9062 85.563 53.9062 81.2483C53.9062 76.9336 50.4085 73.4358 46.0938 73.4358C41.779 73.4358 38.2812 76.9336 38.2812 81.2483C38.2812 85.563 41.779 89.0608 46.0938 89.0608Z" fill="#FFA800"/>
<path d="M7.8125 26.5605V34.373C7.8125 35.4518 8.68691 36.3262 9.76562 36.3262H66.2109C67.2894 36.3262 68.1641 35.4518 68.1641 34.373V26.5605C68.1641 25.4818 67.2894 24.6074 66.2109 24.6074H9.76562C8.68691 24.6074 7.8125 25.4818 7.8125 26.5605ZM28.5156 28.5137H64.2578V32.4199H28.5156V28.5137ZM11.7187 28.5137H24.6094V32.4199H11.7187V28.5137Z" fill="black"/>
<path d="M9.76562 44.1389H66.2109C67.2894 44.1389 68.1641 43.2645 68.1641 42.1858C68.1641 41.1071 67.2894 40.2327 66.2109 40.2327H9.76562C8.68691 40.2327 7.8125 41.1071 7.8125 42.1858C7.8125 43.2645 8.68691 44.1389 9.76562 44.1389Z" fill="black"/>
<path d="M9.76562 51.9514H66.2109C67.2894 51.9514 68.1641 51.077 68.1641 49.9983C68.1641 48.9196 67.2894 48.0452 66.2109 48.0452H9.76562C8.68691 48.0452 7.8125 48.9196 7.8125 49.9983C7.8125 51.077 8.68691 51.9514 9.76562 51.9514Z" fill="black"/>
<path d="M9.76562 59.7639H42.1875C43.2662 59.7639 44.1406 58.8895 44.1406 57.8108C44.1406 56.7321 43.2662 55.8577 42.1875 55.8577H9.76562C8.68691 55.8577 7.8125 56.7321 7.8125 57.8108C7.8125 58.8895 8.68691 59.7639 9.76562 59.7639Z" fill="black"/>
<path d="M9.76562 67.5764H34.375C35.4537 67.5764 36.3281 66.702 36.3281 65.6233C36.3281 64.5446 35.4537 63.6702 34.375 63.6702H9.76562C8.68691 63.6702 7.8125 64.5446 7.8125 65.6233C7.8125 66.702 8.68691 67.5764 9.76562 67.5764Z" fill="black"/>
<path d="M26.5625 83.2012H36.5246C37.432 87.6533 41.3775 91.0137 46.0938 91.0137C51.4785 91.0137 55.8594 86.6328 55.8594 81.248C55.8594 75.8633 51.4785 71.4824 46.0938 71.4824C41.3777 71.4824 37.432 74.8428 36.5246 79.2949H26.5625C25.4838 79.2949 24.6094 80.1693 24.6094 81.248C24.6094 82.3268 25.4838 83.2012 26.5625 83.2012ZM46.0938 79.2949H40.5703C41.3766 77.0217 43.5475 75.3887 46.0938 75.3887C49.3246 75.3887 51.9531 78.0172 51.9531 81.248C51.9531 84.4789 49.3246 87.1074 46.0938 87.1074C43.5477 87.1074 41.3766 85.4744 40.5703 83.2012H46.0938C47.1723 83.2012 48.0469 82.3268 48.0469 81.248C48.0469 80.1693 47.1725 79.2949 46.0938 79.2949Z" fill="black"/>
<path d="M66.2109 15.623C67.2895 15.623 68.1641 14.7486 68.1641 13.6699C68.1641 12.5912 67.2895 11.7168 66.2109 11.7168H62.3047C61.2262 11.7168 60.3516 12.5912 60.3516 13.6699C60.3516 14.7486 61.2262 15.623 62.3047 15.623H66.2109Z" fill="black"/>
<path d="M54.4922 15.623C55.5707 15.623 56.4453 14.7486 56.4453 13.6699C56.4453 12.5912 55.5707 11.7168 54.4922 11.7168H50.5859C49.5074 11.7168 48.6328 12.5912 48.6328 13.6699C48.6328 14.7486 49.5074 15.623 50.5859 15.623H54.4922Z" fill="black"/>
<path d="M42.7734 15.623C43.8521 15.623 44.7266 14.7486 44.7266 13.6699C44.7266 12.5912 43.8521 11.7168 42.7734 11.7168H38.8672C37.7885 11.7168 36.9141 12.5912 36.9141 13.6699C36.9141 14.7486 37.7885 15.623 38.8672 15.623H42.7734Z" fill="black"/>
<path d="M1.95312 99.9983H49.4922C50.5709 99.9983 51.4453 99.1239 51.4453 98.0452C51.4453 96.9665 50.5709 96.092 49.4922 96.092H3.90625V19.5295H17.5781C18.6568 19.5295 19.5312 18.6551 19.5312 17.5764V3.90454H72.0703V59.11C71.1844 60.1583 70.357 61.0786 69.6412 61.8129L65.5006 57.6723C61.6852 53.8543 55.5059 53.8526 51.6891 57.6719L48.9273 60.4336C48.1646 61.1963 48.1646 62.4331 48.9273 63.1958L72.0701 86.3385V96.092H47.0701C45.9914 96.092 45.117 96.9665 45.117 98.0452C45.117 99.1239 45.9914 99.9983 47.0701 99.9983H74.0232C75.1018 99.9983 75.9764 99.1239 75.9764 98.0452V90.2448L76.5484 90.8168C77.3111 91.579 78.548 91.5795 79.3107 90.8168L82.0725 88.0551C85.8885 84.2391 85.8893 78.0608 82.0725 74.2442L77.9324 70.104C81.6373 66.494 89.7867 60.4977 94.0686 58.6329C100.079 56.0167 102.247 47.845 97.1195 42.717C92.0303 37.6252 83.8949 39.6942 81.2297 45.7215C80.2301 47.9805 78.1592 51.1567 75.9766 54.1331V1.95142C75.9766 0.872705 75.102 -0.00170898 74.0234 -0.00170898H17.5781C17.0455 -0.00170898 16.5449 0.2229 16.1971 0.570361L0.57207 16.1954C0.21875 16.5479 0 17.0463 0 17.5764V98.0452C0 99.1239 0.874414 99.9983 1.95312 99.9983ZM79.3102 77.0063C81.5998 79.2958 81.6002 83.003 79.3102 85.293L77.9297 86.6737L53.0707 61.8147L54.4518 60.4336C56.7412 58.143 60.4473 58.1418 62.7381 60.434L79.3102 77.0063ZM75.5543 61.034C78.9391 56.9518 83.1113 51.1225 84.802 47.3018C86.3201 43.8688 91.1449 42.2653 94.3572 45.479C97.5709 48.6926 95.9383 53.5588 92.5092 55.0514C87.6492 57.1682 79.1904 63.4108 75.1701 67.3417L72.4035 64.5751C73.3295 63.6276 74.4113 62.4129 75.5543 61.034ZM15.625 6.66665V15.6233H6.66836L15.625 6.66665Z" fill="black"/>
</g>
<defs>
<clipPath id="clip0">
<rect width="100" height="100" fill="white"/>
</clipPath>
</defs>
</svg>
