<svg width="100" height="100" viewBox="0 0 100 100" fill="none" xmlns="http://www.w3.org/2000/svg">
<g clip-path="url(#clip0)">
<path d="M68.3389 16.5756L30.5023 37.371L21.1426 32.0892L58.9791 11.293L68.3389 16.5756Z" fill="#FFA800"/>
<path d="M30.5023 37.3709V50.553L21.1426 45.3368V32.0891L30.5023 37.3709Z" fill="#FFA800"/>
<path d="M84.6198 65.9433V59.2867C84.6198 58.2079 83.7447 57.3335 82.6666 57.3335C81.5878 57.3335 80.7127 58.2079 80.7127 59.2867V64.7875L46.723 83.4513V46.29L80.7127 27.6261V59.4406C80.7127 60.5194 81.5878 61.3937 82.6666 61.3937C83.7447 61.3937 84.6198 60.5194 84.6198 59.4406V24.3249C84.6198 23.6123 84.2314 22.9562 83.6066 22.6129L45.7098 1.80364C45.1246 1.48244 44.4151 1.48244 43.8291 1.80364L5.93311 22.6129C5.30826 22.9562 4.91992 23.6123 4.91992 24.3249V54.1008C4.91992 55.1796 5.79425 56.0539 6.87305 56.0539C7.95185 56.0539 8.82694 55.1796 8.82694 54.1008V27.6261L19.1884 33.3162V45.337C19.1884 46.0458 19.5722 46.6989 20.1909 47.0437L29.5507 52.26C29.8467 52.4248 30.174 52.5072 30.5013 52.5072C30.8439 52.5072 31.1857 52.4171 31.4909 52.2378C32.0882 51.8869 32.4552 51.246 32.4552 50.554V40.6007L42.816 46.29V83.4513L8.82694 64.7875V54.4679C8.82694 53.3891 7.95185 52.5148 6.87305 52.5148C5.79425 52.5148 4.91992 53.3891 4.91992 54.4679V65.9433C4.91992 66.6559 5.30826 67.312 5.93311 67.6554L43.8291 88.4646C44.1221 88.6255 44.4464 88.7057 44.7698 88.7057C45.0933 88.7057 45.4168 88.6255 45.7098 88.4646L83.6066 67.6554C84.2314 67.312 84.6198 66.6559 84.6198 65.9433ZM59.6068 13.8917L64.3233 16.5528L30.5662 35.1068L26.7461 33.0087L25.1562 32.1115L58.9567 13.5339L59.6068 13.8917ZM68.4462 18.7447L78.6078 24.3249L44.7698 42.9056L34.6243 37.3346L68.4462 18.7447ZM44.7698 5.74423L54.8986 11.3061L21.0767 29.8959L10.9319 24.3249L44.7698 5.74423ZM23.0955 44.1896V35.4608L24.8449 36.4221L28.5482 38.5118V47.2284L23.0955 44.1896Z" fill="black"/>
<path d="M97.0899 60.8292V30.777C97.3867 30.9441 97.7163 31.0295 98.0474 31.0295C98.5479 31.0295 99.0476 30.8388 99.4291 30.4573C100.192 29.6944 100.192 28.4576 99.4291 27.6947L96.5177 24.7833C95.7548 24.0211 94.518 24.0211 93.7551 24.7833L90.8437 27.6947C90.0807 28.4576 90.0807 29.6944 90.8437 30.4573C91.4777 31.0913 92.4382 31.1966 93.1829 30.777V60.8292C92.4382 60.4088 91.4777 60.5141 90.8437 61.1481C90.0807 61.9111 90.0807 63.1485 90.8437 63.9107L93.7551 66.8221C94.1366 67.2036 94.6363 67.3943 95.136 67.3943C95.6365 67.3943 96.1362 67.2036 96.5177 66.8221L99.4291 63.9107C100.191 63.1485 100.191 61.9111 99.4291 61.1481C98.7951 60.5149 97.8345 60.4096 97.0899 60.8292Z" fill="black"/>
<path d="M88.2429 73.4689L84.3336 72.1788C83.309 71.84 82.2042 72.397 81.8663 73.4216C81.5641 74.3356 81.9761 75.3122 82.7963 75.7524L54.2844 91.4079C54.2791 90.5733 53.7359 89.8042 52.8951 89.5509C51.8621 89.2389 50.7719 89.8241 50.4606 90.8563L49.2711 94.7984C48.9599 95.8315 49.5443 96.9209 50.5773 97.2322L54.5187 98.4216C54.7071 98.4789 54.8971 98.5056 55.084 98.5056C55.9232 98.5056 56.6984 97.9608 56.9532 97.1163C57.2172 96.2404 56.8357 95.3249 56.0842 94.877L84.3908 79.3336C84.4313 80.1149 84.9401 80.8282 85.7283 81.0884C85.9312 81.1555 86.138 81.1876 86.3409 81.1876C87.1611 81.1876 87.9248 80.6673 88.1956 79.8456L89.4857 75.9363C89.6483 75.4442 89.6086 74.9078 89.3759 74.4455C89.1424 73.9824 88.735 73.6314 88.2429 73.4689Z" fill="black"/>
<path d="M39.123 90.8563C38.8109 89.8233 37.7207 89.2389 36.6884 89.5501C35.8477 89.8042 35.3044 90.5732 35.2991 91.4079L6.78801 75.7524C7.60741 75.3121 8.01939 74.3356 7.71727 73.4216C7.37929 72.3969 6.27379 71.8408 5.25068 72.1787L1.34061 73.4689C1.32993 73.4727 1.32306 73.4773 1.31467 73.4818C0.872929 73.6344 0.483829 73.9434 0.240451 74.3852C-0.0296305 74.8773 -0.0639628 75.4334 0.0962549 75.9278C0.0970178 75.9309 0.0970178 75.9332 0.0977807 75.9362L1.38791 79.8455C1.65952 80.6672 2.42246 81.1875 3.24262 81.1875C3.44557 81.1875 3.65232 81.1555 3.85526 81.0884C4.64338 80.8282 5.15226 80.1148 5.1927 79.3336L33.4993 94.877C32.7478 95.3256 32.3664 96.2404 32.6303 97.1162C32.8852 97.9608 33.6611 98.5055 34.4995 98.5055C34.6865 98.5055 34.8764 98.4788 35.0649 98.4216L38.949 97.2497C38.9513 97.249 38.9536 97.2482 38.9559 97.2474L39.0062 97.2322C39.0108 97.2314 39.0139 97.2284 39.0177 97.2268C39.4861 97.0826 39.9012 96.766 40.156 96.3029C40.4215 95.82 40.4596 95.2737 40.3086 94.7854L39.123 90.8563Z" fill="black"/>
</g>
<defs>
<clipPath id="clip0">
<rect width="100" height="100" fill="white"/>
</clipPath>
</defs>
</svg>
