<svg width="100" height="100" viewBox="0 0 100 100" fill="none" xmlns="http://www.w3.org/2000/svg">
<path d="M81.25 31.25H87.5V84.375H81.25V31.25Z" fill="#FFA800"/>
<path d="M28.125 17.1875L20.3125 21.875C20.3125 21.875 20.2617 31.25 28.125 35.9375C28.125 35.9375 35.9375 31.1523 35.9375 21.875L28.125 17.1875Z" fill="#FFA800"/>
<path d="M84.375 26.5625C83.9606 26.5625 83.5632 26.3979 83.2701 26.1049C82.9771 25.8118 82.8125 25.4144 82.8125 25V21.875C82.8125 21.4606 82.9771 21.0632 83.2701 20.7701C83.5632 20.4771 83.9606 20.3125 84.375 20.3125C84.7894 20.3125 85.1868 20.4771 85.4799 20.7701C85.7729 21.0632 85.9375 21.4606 85.9375 21.875V25C85.9375 25.4144 85.7729 25.8118 85.4799 26.1049C85.1868 26.3979 84.7894 26.5625 84.375 26.5625Z" fill="#6ED2F0" stroke="black" stroke-width="0.5"/>
<path d="M79.7477 84.8047L82.8727 95.7422C82.966 96.0686 83.1631 96.3558 83.4341 96.5603C83.7052 96.7647 84.0355 96.8753 84.375 96.8753C84.7145 96.8753 85.0448 96.7647 85.3159 96.5603C85.5869 96.3558 85.784 96.0686 85.8773 95.7422L89.0023 84.8047C89.0419 84.6649 89.0617 84.5203 89.0609 84.375H89.0625V26.8313C89.9757 27.1553 90.7663 27.7539 91.3258 28.545C91.8853 29.3362 92.1863 30.281 92.1875 31.25V46.875C92.1875 47.1176 92.244 47.3569 92.3525 47.5738L93.915 50.6988C94.0058 50.884 94.1324 51.0493 94.2874 51.1853C94.4424 51.3214 94.6228 51.4253 94.8181 51.4913C95.0135 51.5573 95.22 51.5839 95.4258 51.5697C95.6315 51.5554 95.8324 51.5006 96.0168 51.4084C96.2012 51.3162 96.3656 51.1883 96.5004 51.0323C96.6352 50.8762 96.7378 50.695 96.8022 50.4991C96.8666 50.3032 96.8917 50.0965 96.8758 49.8909C96.86 49.6853 96.8036 49.4849 96.71 49.3012L95.3125 46.5061V31.25C95.3102 29.1787 94.4863 27.1929 93.0217 25.7283C91.5571 24.2637 89.5713 23.4398 87.5 23.4375H85.9375V21.875C85.9375 21.4606 85.7729 21.0632 85.4799 20.7701C85.1868 20.4771 84.7894 20.3125 84.375 20.3125C83.9606 20.3125 83.5632 20.4771 83.2701 20.7701C82.9771 21.0632 82.8125 21.4606 82.8125 21.875V23.4375H81.25C80.8356 23.4375 80.4382 23.6021 80.1451 23.8951C79.8521 24.1882 79.6875 24.5856 79.6875 25V84.375H79.69C79.689 84.5202 79.7084 84.6649 79.7477 84.8047ZM84.375 89.6248L83.3215 85.9375H85.4285L84.375 89.6248ZM82.8125 26.5625H85.9375V29.6875H82.8125V26.5625ZM82.8125 32.8125H85.9375V82.8125H82.8125V32.8125Z" fill="black" stroke="black" stroke-width="0.5"/>
<path d="M4.6875 90.625H10.9375V95.3125C10.9375 95.7269 11.1021 96.1243 11.3951 96.4174C11.6882 96.7104 12.0856 96.875 12.5 96.875H75C75.4144 96.875 75.8118 96.7104 76.1049 96.4174C76.3979 96.1243 76.5625 95.7269 76.5625 95.3125V10.9375C76.5625 10.5231 76.3979 10.1257 76.1049 9.83265C75.8118 9.53962 75.4144 9.375 75 9.375H68.75V4.6875C68.75 4.2731 68.5854 3.87567 68.2924 3.58265C67.9993 3.28962 67.6019 3.125 67.1875 3.125H4.6875C4.2731 3.125 3.87567 3.28962 3.58265 3.58265C3.28962 3.87567 3.125 4.2731 3.125 4.6875V89.0625C3.125 89.4769 3.28962 89.8743 3.58265 90.1674C3.87567 90.4604 4.2731 90.625 4.6875 90.625ZM73.4375 12.5V93.75H14.0625V12.5H73.4375ZM6.25 6.25H65.625V9.375H12.5C12.0856 9.375 11.6882 9.53962 11.3951 9.83265C11.1021 10.1257 10.9375 10.5231 10.9375 10.9375V87.5H6.25V6.25Z" fill="black" stroke="black" stroke-width="0.5"/>
<path d="M27.3243 37.2797C27.569 37.4256 27.8489 37.5017 28.1337 37.5C28.4186 37.4983 28.6976 37.4187 28.9405 37.2699C29.2907 37.0559 37.5001 31.9123 37.5001 21.875C37.5001 21.6052 37.4302 21.34 37.2972 21.1052C37.1643 20.8704 36.9728 20.674 36.7415 20.5352L28.929 15.8477C28.6861 15.702 28.4082 15.625 28.1251 15.625C27.8419 15.625 27.564 15.702 27.3211 15.8477L19.5086 20.5352C19.2785 20.6733 19.0878 20.8683 18.9549 21.1015C18.822 21.3347 18.7515 21.5982 18.75 21.8666C18.7477 22.2852 18.7924 32.1932 27.3243 37.2797ZM28.1251 19.0098L34.3497 22.7445C33.9883 28.9096 29.8538 32.7055 28.0895 34.0547C23.1461 30.5893 22.1346 24.8703 21.928 22.7279L28.1251 19.0098Z" fill="black" stroke="black" stroke-width="0.5"/>
<path d="M42.1875 26.5625H64.0625C64.4769 26.5625 64.8743 26.3979 65.1674 26.1049C65.4604 25.8118 65.625 25.4144 65.625 25C65.625 24.5856 65.4604 24.1882 65.1674 23.8951C64.8743 23.6021 64.4769 23.4375 64.0625 23.4375H42.1875C41.7731 23.4375 41.3757 23.6021 41.0826 23.8951C40.7896 24.1882 40.625 24.5856 40.625 25C40.625 25.4144 40.7896 25.8118 41.0826 26.1049C41.3757 26.3979 41.7731 26.5625 42.1875 26.5625Z" fill="black" stroke="black" stroke-width="0.5"/>
<path d="M42.1875 32.8125H64.0625C64.4769 32.8125 64.8743 32.6479 65.1674 32.3549C65.4604 32.0618 65.625 31.6644 65.625 31.25C65.625 30.8356 65.4604 30.4382 65.1674 30.1451C64.8743 29.8521 64.4769 29.6875 64.0625 29.6875H42.1875C41.7731 29.6875 41.3757 29.8521 41.0826 30.1451C40.7896 30.4382 40.625 30.8356 40.625 31.25C40.625 31.6644 40.7896 32.0618 41.0826 32.3549C41.3757 32.6479 41.7731 32.8125 42.1875 32.8125Z" fill="black" stroke="black" stroke-width="0.5"/>
<path d="M18.75 45.3125H68.75C69.1644 45.3125 69.5618 45.1479 69.8549 44.8549C70.1479 44.5618 70.3125 44.1644 70.3125 43.75C70.3125 43.3356 70.1479 42.9382 69.8549 42.6451C69.5618 42.3521 69.1644 42.1875 68.75 42.1875H18.75C18.3356 42.1875 17.9382 42.3521 17.6451 42.6451C17.3521 42.9382 17.1875 43.3356 17.1875 43.75C17.1875 44.1644 17.3521 44.5618 17.6451 44.8549C17.9382 45.1479 18.3356 45.3125 18.75 45.3125Z" fill="black" stroke="black" stroke-width="0.5"/>
<path d="M18.75 51.5625H68.75C69.1644 51.5625 69.5618 51.3979 69.8549 51.1049C70.1479 50.8118 70.3125 50.4144 70.3125 50C70.3125 49.5856 70.1479 49.1882 69.8549 48.8951C69.5618 48.6021 69.1644 48.4375 68.75 48.4375H18.75C18.3356 48.4375 17.9382 48.6021 17.6451 48.8951C17.3521 49.1882 17.1875 49.5856 17.1875 50C17.1875 50.4144 17.3521 50.8118 17.6451 51.1049C17.9382 51.3979 18.3356 51.5625 18.75 51.5625Z" fill="black" stroke="black" stroke-width="0.5"/>
<path d="M18.75 57.8125H68.75C69.1644 57.8125 69.5618 57.6479 69.8549 57.3549C70.1479 57.0618 70.3125 56.6644 70.3125 56.25C70.3125 55.8356 70.1479 55.4382 69.8549 55.1451C69.5618 54.8521 69.1644 54.6875 68.75 54.6875H18.75C18.3356 54.6875 17.9382 54.8521 17.6451 55.1451C17.3521 55.4382 17.1875 55.8356 17.1875 56.25C17.1875 56.6644 17.3521 57.0618 17.6451 57.3549C17.9382 57.6479 18.3356 57.8125 18.75 57.8125Z" fill="black" stroke="black" stroke-width="0.5"/>
<path d="M18.75 64.0625H68.75C69.1644 64.0625 69.5618 63.8979 69.8549 63.6049C70.1479 63.3118 70.3125 62.9144 70.3125 62.5C70.3125 62.0856 70.1479 61.6882 69.8549 61.3951C69.5618 61.1021 69.1644 60.9375 68.75 60.9375H18.75C18.3356 60.9375 17.9382 61.1021 17.6451 61.3951C17.3521 61.6882 17.1875 62.0856 17.1875 62.5C17.1875 62.9144 17.3521 63.3118 17.6451 63.6049C17.9382 63.8979 18.3356 64.0625 18.75 64.0625Z" fill="black" stroke="black" stroke-width="0.5"/>
<path d="M18.75 70.3125H68.75C69.1644 70.3125 69.5618 70.1479 69.8549 69.8549C70.1479 69.5618 70.3125 69.1644 70.3125 68.75C70.3125 68.3356 70.1479 67.9382 69.8549 67.6451C69.5618 67.3521 69.1644 67.1875 68.75 67.1875H18.75C18.3356 67.1875 17.9382 67.3521 17.6451 67.6451C17.3521 67.9382 17.1875 68.3356 17.1875 68.75C17.1875 69.1644 17.3521 69.5618 17.6451 69.8549C17.9382 70.1479 18.3356 70.3125 18.75 70.3125Z" fill="black" stroke="black" stroke-width="0.5"/>
<path d="M18.75 76.5625H68.75C69.1644 76.5625 69.5618 76.3979 69.8549 76.1049C70.1479 75.8118 70.3125 75.4144 70.3125 75C70.3125 74.5856 70.1479 74.1882 69.8549 73.8951C69.5618 73.6021 69.1644 73.4375 68.75 73.4375H18.75C18.3356 73.4375 17.9382 73.6021 17.6451 73.8951C17.3521 74.1882 17.1875 74.5856 17.1875 75C17.1875 75.4144 17.3521 75.8118 17.6451 76.1049C17.9382 76.3979 18.3356 76.5625 18.75 76.5625Z" fill="black" stroke="black" stroke-width="0.5"/>
<path d="M68.75 84.375H55.8137L54.6072 80.7558C54.523 80.5032 54.3756 80.2762 54.179 80.0966C53.9824 79.9169 53.7431 79.7905 53.4839 79.7293C53.2247 79.6681 52.9542 79.6742 52.698 79.747C52.4418 79.8197 52.2084 79.9568 52.0201 80.1451L48.8654 83.3008L48.2725 82.1146C48.1734 81.9165 48.0333 81.7417 47.8615 81.6018C47.6897 81.4619 47.4901 81.3602 47.2759 81.3033C47.0618 81.2465 46.838 81.2358 46.6195 81.272C46.4009 81.3083 46.1925 81.3906 46.0082 81.5135L41.7145 84.375H37.5C37.0856 84.375 36.6882 84.5396 36.3951 84.8326C36.1021 85.1257 35.9375 85.5231 35.9375 85.9375C35.9375 86.3519 36.1021 86.7493 36.3951 87.0423C36.6882 87.3354 37.0856 87.5 37.5 87.5H42.1875C42.496 87.5001 42.7977 87.4087 43.0543 87.2375L46.2695 85.0943L47.0406 86.6363C47.1514 86.8577 47.3131 87.0496 47.5126 87.1963C47.7121 87.3429 47.9435 87.44 48.1879 87.4797C48.2704 87.4932 48.3539 87.5 48.4375 87.5C48.6427 87.5 48.8459 87.4596 49.0355 87.3811C49.225 87.3025 49.3973 87.1875 49.5424 87.0424L52.4414 84.1426L53.2045 86.4316C53.3082 86.7428 53.5073 87.0135 53.7735 87.2053C54.0397 87.397 54.3594 87.5001 54.6875 87.5H68.75C69.1644 87.5 69.5618 87.3354 69.8549 87.0423C70.1479 86.7493 70.3125 86.3519 70.3125 85.9375C70.3125 85.5231 70.1479 85.1257 69.8549 84.8326C69.5618 84.5396 69.1644 84.375 68.75 84.375Z" fill="black" stroke="black" stroke-width="0.5"/>
</svg>
