<svg width="100" height="100" viewBox="0 0 100 100" fill="none" xmlns="http://www.w3.org/2000/svg">
<path fill-rule="evenodd" clip-rule="evenodd" d="M22.2372 40.3906H81.3214V35.0513C81.3214 33.0942 79.7197 31.4921 77.7621 31.4921H34.6944V26.1528C34.6944 24.1952 33.0928 22.5935 31.1351 22.5935H13.3386C11.381 22.5935 9.7793 24.1952 9.7793 26.1528V89.3305C9.7793 91.7877 11.7713 93.7798 14.2286 93.7798C16.6858 93.7798 18.6779 91.7879 18.6779 89.3305V43.9501C18.6779 41.9923 20.2796 40.3906 22.2372 40.3906Z" fill="#FFA800"/>
<path fill-rule="evenodd" clip-rule="evenodd" d="M68.6865 22.2378C68.6865 23.2164 69.4875 24.0174 70.4661 24.0174H86.4836V84.8812C86.4836 85.86 85.6822 86.6609 84.7039 86.6609H24.1957C23.2169 86.6609 22.416 85.86 22.416 84.8812V7.99999C22.416 7.02171 23.2169 6.22034 24.1957 6.22034H68.6865V22.2378Z" fill="white"/>
<path fill-rule="evenodd" clip-rule="evenodd" d="M81.3213 40.3907H22.2371C20.2795 40.3907 18.6778 41.9924 18.6778 43.9501V89.3305C18.6778 91.7877 16.6859 93.7798 14.2285 93.7798H86.6606C88.6177 93.7798 90.2199 92.1776 90.2199 90.2207V43.9501C90.2199 41.993 88.6182 40.3907 86.6606 40.3907H81.3213Z" fill="#FFA800"/>
<path d="M88.2627 38.8567V24.0172C88.2627 23.5453 88.0752 23.0925 87.7415 22.7588L69.9444 4.96193C69.6105 4.62825 69.158 4.44067 68.686 4.44067H24.1952C22.2326 4.44067 20.6359 6.03738 20.6359 7.99998V20.8138H13.339C10.3951 20.8138 8 23.2089 8 26.1528V89.3305C8 92.7652 10.7942 95.5595 14.229 95.5595H86.6609C89.6048 95.5595 91.9998 93.1644 91.9998 90.2205V43.9499C92 41.5637 90.4264 39.5387 88.2627 38.8567ZM70.4657 10.5169L82.1866 22.2377H70.4657V10.5169ZM66.9064 7.99998V22.2377C66.9064 24.2003 68.5031 25.7971 70.4657 25.7971H84.7034V38.6109H24.1952V7.99998H66.9064ZM16.8986 89.3303C16.8986 90.8023 15.7011 92 14.229 92C12.7568 92 11.5593 90.8023 11.5593 89.3303V26.1526C11.5593 25.1713 12.3577 24.373 13.339 24.373H20.6359V38.8567C18.4722 39.5387 16.8986 41.5637 16.8986 43.9497V89.3303ZM88.4407 90.2203C88.4407 91.2016 87.6423 92 86.661 92H19.8564C20.2421 91.1904 20.4579 90.2853 20.4579 89.3303C20.4579 69.9622 20.4579 49.1373 20.4579 43.9499C20.4579 42.9686 21.2563 42.1702 22.2376 42.1702H86.661C87.6423 42.1702 88.4407 42.9686 88.4407 43.9499V90.2203Z" fill="black"/>
<path d="M33.0941 33.806H75.8058C76.7885 33.806 77.5854 33.0093 77.5854 32.0264C77.5854 31.0435 76.7885 30.2467 75.8058 30.2467H33.0941C32.1112 30.2467 31.3145 31.0435 31.3145 32.0264C31.3145 33.0093 32.1112 33.806 33.0941 33.806Z" fill="black"/>
</svg>
