<svg width="100" height="100" viewBox="0 0 100 100" fill="none" xmlns="http://www.w3.org/2000/svg">
<g clip-path="url(#clip0)">
<path d="M76.3672 98.0469H6.05469V1.95312H76.3672V98.0469Z" fill="white"/>
<path d="M91.0156 64.4531H51.1719C49.5539 64.4531 48.2422 63.1414 48.2422 61.5234V36.1328C48.2422 34.5148 49.5539 33.2031 51.1719 33.2031H91.0156C92.6336 33.2031 93.9453 34.5148 93.9453 36.1328V61.5234C93.9453 63.1414 92.6336 64.4531 91.0156 64.4531Z" fill="#FFA800"/>
<path d="M56.4453 41.0156H68.1641V48.8281H56.4453V41.0156Z" fill="white"/>
<path d="M39.8438 74.2188C40.9225 74.2188 41.7969 73.3441 41.7969 72.2656C41.7969 71.1871 40.9225 70.3125 39.8438 70.3125H32.2266C31.1479 70.3125 30.2734 71.1871 30.2734 72.2656C30.2734 73.3441 31.1479 74.2188 32.2266 74.2188H39.8438Z" fill="black"/>
<path d="M23.4375 74.2188C24.5162 74.2188 25.3906 73.3441 25.3906 72.2656C25.3906 71.1871 24.5162 70.3125 23.4375 70.3125H15.8203C14.7416 70.3125 13.8672 71.1871 13.8672 72.2656C13.8672 73.3441 14.7416 74.2188 15.8203 74.2188H23.4375Z" fill="black"/>
<path d="M43.75 20.5078C43.75 21.5863 44.6244 22.4609 45.7031 22.4609H60.7422C61.8207 22.4609 62.6953 21.5863 62.6953 20.5078C62.6953 19.4293 61.8207 18.5547 60.7422 18.5547H45.7031C44.6244 18.5547 43.75 19.4293 43.75 20.5078Z" fill="black"/>
<path d="M19.7266 20.5078C19.7266 21.5863 20.601 22.4609 21.6797 22.4609H36.9141C37.9928 22.4609 38.8672 21.5863 38.8672 20.5078C38.8672 19.4293 37.9928 18.5547 36.9141 18.5547H21.6797C20.601 18.5547 19.7266 19.4293 19.7266 20.5078Z" fill="black"/>
<path d="M50.9766 10.7422H31.4453C30.3666 10.7422 29.4922 11.6168 29.4922 12.6953C29.4922 13.7738 30.3666 14.6484 31.4453 14.6484H50.9766C52.0551 14.6484 52.9297 13.7738 52.9297 12.6953C52.9297 11.6168 52.0551 10.7422 50.9766 10.7422Z" fill="black"/>
<path d="M50.9766 80.0781C50.9766 85.4629 55.3574 89.8438 60.7422 89.8438C66.127 89.8438 70.5078 85.4629 70.5078 80.0781C70.5078 74.6934 66.127 70.3125 60.7422 70.3125C55.3574 70.3125 50.9766 74.6934 50.9766 80.0781ZM66.6016 80.0781C66.6016 83.309 63.973 85.9375 60.7422 85.9375C57.5113 85.9375 54.8828 83.309 54.8828 80.0781C54.8828 76.8473 57.5113 74.2188 60.7422 74.2188C63.973 74.2188 66.6016 76.8473 66.6016 80.0781Z" fill="black"/>
<path d="M91.0156 31.25H78.3203V1.95312C78.3203 1.43945 78.1113 0.935547 77.748 0.572266C77.3848 0.208984 76.8809 0 76.3672 0H6.05469C5.54102 0 5.03711 0.208984 4.67383 0.572266C4.31055 0.935547 4.10156 1.43945 4.10156 1.95312V98.0469C4.10156 98.5605 4.31055 99.0645 4.67383 99.4277C5.03711 99.791 5.53906 100 6.05469 100H76.3672C76.8809 100 77.3848 99.791 77.748 99.4277C78.1113 99.0645 78.3203 98.5605 78.3203 98.0469V71.0938C78.3203 70.0176 77.4434 69.1406 76.3672 69.1406C75.291 69.1406 74.4141 70.0176 74.4141 71.0938V96.0938H8.00781V3.90625H74.4141V31.25H21.6797C20.601 31.25 19.7266 32.1246 19.7266 33.2031C19.7266 34.2816 20.601 35.1562 21.6797 35.1562H46.3873C46.323 35.4719 46.2891 35.7984 46.2891 36.1328V39.0625H15.8203C14.7416 39.0625 13.8672 39.9371 13.8672 41.0156C13.8672 42.0941 14.7416 42.9688 15.8203 42.9688H46.2891V46.875H15.8203C14.7416 46.875 13.8672 47.7496 13.8672 48.8281C13.8672 49.9066 14.7416 50.7812 15.8203 50.7812H46.2891V54.6875H15.8203C14.7416 54.6875 13.8672 55.5621 13.8672 56.6406C13.8672 57.7191 14.7416 58.5938 15.8203 58.5938H46.2891V61.5234C46.2891 61.8578 46.323 62.1844 46.3873 62.5H15.8203C14.7416 62.5 13.8672 63.3746 13.8672 64.4531C13.8672 65.5316 14.7416 66.4062 15.8203 66.4062H74.4141V71.2891C74.4141 72.3652 75.291 73.2422 76.3672 73.2422C77.4434 73.2422 78.3203 72.3652 78.3203 71.2891V66.4062H91.0156C93.709 66.4062 95.8984 64.2168 95.8984 61.5234V36.1328C95.8984 33.4395 93.709 31.25 91.0156 31.25ZM91.9922 61.5234C91.9922 62.0625 91.5547 62.5 91.0156 62.5H51.1719C50.6328 62.5 50.1953 62.0625 50.1953 61.5234V36.1328C50.1953 35.5938 50.6328 35.1562 51.1719 35.1562H91.0156C91.5547 35.1562 91.9922 35.5938 91.9922 36.1328V61.5234Z" fill="black"/>
<path d="M57.3242 54.6875H56.6406C55.5621 54.6875 54.6875 55.5621 54.6875 56.6406C54.6875 57.7191 55.5621 58.5938 56.6406 58.5938H57.3242C58.4027 58.5938 59.2773 57.7191 59.2773 56.6406C59.2773 55.5621 58.4027 54.6875 57.3242 54.6875Z" fill="black"/>
<path d="M66.7969 54.6875H66.1133C65.0348 54.6875 64.1602 55.5621 64.1602 56.6406C64.1602 57.7191 65.0348 58.5938 66.1133 58.5938H66.7969C67.8754 58.5938 68.75 57.7191 68.75 56.6406C68.75 55.5621 67.8754 54.6875 66.7969 54.6875Z" fill="black"/>
<path d="M85.7422 54.6875H85.0586C83.9801 54.6875 83.1055 55.5621 83.1055 56.6406C83.1055 57.7191 83.9801 58.5938 85.0586 58.5938H85.7422C86.8207 58.5938 87.6953 57.7191 87.6953 56.6406C87.6953 55.5621 86.8207 54.6875 85.7422 54.6875Z" fill="black"/>
<path d="M76.2695 54.6875H75.5859C74.5074 54.6875 73.6328 55.5621 73.6328 56.6406C73.6328 57.7191 74.5074 58.5938 75.5859 58.5938H76.2695C77.348 58.5938 78.2227 57.7191 78.2227 56.6406C78.2227 55.5621 77.348 54.6875 76.2695 54.6875Z" fill="black"/>
<path d="M68.1641 39.0625H56.4453C55.3668 39.0625 54.4922 39.9371 54.4922 41.0156V48.8281C54.4922 49.9066 55.3668 50.7812 56.4453 50.7812H68.1641C69.2426 50.7812 70.1172 49.9066 70.1172 48.8281V41.0156C70.1172 39.9371 69.2426 39.0625 68.1641 39.0625ZM66.2109 46.875H58.3984V42.9688H66.2109V46.875Z" fill="black"/>
<path d="M45.1006 79.1017C42.7139 79.1017 40.4473 79.6954 38.4004 80.8651C37.043 81.6388 35.9707 82.5196 35.1094 83.2267C34.8731 83.4198 34.6504 83.6036 34.4453 83.7657C31.1485 86.3868 27.584 86.7794 25.7539 86.7811C25.3106 86.7811 24.4492 86.7032 24.4492 86.7032C23.75 86.5919 23.0156 86.881 22.586 87.4415C22.502 87.4923 22.2871 87.5978 22.0039 87.6913C20.9649 88.0606 19.1172 88.2929 18.3613 88.2813C18.1446 88.2813 17.9317 88.2608 17.7832 88.2276C17.8028 88.0831 17.9238 87.4063 18.5977 86.2698C19.8145 84.1681 20.791 83.1468 21.3965 82.6585C22.0762 82.1155 22.459 82.0394 22.7129 82.0315C22.9278 82.0315 23.1406 82.1214 23.3789 82.3147C23.5059 82.4222 23.6719 82.6231 23.6738 82.6272C24.0371 83.18 24.6465 83.5081 25.3086 83.5081C25.6778 83.5081 26.0391 83.4046 26.3516 83.2054C27.2617 82.6292 27.5283 81.4134 26.9522 80.5032C26.6748 80.0813 26.3125 79.68 25.8848 79.3186C25.2383 78.7759 24.1524 78.1272 22.6973 78.1255C21.4414 78.1255 20.1309 78.645 18.9336 79.6272C17.666 80.6604 16.4512 82.1917 15.2188 84.3091C14.2852 85.9399 13.8809 87.1509 13.8653 88.356C13.8633 89.0024 14.0098 89.6196 14.2871 90.145C14.6758 90.8909 15.377 91.5024 16.2129 91.8227C16.8438 92.0669 17.5254 92.1841 18.3594 92.188C19.4336 92.1839 20.7617 92.02 22 91.7427C22.7774 91.5649 23.3965 91.3677 23.9512 91.1235C24.2793 90.977 24.5508 90.8306 24.8028 90.6587C25.1094 90.6782 25.4317 90.686 25.7559 90.686C26.8848 90.686 28.6524 90.5688 30.6504 90.0065C32.9219 89.3659 35.0156 88.2976 36.8731 86.8269C37.0977 86.6472 37.3262 86.4597 37.5469 86.28C38.4102 85.5729 39.3028 84.8425 40.3281 84.2644C41.8613 83.4011 43.3399 83.0144 45.1172 83.0085C46.1934 83.0085 47.0703 82.1315 47.0703 81.0554C47.0703 79.9792 46.1768 79.1017 45.1006 79.1017Z" fill="black"/>
</g>
<defs>
<clipPath id="clip0">
<rect width="100" height="100" fill="white"/>
</clipPath>
</defs>
</svg>
