<svg width="100" height="100" viewBox="0 0 100 100" fill="none" xmlns="http://www.w3.org/2000/svg">
<path fill-rule="evenodd" clip-rule="evenodd" d="M98.0082 50.0001C98.0082 76.5142 76.5143 98.0081 50.0002 98.0081C23.4861 98.0081 1.99219 76.5142 1.99219 50.0001C1.99219 23.486 23.4861 1.99207 50.0002 1.99207C76.5143 1.99207 98.0082 23.486 98.0082 50.0001ZM87.25 50C87.25 70.5732 70.5722 87.251 49.999 87.251C29.4259 87.251 12.748 70.5732 12.748 50C12.748 29.4269 29.4259 12.749 49.999 12.749C70.5722 12.749 87.25 29.4269 87.25 50Z" fill="#FFA800"/>
<path d="M49.9996 34.263C53.4102 34.263 56.175 31.4982 56.175 28.0876C56.175 24.6771 53.4102 21.9122 49.9996 21.9122C46.589 21.9122 43.8242 24.6771 43.8242 28.0876C43.8242 31.4982 46.589 34.263 49.9996 34.263Z" fill="#FFA800"/>
<path d="M53.4855 41.1528H46.5135C45.0281 41.1528 43.8242 42.3567 43.8242 43.8421V74.8007C43.8242 76.286 45.0281 77.4899 46.5135 77.4899H53.4855C54.9709 77.4899 56.1748 76.286 56.1748 74.8007V43.8421C56.1748 42.3569 54.9707 41.1528 53.4855 41.1528Z" fill="#FFA800"/>
<path d="M50 100C36.6445 100 24.0885 94.7992 14.6445 85.3555C5.20059 75.9117 0 63.3555 0 50C0 36.6445 5.20078 24.0885 14.6445 14.6445C24.0883 5.20059 36.6445 0 50 0C63.3555 0 75.9115 5.20078 85.3555 14.6445C94.7994 24.0883 100 36.6445 100 50C100 63.3555 94.7992 75.9115 85.3555 85.3555C75.9117 94.7994 63.3555 100 50 100ZM50 3.98398C24.6268 3.98398 3.98398 24.6268 3.98398 50C3.98398 75.3732 24.6268 96.016 50 96.016C75.3732 96.016 96.016 75.3732 96.016 50C96.016 24.6268 75.3732 3.98398 50 3.98398Z" fill="black"/>
<path d="M50.0008 89.2429C28.3621 89.2429 10.7578 71.6386 10.7578 49.9999C10.7578 28.3613 28.3621 10.757 50.0008 10.757C71.6394 10.757 89.2437 28.3613 89.2437 49.9999C89.2437 71.6386 71.6394 89.2429 50.0008 89.2429ZM50.0008 14.7409C30.559 14.7409 14.7418 30.5581 14.7418 49.9999C14.7418 69.4417 30.559 85.2589 50.0008 85.2589C69.4426 85.2589 85.2598 69.4417 85.2598 49.9999C85.2598 30.5581 69.4426 14.7409 50.0008 14.7409Z" fill="black"/>
<path d="M49.9994 36.2552C45.4961 36.2552 41.832 32.5913 41.832 28.0878C41.832 23.5843 45.4959 19.9204 49.9994 19.9204C54.5029 19.9204 58.1668 23.5843 58.1668 28.0878C58.1668 32.5913 54.5027 36.2552 49.9994 36.2552ZM49.9994 23.9044C47.6926 23.9044 45.8162 25.781 45.8162 28.0876C45.8162 30.3944 47.6928 32.2708 49.9994 32.2708C52.3063 32.2708 54.1826 30.3942 54.1826 28.0876C54.1826 25.781 52.3063 23.9044 49.9994 23.9044Z" fill="black"/>
<path d="M53.4873 79.482H46.5152C43.934 79.482 41.834 77.382 41.834 74.8007V43.8421C41.834 41.2609 43.934 39.1609 46.5152 39.1609H53.4873C56.0685 39.1609 58.1685 41.2609 58.1685 43.8421V74.8007C58.1685 77.382 56.0685 79.482 53.4873 79.482ZM46.515 43.1451C46.1307 43.1451 45.8178 43.4578 45.8178 43.8423V74.8007C45.8178 75.1851 46.1305 75.498 46.515 75.498H53.4871C53.8715 75.498 54.1844 75.1853 54.1844 74.8007V43.8421C54.1844 43.4578 53.8717 43.1449 53.4871 43.1449H46.515V43.1451Z" fill="black"/>
</svg>
