<svg width="284" height="40" viewBox="0 0 284 40" fill="none" xmlns="http://www.w3.org/2000/svg">
<path d="M89.5024 26.5644C89.4038 26.5644 89.3192 26.6345 89.3008 26.7314L87.4896 36.3034C87.3006 37.3934 86.5682 37.8673 85.4578 37.8673H84.7179C84.6047 37.8673 84.5128 37.9592 84.5128 38.0724V39.4631C84.5128 39.5764 84.6047 39.6682 84.7179 39.6682H85.5996C87.5605 39.6682 88.9544 38.6256 89.3324 36.493L90.8368 28.438C90.855 28.3409 90.9397 28.2705 91.0385 28.2705H97.3254C97.4387 28.2705 97.5305 28.3623 97.5305 28.4756V39.4631C97.5305 39.5764 97.6224 39.6682 97.7357 39.6682H99.1682C99.2815 39.6682 99.3733 39.5764 99.3733 39.4631V26.7695C99.3733 26.6562 99.2815 26.5644 99.1682 26.5644H89.5024Z" fill="black"/>
<path d="M110.896 33.1281C110.92 29.8344 113.283 27.9151 116.33 27.9151C119.354 27.9151 121.74 29.8344 121.74 33.1281C121.74 36.4219 119.354 38.3412 116.33 38.3412C113.283 38.3412 110.92 36.4219 110.896 33.1281ZM123.607 33.1281C123.607 28.9814 120.441 26.2563 116.33 26.2563C112.219 26.2563 109.054 28.9814 109.054 33.1281C109.054 37.2749 112.219 39.9999 116.33 39.9999C120.441 39.9999 123.607 37.2749 123.607 33.1281Z" fill="black"/>
<path d="M133.469 26.5644C133.356 26.5644 133.264 26.6562 133.264 26.7695V39.4631C133.264 39.5764 133.356 39.6682 133.469 39.6682H134.902C135.015 39.6682 135.107 39.5764 135.107 39.4631V28.4756C135.107 28.3623 135.199 28.2705 135.312 28.2705H144.801C144.914 28.2705 145.006 28.1787 145.006 28.0654V26.7695C145.006 26.6562 144.914 26.5644 144.801 26.5644H133.469Z" fill="black"/>
<path d="M154.625 26.5644C154.512 26.5644 154.42 26.6562 154.42 26.7695V39.4631C154.42 39.5764 154.512 39.6682 154.625 39.6682H156.243C156.301 39.6682 156.356 39.6437 156.395 39.6008L165.592 29.4468C165.718 29.3077 165.95 29.3968 165.95 29.5845V39.4631C165.95 39.5764 166.041 39.6682 166.155 39.6682H167.587C167.7 39.6682 167.792 39.5764 167.792 39.4631V26.7695C167.792 26.6562 167.7 26.5644 167.587 26.5644H165.993C165.935 26.5644 165.88 26.589 165.841 26.6321L156.62 36.8549C156.495 36.9944 156.263 36.9054 156.263 36.7175V26.7695C156.263 26.6562 156.171 26.5644 156.058 26.5644H154.625Z" fill="black"/>
<path d="M190.808 29.4483C190.91 29.388 190.94 29.2534 190.87 29.1575C189.514 27.3025 187.367 26.2563 184.665 26.2563C180.554 26.2563 177.436 28.8629 177.436 33.1044C177.436 37.3697 180.483 39.9999 184.665 39.9999C187.481 39.9999 189.52 38.9322 190.891 37.0769C190.962 36.9804 190.931 36.8442 190.828 36.784L189.664 36.1092C189.575 36.0576 189.462 36.0801 189.397 36.16C188.277 37.5411 186.812 38.3175 184.594 38.3175C181.452 38.3175 179.302 36.1375 179.302 33.1044C179.302 30.0003 181.381 27.9624 184.594 27.9624C186.763 27.9624 188.314 28.7144 189.396 30.0687C189.461 30.1502 189.576 30.1735 189.666 30.1205L190.808 29.4483Z" fill="black"/>
<path d="M199.922 26.5644C199.809 26.5644 199.717 26.6562 199.717 26.7695V28.0654C199.717 28.1787 199.809 28.2705 199.922 28.2705H205.3C205.413 28.2705 205.505 28.3623 205.505 28.4756V39.4631C205.505 39.5764 205.597 39.6682 205.71 39.6682H207.166C207.28 39.6682 207.372 39.5764 207.372 39.4631V28.4756C207.372 28.3623 207.463 28.2705 207.577 28.2705H212.955C213.068 28.2705 213.16 28.1787 213.16 28.0654V26.7695C213.16 26.6562 213.068 26.5644 212.955 26.5644H199.922Z" fill="black"/>
<path d="M222.777 26.5644C222.664 26.5644 222.572 26.6562 222.572 26.7695V39.4631C222.572 39.5764 222.664 39.6682 222.777 39.6682H224.395C224.453 39.6682 224.508 39.6437 224.547 39.6008L233.744 29.4468C233.87 29.3077 234.102 29.3968 234.102 29.5845V39.4631C234.102 39.5764 234.193 39.6682 234.307 39.6682H235.739C235.853 39.6682 235.944 39.5764 235.944 39.4631V26.7695C235.944 26.6562 235.853 26.5644 235.739 26.5644H234.146C234.087 26.5644 234.032 26.589 233.993 26.6321L224.772 36.8549C224.647 36.9944 224.415 36.9054 224.415 36.7175V26.7695C224.415 26.6562 224.323 26.5644 224.21 26.5644H222.777Z" fill="black"/>
<path d="M246.195 26.5644C246.081 26.5644 245.989 26.6562 245.989 26.7695V39.4631C245.989 39.5764 246.081 39.6682 246.195 39.6682H247.627C247.74 39.6682 247.832 39.5764 247.832 39.4631V33.7598C247.832 33.6465 247.924 33.5547 248.037 33.5547H253.059C253.129 33.5547 253.194 33.5906 253.232 33.65L256.986 39.5729C257.023 39.6322 257.089 39.6682 257.159 39.6682H258.87C259.032 39.6682 259.13 39.4896 259.043 39.353L254.827 32.721C254.783 32.6518 254.785 32.5629 254.831 32.4952L258.669 26.8854C258.763 26.7492 258.665 26.5644 258.5 26.5644H256.847C256.779 26.5644 256.716 26.5976 256.678 26.6532L253.162 31.7598C253.124 31.8154 253.06 31.8486 252.993 31.8486H248.037C247.924 31.8486 247.832 31.7567 247.832 31.6434V26.7695C247.832 26.6562 247.74 26.5644 247.627 26.5644H246.195Z" fill="black"/>
<path d="M274.74 28.3719C274.772 28.2961 274.846 28.2468 274.929 28.2468H276.593C276.676 28.2468 276.751 28.297 276.783 28.3739L279.732 35.5463C279.788 35.6813 279.689 35.8295 279.543 35.8295H271.89C271.743 35.8295 271.643 35.6796 271.701 35.5443L274.74 28.3719ZM273.793 26.5644C273.712 26.5644 273.638 26.6129 273.605 26.6878L268.09 39.3813C268.031 39.5168 268.13 39.6682 268.278 39.6682H269.815C269.897 39.6682 269.971 39.6195 270.003 39.5444L270.818 37.6593C270.85 37.5842 270.924 37.5356 271.006 37.5356H280.494C280.575 37.5356 280.649 37.5842 280.682 37.6593L281.496 39.5444C281.529 39.6196 281.603 39.6682 281.685 39.6682H283.177C283.324 39.6682 283.424 39.5183 283.366 39.383L277.988 26.6895C277.956 26.6137 277.882 26.5644 277.799 26.5644H273.793Z" fill="black"/>
<path d="M53.8898 3.1359C53.5088 1.82362 54.4933 0.512695 55.8598 0.512695H63.1763C64.6365 0.512695 65.9211 1.47738 66.3282 2.87968L69.3334 13.2306H56.8205L53.8898 3.1359Z" fill="#FFA800"/>
<path d="M0 0.512695H47.6891C49.1493 0.512695 50.4339 1.47738 50.841 2.87968L53.8461 13.2306H6.24059C4.78941 13.2306 3.5105 12.2776 3.09557 10.887L0 0.512695Z" fill="#FFA800"/>
<path d="M4.71796 16.3076H21.641V26.564H10.3161C8.87786 26.564 7.60714 25.6276 7.18127 24.2538L4.71796 16.3076Z" fill="#FFA800"/>
<path d="M8.8205 29.6409H21.641V39.8973H14.4187C12.9804 39.8973 11.7097 38.9608 11.2838 37.587L8.8205 29.6409Z" fill="#FFA800"/>
<path d="M37.4359 16.3076H24.718V37.8461C24.718 38.979 25.6363 39.8974 26.7692 39.8974H37.4359V16.3076Z" fill="black"/>
<path d="M41.7436 16.3076H54.4615V37.8461C54.4615 38.979 53.5431 39.8974 52.4103 39.8974H41.7436V16.3076Z" fill="black"/>
<path d="M70.1538 16.3076H57.8461L64 39.8974H74.5648C75.9423 39.8974 76.9283 38.5666 76.5272 37.2488L70.1538 16.3076Z" fill="black"/>
<path d="M89.9448 19.9172C89.9448 20.1471 89.9064 20.3004 89.8298 20.377C89.7723 20.4537 89.5807 20.492 89.255 20.492H85.1738C84.7332 20.492 84.5128 20.3004 84.5128 19.9172V5.83432C84.5128 5.14455 84.6086 4.47394 84.8002 3.82249C84.9918 3.15187 85.2984 2.56748 85.7199 2.06932C86.1606 1.55199 86.7354 1.14004 87.4443 0.833475C88.1533 0.52691 89.0155 0.373627 90.031 0.373627H98.7681C98.998 0.373627 99.1417 0.411947 99.1992 0.488589C99.2758 0.54607 99.3142 0.737673 99.3142 1.0634V4.31107C99.3142 4.56016 99.2758 4.7326 99.1992 4.8284C99.1226 4.90504 98.9789 4.94337 98.7681 4.94337H91.6692C91.286 4.94337 90.9794 5.00085 90.7495 5.11581C90.5196 5.21161 90.3471 5.33615 90.2322 5.48943C90.1172 5.64272 90.0406 5.81516 90.0023 6.00676C89.9639 6.19837 89.9448 6.38997 89.9448 6.58157V19.9172Z" fill="black"/>
<path d="M106.203 19.9172C106.203 20.1471 106.165 20.3004 106.088 20.377C106.031 20.4537 105.839 20.492 105.514 20.492H101.432C100.992 20.492 100.771 20.3004 100.771 19.9172V2.2705C100.771 1.75317 100.886 1.31248 101.116 0.948438C101.346 0.56523 101.854 0.373627 102.64 0.373627H109.94C111.07 0.373627 112.066 0.53649 112.929 0.862216C113.81 1.18794 114.548 1.64779 115.142 2.24176C115.736 2.81657 116.186 3.49676 116.492 4.28233C116.799 5.06791 116.952 5.92054 116.952 6.84024C116.952 7.1468 116.924 7.53001 116.866 7.98986C116.809 8.44971 116.684 8.92871 116.492 9.42688C116.32 9.92505 116.061 10.4328 115.716 10.9501C115.372 11.4483 114.902 11.8986 114.308 12.3009C113.733 12.7033 113.005 13.029 112.124 13.2781C111.262 13.5272 110.227 13.6517 109.02 13.6517H106.203V19.9172ZM111.348 7.21386C111.348 7.02226 111.319 6.80192 111.262 6.55283C111.204 6.28459 111.099 6.04508 110.946 5.83432C110.811 5.62356 110.61 5.44153 110.342 5.28825C110.074 5.13497 109.729 5.05833 109.307 5.05833H106.203V9.39814H109.307C109.978 9.39814 110.486 9.1778 110.831 8.73711C111.175 8.27726 111.348 7.76951 111.348 7.21386Z" fill="black"/>
<path d="M134.001 0.258664C134.423 0.258664 134.557 0.440688 134.404 0.804734L128.828 16.8419C128.33 18.2981 127.611 19.3424 126.672 19.9746C125.734 20.6069 124.45 20.9231 122.821 20.9231C122.304 20.9231 121.787 20.8943 121.269 20.8369C120.752 20.7794 120.215 20.6644 119.66 20.492C119.391 20.3962 119.209 20.3099 119.114 20.2333C119.018 20.1567 118.999 19.9842 119.056 19.716L119.631 16.8132C119.688 16.5449 119.756 16.4108 119.832 16.4108C119.928 16.3917 120.11 16.4012 120.378 16.4396C120.666 16.4779 120.905 16.5066 121.097 16.5258C121.308 16.5449 121.518 16.5545 121.729 16.5545C122.074 16.5545 122.371 16.5545 122.62 16.5545C122.888 16.5354 123.109 16.4875 123.281 16.4108C123.473 16.3342 123.636 16.2096 123.77 16.0372C123.904 15.8648 124.028 15.6157 124.143 15.2899L124.431 14.4277H123.511C123.243 14.4277 123.022 14.4086 122.85 14.3702C122.677 14.3128 122.534 14.2361 122.419 14.1403C122.304 14.0445 122.198 13.9104 122.103 13.738C122.026 13.5655 121.94 13.3643 121.844 13.1344L117.044 0.919696C116.949 0.651451 116.958 0.479008 117.073 0.402367C117.207 0.306565 117.361 0.258664 117.533 0.258664H121.643C122.084 0.258664 122.371 0.296985 122.505 0.373627C122.639 0.431108 122.754 0.613131 122.85 0.919696L124.402 5.66188L125.81 10.2316H125.983L127.218 5.46069L128.397 1.03466C128.493 0.728093 128.598 0.52691 128.713 0.431109C128.828 0.316146 129.096 0.258664 129.518 0.258664H134.001Z" fill="black"/>
<path d="M143.037 0C143.899 0 144.781 0.0862215 145.681 0.258664C146.582 0.411947 147.396 0.689773 148.124 1.09214C148.852 1.49451 149.446 2.05016 149.906 2.75909C150.385 3.44886 150.624 4.32065 150.624 5.37447C150.624 6.17921 150.375 6.97436 149.877 7.75993C149.398 8.54551 148.728 9.16822 147.865 9.62807V9.80051C148.44 9.99211 148.938 10.2508 149.36 10.5765C149.781 10.9022 150.126 11.2759 150.395 11.6974C150.682 12.0997 150.883 12.5309 150.998 12.9907C151.132 13.4314 151.199 13.8625 151.199 14.284C151.199 15.357 150.979 16.2959 150.538 17.1006C150.098 17.9053 149.494 18.5855 148.728 19.1412C147.961 19.6777 147.07 20.08 146.055 20.3483C145.058 20.6165 143.995 20.7602 142.865 20.7794C142.251 20.7794 141.581 20.7506 140.853 20.6932C140.125 20.6357 139.387 20.5303 138.64 20.377C137.912 20.2237 137.193 20.0225 136.484 19.7735C135.794 19.5244 135.378 19.2274 134.803 18.8825C134.593 18.7675 134.478 18.6334 134.458 18.4801C134.439 18.3077 134.506 18.0873 134.66 17.8191L135.794 15.2325C135.928 14.9259 136.053 14.7439 136.168 14.6864C136.302 14.6289 136.522 14.6768 136.829 14.8301C137.174 14.9834 137.567 15.1367 138.007 15.2899C138.467 15.4241 138.927 15.5486 139.387 15.6636C139.866 15.7785 140.345 15.8743 140.824 15.951C141.303 16.0085 141.763 16.0372 142.203 16.0372C143.315 16.0372 144.129 15.8264 144.646 15.4049C145.183 14.9834 145.451 14.4277 145.451 13.738C145.451 13.2206 145.212 12.7991 144.733 12.4734C144.273 12.1476 143.545 11.9656 142.548 11.9273L141.284 11.8986C140.881 11.9177 140.575 11.8794 140.364 11.7836C140.153 11.6686 140.048 11.3429 140.048 10.8064V9.02451C140.048 8.58383 140.115 8.28684 140.249 8.13356C140.402 7.98028 140.69 7.89406 141.111 7.8749L142.721 7.84615C143.391 7.82699 143.918 7.68329 144.302 7.41505C144.704 7.1468 144.905 6.7636 144.905 6.26543C144.905 5.70978 144.656 5.31699 144.158 5.08707C143.66 4.85714 143.075 4.74218 142.405 4.74218C141.677 4.74218 140.91 4.81882 140.105 4.97211C139.32 5.12539 138.544 5.34573 137.777 5.63314C137.413 5.76726 137.164 5.80558 137.03 5.7481C136.915 5.67146 136.781 5.45111 136.628 5.08707L135.708 2.78783C135.632 2.59622 135.574 2.44294 135.536 2.32798C135.497 2.21302 135.478 2.11722 135.478 2.04058C135.497 1.96393 135.545 1.88729 135.622 1.81065C135.718 1.73401 135.842 1.64779 135.996 1.55199C136.398 1.32206 136.867 1.1113 137.404 0.919696C137.959 0.728093 138.544 0.56523 139.157 0.431109C139.77 0.296986 140.402 0.191604 141.054 0.114962C141.724 0.0383207 142.386 0 143.037 0Z" fill="black"/>
<path d="M170.656 10.4041C170.656 12.0135 170.483 13.4601 170.138 14.7439C169.793 16.0276 169.247 17.1198 168.5 18.0203C167.772 18.9208 166.824 19.6106 165.655 20.0896C164.486 20.5686 163.087 20.8081 161.459 20.8081C159.907 20.8081 158.556 20.5782 157.406 20.1183C156.276 19.6393 155.347 18.9591 154.618 18.0778C153.89 17.1772 153.344 16.0851 152.98 14.8014C152.635 13.5176 152.463 12.071 152.463 10.4615C152.463 8.89039 152.655 7.46295 153.038 6.17921C153.44 4.89546 154.015 3.80333 154.762 2.90279C155.529 1.98309 156.477 1.28374 157.607 0.804734C158.738 0.306566 160.05 0.0574819 161.545 0.0574819C163.097 0.0574819 164.438 0.306566 165.569 0.804734C166.718 1.28374 167.667 1.97351 168.414 2.87405C169.18 3.77458 169.746 4.86672 170.11 6.15047C170.474 7.41505 170.656 8.83291 170.656 10.4041ZM164.936 10.4328C164.917 9.68555 164.85 8.97661 164.735 8.306C164.639 7.61623 164.467 7.02226 164.218 6.52409C163.969 6.02592 163.624 5.63314 163.183 5.34573C162.742 5.03917 162.187 4.88588 161.516 4.88588C160.961 4.88588 160.472 5.02959 160.05 5.31699C159.629 5.6044 159.284 5.99718 159.016 6.49535C158.747 6.97436 158.546 7.53959 158.412 8.19104C158.278 8.84249 158.211 9.52268 158.211 10.2316C158.211 11.113 158.268 11.9081 158.383 12.6171C158.498 13.326 158.69 13.9296 158.958 14.4277C159.227 14.9067 159.581 15.2804 160.022 15.5486C160.462 15.8169 161.008 15.951 161.66 15.951C162.292 15.951 162.819 15.8073 163.241 15.5199C163.662 15.2133 163.997 14.8109 164.247 14.3128C164.496 13.7954 164.668 13.2015 164.764 12.5309C164.879 11.8602 164.936 11.1609 164.936 10.4328Z" fill="black"/>
<path d="M185.847 9.5131C186.384 9.74303 186.834 10.04 187.198 10.4041C187.581 10.7489 187.888 11.1417 188.118 11.5824C188.367 12.0039 188.539 12.4542 188.635 12.9332C188.75 13.3931 188.808 13.8529 188.808 14.3128C188.808 15.2325 188.626 16.0755 188.262 16.8419C187.917 17.5892 187.428 18.2406 186.796 18.7963C186.164 19.3328 185.416 19.7543 184.554 20.0609C183.711 20.3483 182.791 20.492 181.795 20.492H174.322C173.537 20.492 173.029 20.3483 172.799 20.0609C172.569 19.7543 172.454 19.2657 172.454 18.5951V2.2705C172.454 1.63821 172.569 1.16878 172.799 0.862216C173.029 0.53649 173.537 0.373627 174.322 0.373627H181.795C182.657 0.373627 183.462 0.469428 184.209 0.661031C184.956 0.852636 185.608 1.1592 186.164 1.58073C186.719 2.00225 187.16 2.53874 187.486 3.19019C187.811 3.84165 187.974 4.62722 187.974 5.54692C187.974 6.29417 187.773 7.02226 187.371 7.73119C186.968 8.42096 186.461 8.95745 185.847 9.34066V9.5131ZM183.203 13.9391C183.203 13.3835 183.031 12.9332 182.686 12.5883C182.36 12.2243 181.881 12.0423 181.249 12.0423H177.858V15.8073H181.249C181.632 15.8073 181.948 15.7498 182.197 15.6348C182.446 15.5199 182.648 15.3666 182.801 15.175C182.954 14.9834 183.06 14.7822 183.117 14.5714C183.175 14.3607 183.203 14.1499 183.203 13.9391ZM177.858 7.78867H180.875C181.258 7.78867 181.613 7.69287 181.939 7.50127C182.264 7.30967 182.427 6.93604 182.427 6.38039C182.427 5.9397 182.293 5.6044 182.025 5.37447C181.776 5.14455 181.431 5.02959 180.99 5.02959H177.858V7.78867Z" fill="black"/>
<path d="M201.142 16.5545H195.48L194.531 19.8597C194.455 20.0704 194.359 20.2333 194.244 20.3483C194.148 20.4441 193.937 20.492 193.612 20.492H189.387C189.195 20.492 189.071 20.4441 189.013 20.3483C188.975 20.2333 188.975 20.0992 189.013 19.9459L194.675 2.15554C194.924 1.38912 195.231 0.900536 195.595 0.689773C195.959 0.459849 196.467 0.344887 197.118 0.344887H199.446C199.791 0.344887 200.088 0.364047 200.337 0.402367C200.605 0.421528 200.835 0.488589 201.027 0.603551C201.238 0.718513 201.42 0.900536 201.573 1.14962C201.745 1.37954 201.899 1.70527 202.033 2.1268L207.695 19.9459C207.733 20.0417 207.733 20.1567 207.695 20.2908C207.675 20.4249 207.551 20.492 207.321 20.492H202.981C202.751 20.492 202.56 20.4632 202.406 20.4057C202.253 20.3483 202.148 20.2141 202.09 20.0034L201.142 16.5545ZM196.687 12.3009H199.963L199.417 10.0592L198.498 5.92054H198.268L197.291 10.1454L196.687 12.3009Z" fill="black"/>
<path d="M209.615 14.284C209.788 13.5368 210.046 12.9141 210.391 12.4159C210.736 11.9177 211.349 11.5537 212.231 11.3238V11.2663C211.637 11.0938 211.139 10.8447 210.736 10.519C210.334 10.1741 210.008 9.79093 209.759 9.3694C209.529 8.92871 209.357 8.45928 209.242 7.96112C209.146 7.46295 209.098 6.9552 209.098 6.43787C209.098 5.51818 209.242 4.69428 209.529 3.96619C209.816 3.21894 210.248 2.57706 210.822 2.04058C211.397 1.50409 212.106 1.09214 212.949 0.804734C213.811 0.517329 214.808 0.373627 215.938 0.373627H223.267C224.053 0.373627 224.56 0.54607 224.79 0.890956C225.02 1.21668 225.135 1.67653 225.135 2.2705V19.9172C225.135 20.3004 224.915 20.492 224.474 20.492H220.393C220.067 20.492 219.866 20.4537 219.789 20.377C219.732 20.3004 219.703 20.1471 219.703 19.9172V12.6171H217.835C217.03 12.6171 216.446 12.8087 216.082 13.1919C215.737 13.5559 215.459 14.1499 215.248 14.9738L214.099 19.7735C214.041 19.9651 213.955 20.1088 213.84 20.2046C213.744 20.3004 213.62 20.377 213.466 20.4345C213.332 20.4728 213.179 20.492 213.007 20.492C212.853 20.492 212.7 20.492 212.547 20.492H208.552C208.322 20.492 208.197 20.4345 208.178 20.3195C208.178 20.2046 208.207 20.013 208.264 19.7447L209.615 14.284ZM214.702 6.69653C214.702 7.25218 214.875 7.67371 215.22 7.96112C215.565 8.22936 215.967 8.36348 216.427 8.36348H219.703V5.05833H216.427C215.794 5.05833 215.344 5.23077 215.076 5.57565C214.827 5.92054 214.702 6.29417 214.702 6.69653Z" fill="black"/>
<path d="M237.881 9.65681C237.153 9.33108 236.597 8.85207 236.214 8.21978C235.85 7.56833 235.572 6.84024 235.381 6.0355L234.001 0.890956C233.963 0.795154 233.953 0.680193 233.972 0.546071C234.011 0.392788 234.154 0.316146 234.403 0.316146H238.714C238.81 0.316146 238.916 0.335307 239.031 0.373627C239.165 0.411948 239.251 0.52691 239.289 0.718513L240.611 5.57565C240.765 6.13131 240.947 6.57199 241.157 6.89772C241.368 7.20428 241.598 7.44379 241.847 7.61623C242.115 7.76951 242.393 7.86531 242.681 7.90364C242.968 7.94196 243.255 7.96112 243.543 7.96112H244.462V0.833475C244.423 0.622711 244.442 0.498169 244.519 0.459849C244.596 0.402367 244.73 0.373627 244.921 0.373627H249.29C249.462 0.373627 249.587 0.402367 249.664 0.459849C249.759 0.498169 249.807 0.622711 249.807 0.833475V7.96112H250.697C250.985 7.96112 251.272 7.94196 251.56 7.90364C251.847 7.86531 252.115 7.76951 252.364 7.61623C252.633 7.44379 252.872 7.20428 253.083 6.89772C253.294 6.57199 253.476 6.13131 253.629 5.57565L254.951 0.718513C254.989 0.52691 255.066 0.411948 255.181 0.373627C255.315 0.335307 255.43 0.316146 255.526 0.316146H259.866C260.115 0.316146 260.249 0.392788 260.268 0.546071C260.306 0.680193 260.306 0.795154 260.268 0.890956L258.888 6.0355C258.697 6.84024 258.381 7.55875 257.94 8.19104C257.518 8.80417 257.001 9.29276 256.388 9.65681V9.80051C256.886 9.97295 257.298 10.1741 257.624 10.4041C257.95 10.6148 258.218 10.8639 258.429 11.1513C258.639 11.4196 258.802 11.7357 258.917 12.0997C259.051 12.4446 259.176 12.8278 259.291 13.2494L261.073 19.9172C261.111 20.013 261.111 20.1375 261.073 20.2908C261.054 20.4249 260.919 20.492 260.67 20.492H256.158C256.062 20.492 255.957 20.4728 255.842 20.4345C255.727 20.3962 255.641 20.2812 255.583 20.0896L253.916 14.0541C253.782 13.5943 253.629 13.2206 253.456 12.9332C253.284 12.6267 253.073 12.3967 252.824 12.2435C252.575 12.071 252.269 11.956 251.905 11.8986C251.56 11.8411 251.138 11.8123 250.64 11.8123H249.807V20.0321C249.807 20.2429 249.759 20.377 249.664 20.4345C249.587 20.4728 249.462 20.492 249.29 20.492H244.979C244.787 20.492 244.653 20.4728 244.577 20.4345C244.5 20.377 244.462 20.2429 244.462 20.0321V11.8123H243.629C243.131 11.8123 242.7 11.8411 242.336 11.8986C241.972 11.956 241.656 12.071 241.387 12.2435C241.138 12.3967 240.927 12.6267 240.755 12.9332C240.583 13.2206 240.429 13.5943 240.295 14.0541L238.628 20.0896C238.571 20.2812 238.485 20.3962 238.37 20.4345C238.255 20.4728 238.149 20.492 238.053 20.492H233.599C233.35 20.492 233.206 20.4249 233.168 20.2908C233.148 20.1375 233.158 20.013 233.196 19.9172L234.978 13.2494C235.074 12.8853 235.189 12.5309 235.323 12.186C235.457 11.8411 235.63 11.5249 235.84 11.2375C236.051 10.931 236.319 10.6627 236.645 10.4328C236.971 10.1837 237.383 9.97295 237.881 9.80051V9.65681Z" fill="black"/>
<path d="M266.244 20.492C264.577 20.492 262.942 20.492 261.445 20.492L261.33 16.9917C261.33 16.8384 261.33 16.6851 261.33 16.5318C261.33 16.3785 261.368 16.2348 261.445 16.1007C261.521 15.9474 261.636 15.8229 261.79 15.7271C261.962 15.6121 262.192 15.5355 262.479 15.4972L263.514 15.3535C263.955 14.9894 264.309 14.5679 264.577 14.0889C264.846 13.5907 265.057 13.1021 265.21 12.6231C265.363 12.1441 265.468 11.7034 265.526 11.301C265.583 10.8795 265.631 10.5634 265.67 10.3526L266.676 2.5579C266.714 2.25134 266.771 1.96393 266.848 1.69569C266.925 1.42744 267.04 1.19752 267.193 1.00592C267.365 0.795155 267.595 0.641872 267.883 0.546071C268.189 0.431108 268.572 0.373627 269.032 0.373627H279.206C279.992 0.373627 280.5 0.53649 280.73 0.862216C280.96 1.16878 281.075 1.63821 281.075 2.2705V15.3247L282.31 15.4397C282.789 15.478 283.106 15.6121 283.259 15.842C283.412 16.0528 283.479 16.3785 283.46 16.8192V20.492C282.707 20.492 280.115 20.492 278.632 20.492H266.244ZM270.9 9.72032C270.766 10.9849 270.603 12.077 270.412 12.9967C270.239 13.9164 269.981 14.7116 269.636 15.3822H275.643V5.02959H271.475L270.9 9.72032Z" fill="black"/>
</svg>
