<svg width="170" height="32" viewBox="0 0 170 32" fill="none" xmlns="http://www.w3.org/2000/svg">
<g clip-path="url(#clip0)">
<path d="M90.7598 26.6331V5.36719H103.963V10.3065H96.2652V26.6331H90.7598Z" fill="#E30613"/>
<path d="M120.574 26.6331V18.3043H112.396V26.6331H106.89V5.36719H112.396V13.3035H120.574V5.36719H126.08V26.6331H120.574Z" fill="#E30613"/>
<path d="M158.029 26.6331V10.3065H151.599V5.36719H170V10.3065H163.538V26.6331H158.029Z" fill="#E30613"/>
<path d="M143.498 26.6302V14.5133L134.734 26.6302H130.131V5.37006H135.636V17.3608L144.253 5.37006H149.007V26.6302H143.498Z" fill="#E30613"/>
<path d="M59.1217 26.6331V13.9949L53.6248 20.6715L48.128 13.9949V26.6331H42.6226V5.36719H48.056L53.6248 12.6795L59.1937 5.36719H64.627V26.6331H59.1217Z" fill="#E30613"/>
<path d="M75.0791 19.1537H80.1956L77.6374 12.4859L75.0791 19.1537ZM83.0651 26.6301L81.9128 23.6505H73.3535L72.2011 26.6301H66.667L75.134 5.367H80.2246L88.6945 26.6301H83.0651Z" fill="#E30613"/>
<path d="M-0.00585938 9.68818C-0.000528728 7.11988 1.00534 4.65836 2.7915 2.84256C4.57766 1.02676 6.99858 0.00464421 9.52421 0H31.5258V4.92465H9.52998C8.28896 4.93004 7.10026 5.43355 6.22245 6.32564C5.34466 7.21772 4.84879 8.42621 4.84273 9.68818L4.81391 17.9555C4.71349 19.0147 4.27092 20.0103 3.5553 20.7869C2.83971 21.5633 1.89137 22.0768 0.858416 22.2474L-0.00585938 22.3821V9.68818Z" fill="#E30613"/>
<path d="M-0.00488281 32V27.0752H21.9967C23.238 27.0691 24.4267 26.5649 25.3044 25.6724C26.182 24.7798 26.6779 23.571 26.684 22.3089V14.4634C26.69 13.3251 27.0938 12.2262 27.8231 11.3627C28.5524 10.4992 29.5598 9.92751 30.6653 9.74964L31.5296 9.6178V22.3089C31.5242 24.8775 30.5185 27.3393 28.7324 29.1555C26.9464 30.9718 24.5255 31.9944 21.9995 32H-0.00488281Z" fill="#E30613"/>
<path d="M18.6335 22.3997V16.0337L15.7641 19.517L12.8976 16.0337V22.3997H9.09766V9.87274H12.6959L15.7641 13.9009L18.8323 9.87274H22.4306V22.3997H18.6335Z" fill="#E30613"/>
</g>
<defs>
<clipPath id="clip0">
<rect width="170" height="32" fill="white"/>
</clipPath>
</defs>
</svg>
