<svg width="100" height="100" viewBox="0 0 100 100" fill="none" xmlns="http://www.w3.org/2000/svg">
<g clip-path="url(#clip0)">
<path fill-rule="evenodd" clip-rule="evenodd" d="M88.2799 5.85938L86.7174 51.1717H97.6551L96.0926 5.85938C96.0186 3.71211 94.3348 1.95312 92.1863 1.95312C90.0377 1.95312 88.3539 3.71211 88.2799 5.85938Z" fill="white"/>
<path fill-rule="evenodd" clip-rule="evenodd" d="M86.7175 51.1719L86.3943 60.5469L86.3269 62.5C86.2898 63.5736 87.2058 64.4531 88.28 64.4531H96.0927C97.1667 64.4531 98.0827 63.5734 98.0458 62.5L97.6552 51.1717H86.7175V51.1719Z" fill="white"/>
<path fill-rule="evenodd" clip-rule="evenodd" d="M76.1717 60.5469V51.1719C76.1717 46.875 72.6561 43.3594 68.3592 43.3594H9.76562C5.46875 43.3594 1.95312 46.875 1.95312 51.1719V70.7031H76.1717V60.5469ZM39.0625 51.1721C41.4895 51.1721 43.457 53.1395 43.457 55.5666C43.457 57.9938 41.4895 59.9611 39.0625 59.9611C36.6354 59.9611 34.668 57.9938 34.668 55.5666C34.668 53.1397 36.6354 51.1721 39.0625 51.1721Z" fill="white"/>
<path fill-rule="evenodd" clip-rule="evenodd" d="M1.95312 70.7031V90.2344C1.95312 94.5312 5.46875 98.0469 9.76562 98.0469H68.3594C72.6562 98.0469 76.1719 94.5312 76.1719 90.2344V70.7031H1.95312ZM52.7348 81.4451H62.0117C64.4287 81.4451 66.4062 83.4227 66.4062 85.8396C66.4062 88.2566 64.4289 90.2342 62.0117 90.2342H52.7348H39.0625H25.3902H16.1131C13.6961 90.2342 11.7186 88.2566 11.7186 85.8395C11.7186 83.4225 13.6961 81.4451 16.1131 81.4451H25.39H39.0625H52.7348Z" fill="white"/>
<path d="M39.0625 59.9611C41.4895 59.9611 43.457 57.9936 43.457 55.5666C43.457 53.1396 41.4895 51.1721 39.0625 51.1721C36.6355 51.1721 34.668 53.1396 34.668 55.5666C34.668 57.9936 36.6355 59.9611 39.0625 59.9611Z" fill="#FFA800"/>
<path fill-rule="evenodd" clip-rule="evenodd" d="M25.39 81.4451H16.113C13.696 81.4451 11.7185 83.4227 11.7185 85.8394C11.7185 88.2564 13.696 90.2342 16.113 90.2342H25.39V81.4451Z" fill="#FFA800"/>
<path fill-rule="evenodd" clip-rule="evenodd" d="M25.3901 81.4451H39.0624V90.2342H25.3901V81.4451Z" fill="#FFA800"/>
<path fill-rule="evenodd" clip-rule="evenodd" d="M39.0625 81.4451H52.7348V90.2342H39.0625V81.4451Z" fill="#FFA800"/>
<path fill-rule="evenodd" clip-rule="evenodd" d="M52.7349 81.4451V90.2342H62.0118C64.4288 90.2342 66.4063 88.2566 66.4063 85.8396C66.4063 83.4227 64.429 81.4451 62.0118 81.4451H52.7349Z" fill="#FFA800"/>
<path d="M98.0445 5.79219C97.9326 2.54434 95.3592 0 92.1861 0C89.0133 0 86.44 2.54434 86.3281 5.79199L84.8305 49.2188H77.9283C77.0209 44.7666 73.0754 41.4062 68.3592 41.4062H41.0164C41.0164 40.3275 40.1412 39.4531 39.0625 39.4531C37.9838 39.4531 37.1094 40.3275 37.1094 41.4062H9.76562C4.38086 41.4062 0 45.7871 0 51.1719V90.2344C0 95.6191 4.38086 100 9.76562 100H68.3594C73.7441 100 78.125 95.6191 78.125 90.2344V62.5H84.376C84.359 63.5078 84.7369 64.4656 85.4494 65.2031C86.1881 65.9678 87.2199 66.4062 88.2801 66.4062H96.0928C97.1529 66.4062 98.1848 65.9678 98.9234 65.2031C99.6518 64.4492 100.033 63.4654 99.9979 62.4328L98.0445 5.79219ZM90.232 5.92656C90.2711 4.79375 91.1295 3.90625 92.1861 3.90625C93.243 3.90625 94.1014 4.79375 94.1404 5.92676L95.6334 49.2188H88.7391L90.232 5.92656ZM68.3594 96.0938H9.76562C6.53477 96.0938 3.90625 93.4652 3.90625 90.2344V72.6562H30.2729C31.3516 72.6562 32.226 71.7818 32.226 70.7031C32.226 69.6244 31.3516 68.75 30.2729 68.75H3.90625V51.1719C3.90625 47.941 6.53477 45.3125 9.76562 45.3125H68.3594C71.5902 45.3125 74.2188 47.941 74.2188 51.1719V68.75H47.851C46.7723 68.75 45.8979 69.6244 45.8979 70.7031C45.8979 71.7818 46.7723 72.6562 47.851 72.6562H74.2188V90.2344C74.2188 93.4652 71.5902 96.0938 68.3594 96.0938ZM78.125 53.125H84.6959L84.5072 58.5938H78.125V53.125ZM88.2811 62.5L88.6043 53.125H95.7682L96.0914 62.5H88.2811Z" fill="black"/>
<path d="M62.0117 79.492H16.1133C12.6133 79.492 9.76562 82.3396 9.76562 85.8396C9.76562 89.3396 12.6133 92.1873 16.1133 92.1873H62.0117C65.5117 92.1873 68.3594 89.3396 68.3594 85.8394C68.3594 82.3394 65.5117 79.492 62.0117 79.492ZM41.0156 83.3982H50.7816V88.2811H41.0156V83.3982ZM37.1094 88.2811H27.3434V83.3982H37.1094V88.2811ZM13.6719 85.8394C13.6719 84.4934 14.767 83.3982 16.1133 83.3982H23.4371V88.2811H16.1133C14.767 88.2811 13.6719 87.1857 13.6719 85.8394ZM62.0117 88.2811H54.6879V83.3982H62.0117C63.3578 83.3982 64.4531 84.4934 64.4531 85.8396C64.4531 87.1859 63.3578 88.2811 62.0117 88.2811Z" fill="black"/>
<path d="M39.0625 61.9143C42.5625 61.9143 45.4102 59.0666 45.4102 55.5666C45.4102 52.0666 42.5625 49.2189 39.0625 49.2189C35.5625 49.2189 32.7148 52.0666 32.7148 55.5666C32.7148 59.0666 35.5625 61.9143 39.0625 61.9143ZM39.0625 53.1252C40.4088 53.1252 41.5039 54.2203 41.5039 55.5666C41.5039 56.9129 40.4088 58.008 39.0625 58.008C37.7162 58.008 36.6211 56.9129 36.6211 55.5666C36.6211 54.2203 37.7162 53.1252 39.0625 53.1252Z" fill="black"/>
<path d="M29.3957 31.7387C31.9779 29.1564 35.4113 27.7344 39.0631 27.7344C42.7148 27.7344 46.1482 29.1564 48.7304 31.7387C49.1119 32.1201 49.6117 32.3107 50.1115 32.3107C50.6113 32.3107 51.1113 32.1201 51.4925 31.7387C52.2552 30.976 52.2552 29.7393 51.4925 28.9764C48.1724 25.6562 43.7582 23.8279 39.0629 23.8279C34.3675 23.8279 29.9533 25.6562 26.6332 28.9764C25.8705 29.7391 25.8705 30.9758 26.6332 31.7387C27.3959 32.5016 28.633 32.5014 29.3957 31.7387Z" fill="black"/>
<path d="M32.1578 34.5008C31.3951 35.2635 31.3951 36.5002 32.1578 37.2631C32.5393 37.6445 33.0391 37.8352 33.5389 37.8352C34.0387 37.8352 34.5387 37.6445 34.9199 37.2631C36.0266 36.1564 37.4979 35.5469 39.0631 35.5469C40.6283 35.5469 42.0996 36.1564 43.2065 37.2631C43.9692 38.0258 45.2059 38.0258 45.9686 37.2631C46.7313 36.5004 46.7313 35.2637 45.9686 34.501C44.124 32.6566 41.6717 31.6408 39.0633 31.6408C36.4549 31.6408 34.0024 32.6562 32.1578 34.5008Z" fill="black"/>
<path d="M39.0612 68.75C37.9825 68.75 37.1089 69.6244 37.1089 70.7031C37.1089 71.7818 37.9839 72.6562 39.0626 72.6562C40.1413 72.6562 41.0157 71.7818 41.0157 70.7031C41.0157 69.6244 40.1413 68.75 39.0626 68.75H39.0612Z" fill="black"/>
</g>
<defs>
<clipPath id="clip0">
<rect width="100" height="100" fill="white"/>
</clipPath>
</defs>
</svg>
