<svg width="20" height="20" viewBox="0 0 20 20" fill="none" xmlns="http://www.w3.org/2000/svg">
<path d="M8.83365 17.0247C10.5201 17.0247 12.078 16.5108 13.379 15.6435L16.722 18.9865C17.0916 19.3559 17.7019 19.3559 18.0872 18.9865L19.0027 18.0711C19.3721 17.7016 19.3721 17.0913 19.0027 16.7059L15.6436 13.3788C16.5107 12.0779 17.0248 10.5199 17.0248 8.83353C17.0248 4.32034 13.3468 0.642334 8.83365 0.642334C4.32046 0.642334 0.642456 4.32034 0.642456 8.83353C0.642456 13.3466 4.3044 17.0247 8.83365 17.0247ZM8.83365 3.85457C11.5801 3.85457 13.8126 6.08707 13.8126 8.83353C13.8126 11.58 11.5801 13.8125 8.83365 13.8125C6.08719 13.8125 3.85469 11.58 3.85469 8.83353C3.85469 6.08707 6.08719 3.85457 8.83365 3.85457Z" fill="black"/>
</svg>
