<svg width="16" height="16" viewBox="0 0 16 16" fill="none" xmlns="http://www.w3.org/2000/svg">
<path d="M8.91217 1.40625L9.38095 0H6.61914L7.08792 1.40625H8.91217Z" fill="black"/>
<path d="M11.4375 0H10.3691L9.69469 2.02322C9.63088 2.21466 9.45178 2.34375 9.25 2.34375H6.75C6.54822 2.34375 6.36913 2.21466 6.30531 2.02322L5.63091 0H4.5625C3.78709 0 3.15625 0.630844 3.15625 1.40625V14.5938C3.15625 15.3692 3.78709 16 4.5625 16H11.4375C12.2129 16 12.8438 15.3692 12.8438 14.5938V1.40625C12.8438 0.630844 12.2129 0 11.4375 0ZM8.9375 14.5938H7.0625C6.80363 14.5938 6.59375 14.3839 6.59375 14.125C6.59375 13.8661 6.80363 13.6562 7.0625 13.6562H8.9375C9.19637 13.6562 9.40625 13.8661 9.40625 14.125C9.40625 14.3839 9.19637 14.5938 8.9375 14.5938Z" fill="black"/>
</svg>
