<svg width="22" height="22" viewBox="0 0 22 22" fill="none" xmlns="http://www.w3.org/2000/svg">
<path d="M3.28261 10.7129L6.96933 12.0958L8.39632 16.7078C8.48763 17.0032 8.84704 17.1124 9.0856 16.9164L11.1406 15.2327C11.3561 15.0563 11.6629 15.0475 11.888 15.2118L15.5946 17.9162C15.8498 18.1026 16.2113 17.9621 16.2753 17.6522L18.9906 4.52631C19.0604 4.18778 18.7295 3.90537 18.4087 4.03004L3.27829 9.89594C2.9049 10.0407 2.90815 10.5719 3.28261 10.7129ZM8.16635 11.3597L15.3716 6.89988C15.5011 6.81996 15.6343 6.99593 15.5231 7.09959L9.5767 12.6546C9.36768 12.8501 9.23286 13.1118 9.19467 13.3958L8.99211 14.9044C8.96528 15.1058 8.68373 15.1258 8.62843 14.9309L7.84939 12.1799C7.76016 11.8661 7.89019 11.531 8.16635 11.3597Z" fill="black"/>
</svg>
