<svg width="200" height="200" viewBox="0 0 200 200" fill="none" xmlns="http://www.w3.org/2000/svg">
<path fill-rule="evenodd" clip-rule="evenodd" d="M44.4745 80.7812H162.643V70.1025C162.643 66.1884 159.439 62.9843 155.524 62.9843H69.3889V52.3056C69.3889 48.3904 66.1855 45.187 62.2703 45.187H26.6772C22.762 45.187 19.5586 48.3904 19.5586 52.3056V178.661C19.5586 183.575 23.5425 187.56 28.4572 187.56C33.3716 187.56 37.3558 183.576 37.3558 178.661V87.9001C37.3558 83.9845 40.5592 80.7812 44.4745 80.7812Z" fill="#FFA800"/>
<path fill-rule="evenodd" clip-rule="evenodd" d="M137.373 44.4753C137.373 46.4325 138.975 48.0346 140.932 48.0346H172.967V169.762C172.967 171.72 171.364 173.321 169.408 173.321H48.3913C46.4337 173.321 44.832 171.72 44.832 169.762V15.9997C44.832 14.0432 46.4337 12.4404 48.3913 12.4404H137.373V44.4753Z" fill="white"/>
<path fill-rule="evenodd" clip-rule="evenodd" d="M162.643 80.7812H44.4743C40.559 80.7812 37.3557 83.9846 37.3557 87.8999V178.661C37.3557 183.575 33.3717 187.559 28.457 187.559H173.321C177.235 187.559 180.44 184.355 180.44 180.441V87.8999C180.44 83.9857 177.236 80.7812 173.321 80.7812H162.643Z" fill="#FFA800"/>
<path d="M176.525 77.7134V48.0344C176.525 47.0905 176.15 46.185 175.483 45.5177L139.889 9.92387C139.221 9.2565 138.316 8.88135 137.372 8.88135H48.3904C44.4652 8.88135 41.2718 12.0748 41.2718 16V41.6277H26.6779C20.7901 41.6277 16 46.4178 16 52.3056V178.661C16 185.53 21.5885 191.119 28.4579 191.119H173.322C179.21 191.119 184 186.329 184 180.441V87.8998C184 83.1274 180.853 79.0773 176.525 77.7134ZM140.931 21.0339L164.373 44.4755H140.931V21.0339ZM133.813 16V44.4755C133.813 48.4007 137.006 51.5941 140.931 51.5941H169.407V77.2218H48.3904V16H133.813ZM33.7972 178.661C33.7972 181.605 31.4022 184 28.4579 184C25.5137 184 23.1186 181.605 23.1186 178.661V52.3053C23.1186 50.3427 24.7153 48.7459 26.6779 48.7459H41.2718V77.7134C36.9444 79.0773 33.7972 83.1274 33.7972 87.8994V178.661ZM176.881 180.441C176.881 182.403 175.285 184 173.322 184H39.7128C40.4841 182.381 40.9159 180.571 40.9159 178.661C40.9159 139.924 40.9159 98.2746 40.9159 87.8998C40.9159 85.9371 42.5126 84.3404 44.4752 84.3404H173.322C175.285 84.3404 176.881 85.9371 176.881 87.8998V180.441Z" fill="black"/>
<path d="M66.1882 67.6118H151.612C153.577 67.6118 155.171 66.0183 155.171 64.0525C155.171 62.0867 153.577 60.4932 151.612 60.4932H66.1882C64.2224 60.4932 62.6289 62.0867 62.6289 64.0525C62.6289 66.0183 64.2224 67.6118 66.1882 67.6118Z" fill="black"/>
</svg>
