<svg width="22" height="22" viewBox="0 0 22 22" fill="none" xmlns="http://www.w3.org/2000/svg">
<path d="M18.9152 14.2442C18.8958 14.2025 18.8778 14.1679 18.861 14.1401C18.5834 13.6401 18.0529 13.0265 17.2698 12.2989L17.2533 12.2823L17.245 12.2741L17.2366 12.2657H17.2282C16.8728 11.9269 16.6478 11.6991 16.5536 11.5825C16.3811 11.3603 16.3425 11.1355 16.4367 10.9076C16.5033 10.7355 16.7534 10.3719 17.1865 9.81645C17.4143 9.52207 17.5947 9.28614 17.7279 9.10838C18.6888 7.83097 19.1053 7.01468 18.9775 6.65921L18.9279 6.57614C18.8946 6.52613 18.8085 6.48038 18.6698 6.43865C18.5308 6.39701 18.3531 6.39013 18.1365 6.41788L15.7374 6.43445C15.6985 6.42068 15.643 6.42196 15.5707 6.43865C15.4985 6.45534 15.4624 6.46372 15.4624 6.46372L15.4206 6.48458L15.3875 6.50964C15.3597 6.52621 15.3291 6.55536 15.2958 6.59703C15.2626 6.63855 15.2349 6.68728 15.2127 6.7428C14.9515 7.4148 14.6545 8.03959 14.3212 8.61714C14.1157 8.96153 13.927 9.25999 13.7546 9.5127C13.5825 9.76533 13.4381 9.95145 13.3216 10.0708C13.2048 10.1902 13.0995 10.2859 13.0049 10.3581C12.9105 10.4304 12.8384 10.461 12.7884 10.4498C12.7384 10.4386 12.6913 10.4276 12.6467 10.4165C12.569 10.3665 12.5065 10.2984 12.4593 10.2124C12.412 10.1263 12.3802 10.018 12.3635 9.88744C12.3469 9.75684 12.3371 9.6445 12.3343 9.55005C12.3317 9.45572 12.3329 9.32229 12.3385 9.15014C12.3443 8.9779 12.3469 8.86136 12.3469 8.80026C12.3469 8.58919 12.351 8.36011 12.3593 8.11298C12.3677 7.86584 12.3745 7.67002 12.3802 7.52577C12.3858 7.38136 12.3885 7.22859 12.3885 7.06753C12.3885 6.90646 12.3787 6.78015 12.3593 6.68847C12.3402 6.59691 12.3108 6.50804 12.2721 6.42187C12.2331 6.3358 12.1761 6.26921 12.1013 6.22195C12.0263 6.17474 11.9331 6.13727 11.8222 6.10944C11.5278 6.04282 11.153 6.00679 10.6975 6.00119C9.66456 5.9901 9.00084 6.0568 8.7065 6.2012C8.58987 6.26221 8.48433 6.34557 8.38997 6.45102C8.28998 6.57325 8.27603 6.63995 8.34822 6.65092C8.68149 6.70085 8.91742 6.82027 9.05628 7.00908L9.10632 7.10913C9.14525 7.18132 9.18411 7.30912 9.22301 7.49236C9.26184 7.6756 9.28691 7.8783 9.29794 8.10034C9.32565 8.50583 9.32565 8.85293 9.29794 9.14168C9.27013 9.43054 9.24387 9.65541 9.2188 9.81648C9.19374 9.97754 9.15628 10.1081 9.10632 10.208C9.05628 10.308 9.02299 10.3691 9.0063 10.3912C8.98964 10.4134 8.97575 10.4274 8.96472 10.4329C8.89254 10.4605 8.81746 10.4746 8.73976 10.4746C8.66194 10.4746 8.56758 10.4357 8.45653 10.3579C8.34551 10.2801 8.23028 10.1733 8.11086 10.0372C7.99143 9.90106 7.85674 9.71085 7.70674 9.46652C7.55685 9.22218 7.40133 8.9334 7.24027 8.60019L7.10701 8.35854C7.02371 8.20308 6.90992 7.97671 6.76551 7.67965C6.62102 7.38247 6.49331 7.09501 6.38229 6.81732C6.33791 6.7007 6.27124 6.61191 6.18239 6.55081L6.1407 6.52575C6.11298 6.50357 6.06848 6.48003 6.00744 6.45493C5.94631 6.42987 5.88253 6.4119 5.81583 6.40084L3.53326 6.41741C3.30001 6.41741 3.14175 6.47025 3.05841 6.57579L3.02506 6.62571C3.0084 6.65352 3 6.69793 3 6.75906C3 6.82015 3.01666 6.89514 3.05001 6.98393C3.38322 7.76707 3.74559 8.52234 4.1371 9.24987C4.52861 9.97739 4.86882 10.5634 5.15754 11.0075C5.44632 11.4518 5.74066 11.8712 6.04059 12.2654C6.34051 12.6597 6.53903 12.9124 6.63617 13.0235C6.73342 13.1347 6.80981 13.2178 6.86533 13.2734L7.07363 13.4733C7.20692 13.6066 7.40265 13.7663 7.6609 13.9523C7.91921 14.1384 8.20519 14.3216 8.51897 14.5023C8.83281 14.6826 9.19791 14.8298 9.61449 14.9436C10.031 15.0576 10.4364 15.1033 10.8307 15.0812H11.7888C11.9831 15.0644 12.1303 15.0033 12.2303 14.8979L12.2635 14.8561C12.2858 14.823 12.3066 14.7715 12.3259 14.7022C12.3454 14.6328 12.3551 14.5563 12.3551 14.4731C12.3494 14.2344 12.3676 14.0192 12.4091 13.8276C12.4506 13.6361 12.4979 13.4917 12.5509 13.3944C12.6038 13.2972 12.6635 13.2153 12.7299 13.1488C12.7965 13.0822 12.8439 13.0418 12.8718 13.0279C12.8994 13.014 12.9215 13.0045 12.9382 12.9988C13.0715 12.9544 13.2283 12.9974 13.409 13.128C13.5895 13.2585 13.7589 13.4197 13.9172 13.6112C14.0755 13.8029 14.2657 14.018 14.4878 14.2567C14.7101 14.4956 14.9044 14.6731 15.0709 14.7899L15.2375 14.8899C15.3487 14.9566 15.4931 15.0177 15.6709 15.0732C15.8483 15.1287 16.0037 15.1426 16.1372 15.1149L18.2698 15.0816C18.4807 15.0816 18.6448 15.0467 18.7613 14.9774C18.8779 14.908 18.9472 14.8315 18.9696 14.7483C18.9918 14.665 18.993 14.5705 18.9738 14.4649C18.954 14.3596 18.9346 14.2859 18.9152 14.2442Z" fill="black"/>
</svg>
