<svg width="100" height="100" viewBox="0 0 100 100" fill="none" xmlns="http://www.w3.org/2000/svg">
<path fill-rule="evenodd" clip-rule="evenodd" d="M90.2345 1.95312H51.1722C46.8753 1.95312 43.3597 5.46874 43.3597 9.76559V15.3925L36.9183 19.1115C35.6049 19.8722 35.1568 21.5538 35.9176 22.8673C36.199 23.353 36.6064 23.7204 37.0746 23.9521L43.3597 27.5808V43.3596V48.8279C43.3597 53.1248 46.8753 56.6404 51.1722 56.6404H56.6405H90.2343C94.5312 56.6404 98.0468 53.1248 98.0468 48.8279V9.76559C98.047 5.46874 94.5314 1.95312 90.2345 1.95312Z" fill="#FFA800"/>
<path d="M90.2342 0H51.1719C45.7871 0 41.4063 4.38084 41.4063 9.76559V14.265L35.9393 17.4214C33.6962 18.7206 32.9282 21.6028 34.2272 23.8462C34.6807 24.6294 35.3428 25.2589 36.145 25.6708L41.4065 28.7085V48.8279C41.4065 54.2127 45.7873 58.5935 51.1721 58.5935H54.6873V72.419C54.6873 73.1169 55.0595 73.7616 55.6638 74.1105L61.949 77.7392C61.9853 77.76 62.022 77.7798 62.0595 77.7983C62.2005 77.8681 62.3126 77.9733 62.3925 78.1114C62.6123 78.4909 62.4824 78.9784 62.1052 79.197L55.6638 82.9159C55.0595 83.2647 54.6873 83.9094 54.6873 84.6073V90.2342C54.6873 93.4651 52.0588 96.0936 48.8279 96.0936H9.76559C6.53474 96.0936 3.90623 93.4651 3.90623 90.2342V51.1719C3.90623 47.941 6.53474 45.3125 9.76559 45.3125H41.4063C42.4851 45.3125 43.3595 44.4381 43.3595 43.3594C43.3595 42.2807 42.4851 41.4063 41.4063 41.4063H9.76559C4.38084 41.4063 0 45.7871 0 51.1719V90.2342C0 95.619 4.38084 99.9998 9.76559 99.9998H48.8279C54.2127 99.9998 58.5935 95.619 58.5935 90.2342V85.7348L64.0607 82.5784C66.304 81.279 67.072 78.3968 65.7728 76.1538C65.3193 75.3706 64.6572 74.7409 63.8546 74.3288L58.5935 71.2915V58.5935H90.2342C95.619 58.5935 99.9998 54.2127 99.9998 48.8279V9.76559C100 4.38084 95.6192 0 90.2342 0ZM96.0938 48.8279C96.0938 52.0588 93.4653 54.6873 90.2344 54.6873H51.1721C47.9412 54.6873 45.3127 52.0588 45.3127 48.8279V27.5808C45.3127 26.8829 44.9404 26.2382 44.3362 25.8894L38.051 22.2607C38.0147 22.2398 37.9778 22.22 37.9403 22.2013C37.7993 22.1316 37.6875 22.0263 37.6077 21.8886C37.3879 21.5089 37.5178 21.0214 37.8948 20.8028L44.3362 17.0839C44.9404 16.7351 45.3127 16.0904 45.3127 15.3925V9.76559C45.3127 6.53474 47.9412 3.90623 51.1721 3.90623H90.2344C93.4653 3.90623 96.0938 6.53474 96.0938 9.76559V48.8279Z" fill="black"/>
<path d="M21.4843 63.8672V83.3984C21.4843 84.4771 22.3587 85.3516 23.4374 85.3516C24.5161 85.3516 25.3906 84.4771 25.3906 83.3984V75.5857H33.2031V83.3984C33.2031 84.4771 34.0775 85.3516 35.1562 85.3516C36.2349 85.3516 37.1093 84.4771 37.1093 83.3984V63.8672C37.1093 59.5594 33.6046 56.0547 29.2968 56.0547C24.989 56.0547 21.4843 59.5594 21.4843 63.8672ZM25.3906 63.8672C25.3906 61.7133 27.1429 59.9609 29.2968 59.9609C31.4507 59.9609 33.2031 61.7133 33.2031 63.8672V71.6793H25.3908V63.8672H25.3906Z" fill="black"/>
<path d="M79.8013 26.3804H81.7269C82.8056 26.3804 83.68 25.506 83.68 24.4273C83.68 23.3486 82.8056 22.4742 81.7269 22.4742H72.9378V18.5544C72.9378 17.4757 72.0634 16.6013 70.9847 16.6013C69.906 16.6013 69.0316 17.4757 69.0316 18.5544V22.4742H60.2425C59.1638 22.4742 58.2894 23.3486 58.2894 24.4273C58.2894 25.506 59.1638 26.3804 60.2425 26.3804H62.1681C62.6355 30.2445 64.4798 33.8226 67.4726 36.6355C65.4011 37.5605 63.0712 38.0855 60.6144 38.0855C59.5357 38.0855 58.6612 38.9599 58.6612 40.0386C58.6612 41.1173 59.5357 41.9917 60.6144 41.9917C64.339 41.9917 67.9118 41.0312 70.9847 39.2458C74.0573 41.031 77.6304 41.9917 81.355 41.9917C82.4337 41.9917 83.3081 41.1173 83.3081 40.0386C83.3081 38.9599 82.4337 38.0855 81.355 38.0855C78.8983 38.0855 76.5685 37.5605 74.4968 36.6355C77.4894 33.8226 79.3337 30.2445 79.8013 26.3804ZM66.1193 26.3804H75.8499C75.3271 29.5644 73.5505 32.4019 70.9845 34.4859C68.4187 32.4019 66.6423 29.5644 66.1193 26.3804Z" fill="black"/>
</svg>
