<svg width="100" height="100" viewBox="0 0 100 100" fill="none" xmlns="http://www.w3.org/2000/svg">
<g clip-path="url(#clip0)">
<path d="M1.91973 49.2139L12.3378 43.3169C12.7309 43.1203 13.124 43.1203 13.3206 43.3169L27.8666 49.4104C28.2597 49.607 28.6528 50.0001 28.6528 50.5898V61.0079C28.6528 61.5976 28.0631 62.1873 27.4734 62.1873C27.2769 62.1873 27.0803 62.1873 27.0803 62.1873L2.11629 51.3761C1.52659 51.1795 1.33003 50.3933 1.52659 49.8036C1.52659 49.607 1.72316 49.4104 1.91973 49.2139Z" fill="white"/>
<path d="M1.91967 27.5912L31.7978 10.883C32.191 10.6865 32.5841 10.6865 32.7807 10.883L55.3859 20.1217C55.9756 20.3182 56.1721 21.1045 55.9756 21.6942C55.9756 21.8908 55.779 21.8908 55.779 22.0873L28.4562 40.3681C28.0631 40.5646 27.6699 40.5646 27.2768 40.3681L2.11624 29.7535C1.52653 29.5569 1.1334 28.7706 1.52653 28.1809C1.52653 27.9843 1.7231 27.7878 1.91967 27.5912Z" fill="#FFA800"/>
<path d="M26.6871 72.6052V39.1888L55.3859 19.9253L71.701 26.6086L42.6091 46.0687V79.4851L26.6871 72.6052Z" fill="white"/>
<path d="M1.91973 60.0249L12.3378 54.1279C12.7309 53.9313 13.124 53.9313 13.3206 54.1279L27.8666 60.2215C28.2597 60.418 28.6528 60.8112 28.6528 61.4009V71.8189C28.6528 72.4086 28.0631 72.9983 27.4734 72.9983C27.2769 72.9983 27.0803 72.9983 27.0803 72.9983L2.11629 62.1871C1.52659 61.9906 1.33003 61.2043 1.52659 60.6146C1.52659 60.418 1.72316 60.2215 1.91973 60.0249Z" fill="#FFA800"/>
<path d="M1.91967 38.4026L12.3377 32.5056C12.7309 32.309 13.124 32.309 13.3206 32.5056L27.8665 38.5992C28.2596 38.7957 28.6528 39.1889 28.6528 39.7786V50.1966C28.6528 50.7863 28.0631 51.376 27.4734 51.376C27.2768 51.376 27.0802 51.376 27.0802 51.376L2.11624 40.5648C1.52653 40.3683 1.1334 39.582 1.52653 38.9923C1.52653 38.7957 1.7231 38.5992 1.91967 38.4026Z" fill="white"/>
<path d="M40.6434 77.7159V67.4944C40.6434 66.9047 41.2331 66.315 41.8228 66.315C42.0194 66.315 42.216 66.315 42.216 66.315L66.3937 76.5365C66.7868 76.7331 67.18 76.7331 67.3766 76.5365L86.0504 65.5288C86.4436 65.3322 86.8367 65.3322 87.0333 65.5288L97.4513 69.6567C98.041 70.0498 98.2376 70.6395 97.8444 71.2292C97.8444 71.4258 97.6479 71.4258 97.6479 71.6224L67.5731 89.3134C67.18 89.51 66.7868 89.51 66.5903 89.3134L41.2331 78.6988C41.0366 78.6988 40.6434 78.3056 40.6434 77.7159Z" fill="#FFA800"/>
<path d="M40.6434 56.0936V45.8721C40.6434 45.2824 41.2331 44.6927 41.8228 44.6927C42.0194 44.6927 42.216 44.6927 42.216 44.6927L66.3937 54.9142C66.7868 55.1108 67.18 55.1108 67.3766 54.9142L86.0504 43.9065C86.4436 43.7099 86.8367 43.7099 87.0333 43.9065L97.4513 48.0344C98.041 48.4275 98.2376 49.0172 97.8444 49.6069C97.8444 49.8035 97.6479 49.8035 97.6479 50L67.5731 67.6911C67.18 67.8877 66.7868 67.8877 66.5903 67.6911L41.2331 57.0765C41.0366 57.0765 40.6434 56.6833 40.6434 56.0936Z" fill="white"/>
<path d="M41.4297 44.4961L68.9491 26.2154C69.3422 26.0188 69.7353 26.0188 70.1285 26.0188L97.8444 37.4197C98.4341 37.6163 98.8273 38.4025 98.4341 38.9922C98.4341 39.1888 98.2376 39.3854 98.041 39.5819L67.9662 57.273C67.5731 57.4695 67.18 57.4695 66.9834 57.273L41.8228 46.6583C41.2331 46.4618 41.0366 45.6755 41.2331 45.0858C41.2331 44.6927 41.2331 44.6927 41.4297 44.4961Z" fill="#FFA800"/>
<path d="M40.6434 66.9047V56.4866C40.6434 55.8969 41.2331 55.3072 41.8228 55.3072C42.0194 55.3072 42.216 55.3072 42.216 55.3072L66.3937 65.5287C66.7868 65.7253 67.18 65.7253 67.3765 65.5287L86.0504 54.521C86.4435 54.3244 86.8367 54.3244 87.0332 54.521L97.4513 58.8454C98.041 59.042 98.4341 59.8283 98.041 60.418C98.041 60.6145 97.8444 60.8111 97.6479 61.0077L67.5731 78.6987C67.18 78.8953 66.7868 78.8953 66.5903 78.6987L41.2331 67.8875C41.0366 67.8875 40.6434 67.4944 40.6434 66.9047Z" fill="white"/>
<path d="M99.6135 38.2061C99.6135 37.4198 99.0238 36.8301 98.4341 36.437L70.3251 24.8395L56.3688 18.9425C56.1722 18.9425 55.9757 18.7459 55.5825 18.7459L32.9773 9.50729C32.3876 9.31072 31.7979 9.31072 31.2082 9.70386L1.13349 27.0017C0.15065 27.3949 -0.242484 28.5743 0.347217 29.5571C0.347217 29.9503 0.740351 30.3434 1.33005 30.54L8.60303 33.4885L1.13349 37.6164C0.15065 38.2061 -0.0459167 39.3855 0.347217 40.3683C0.543784 40.7614 0.936918 40.958 1.33005 41.1546L8.60303 44.2996L1.13349 48.4276C0.15065 48.8207 -0.242484 50.0001 0.15065 50.9829C0.347217 51.5726 0.740351 51.9658 1.33005 52.1623L8.60303 55.1108L1.13349 59.2387C0.15065 59.8284 -0.0459167 61.0078 0.347217 61.9907C0.543784 62.3838 0.936918 62.5804 1.33005 62.7769L26.6872 73.5881L26.8838 73.7847L40.84 79.6817L66.3937 90.4929C66.9834 90.6894 67.5731 90.6895 68.1628 90.2963L98.6307 72.4087C99.6135 71.819 99.8101 70.6396 99.417 69.6568C99.2204 69.2636 98.8273 69.0671 98.4341 68.8705L91.3577 65.922L98.8273 61.5975C99.8101 61.0078 100.007 59.8284 99.6135 58.8456C99.417 58.4525 99.0238 58.2559 98.6307 58.0593L91.5543 55.1108L99.0238 50.7864C100.007 50.1967 100.203 49.0173 99.8101 48.0344C99.6135 47.6413 99.2204 47.4447 98.8273 47.2481L91.7509 44.2996L99.2204 39.9752C99.417 39.7786 99.8101 38.9923 99.6135 38.2061ZM25.7044 69.0671L6.44079 60.8113L13.1241 57.0765L25.7044 62.3838V69.0671ZM25.7044 58.2559L6.44079 50.0001L13.1241 46.2653L25.7044 51.5726V58.2559ZM25.7044 47.4447L6.44079 39.1889L13.1241 35.4541L25.7044 40.7614V47.4447ZM6.44079 28.3777L32.3876 13.8318L51.2581 21.4979L27.4735 37.4198L6.44079 28.3777ZM40.6434 43.9065C40.0537 44.2996 39.8572 44.8893 39.8572 45.479V74.9641L29.8323 70.6396V40.7614L55.7791 23.267L65.4109 27.1983L40.6434 43.9065ZM93.3234 71.2293L67.18 86.5615L43.7885 76.5366V70.0499L66.3937 79.6817C66.9834 79.8783 67.5731 79.8783 68.1628 79.4851L87.0333 68.4774L93.3234 71.2293ZM93.3234 60.4181L67.18 75.7504L43.7885 65.7254V59.2387L66.5903 68.8705C67.18 69.0671 67.7697 69.0671 68.3594 68.674L87.2298 57.6662L93.3234 60.4181ZM93.3234 49.607L67.18 64.9392L43.7885 54.9143V48.4276L66.3937 58.0593C66.5903 58.2559 66.9834 58.2559 67.18 58.2559C67.5731 58.2559 67.9663 58.2559 68.1628 58.0593L87.0333 47.0516L93.3234 49.607ZM67.18 54.128L45.9508 45.0859L69.9319 29.164L93.52 38.7958L67.18 54.128Z" fill="#1B230D"/>
</g>
<defs>
<clipPath id="clip0">
<rect width="100" height="100" fill="white"/>
</clipPath>
</defs>
</svg>
