<svg width="16" height="16" viewBox="0 0 16 16" fill="none" xmlns="http://www.w3.org/2000/svg">
<g clip-path="url(#clip0)">
<path d="M14.6667 14H14.3334V13.6667C14.3334 13.2327 14.054 12.866 13.6667 12.728V7.93866C14.054 7.80066 14.3334 7.43401 14.3334 7.00001V6.66666H14.6667C14.8507 6.66666 15 6.51732 15 6.33332V5.33332H15.3334C15.4814 5.33332 15.612 5.23532 15.6534 5.09332C15.6947 4.95132 15.6374 4.79866 15.5127 4.71866L8.17935 0.0520078C8.07001 -0.0173359 7.9307 -0.0173359 7.82135 0.0520078L0.488011 4.71866C0.362667 4.79866 0.306011 4.95066 0.347355 5.09332C0.388699 5.23598 0.519355 5.33332 0.667355 5.33332H1.00067V6.33332C1.00067 6.51732 1.15001 6.66666 1.33401 6.66666H1.66735V7.00001C1.66735 7.43401 1.9467 7.80066 2.33401 7.93866V12.728C1.94667 12.866 1.66735 13.2327 1.66735 13.6667V14H1.33401C0.782667 14 0.334011 14.4487 0.334011 15V15.6667C0.334011 15.8507 0.483355 16 0.667355 16H15.334C15.518 16 15.6674 15.8507 15.6674 15.6667V15C15.6667 14.4487 15.218 14 14.6667 14ZM5.81535 3.38935L7.81535 2.05601C7.92735 1.98135 8.07335 1.98135 8.18535 2.05601L10.1854 3.38935C10.3074 3.4707 10.362 3.6227 10.3194 3.76335C10.2767 3.90401 10.1467 4.00001 10 4.00001H6.00001C5.85335 4.00001 5.72335 3.90401 5.68067 3.76335C5.63801 3.62266 5.69335 3.47066 5.81535 3.38935ZM7.00001 12.728C6.61267 12.866 6.33335 13.2327 6.33335 13.6667V14H5.00001V13.6667C5.00001 13.2327 4.72067 12.866 4.33335 12.728V7.93866C4.7207 7.80066 5.00001 7.43401 5.00001 7.00001V6.66666H6.33335V7.00001C6.33335 7.43401 6.6127 7.80066 7.00001 7.93866V12.728ZM11.6667 12.728C11.2794 12.866 11 13.2327 11 13.6667V14H9.6667V13.6667C9.6667 13.2327 9.38736 12.866 9.00004 12.728V7.93866C9.38739 7.80066 9.6667 7.43401 9.6667 7.00001V6.66666H11V7.00001C11 7.43401 11.2794 7.80066 11.6667 7.93866V12.728Z" fill="black"/>
</g>
<defs>
<clipPath id="clip0">
<rect width="16" height="16" fill="white"/>
</clipPath>
</defs>
</svg>
