<svg width="16" height="20" viewBox="0 0 16 20" fill="none" xmlns="http://www.w3.org/2000/svg">
<path d="M9.00856 16.5961L9.00856 1.00016C9.00856 0.448034 8.55707 4.38855e-08 7.99973 4.10271e-08C7.44239 3.81688e-08 6.9909 0.448118 6.9909 1.00016L6.9909 16.5961L1.72217 11.3951C1.32764 11.004 0.689435 11.004 0.295899 11.3951C-0.0986327 11.7862 -0.0986327 12.4193 0.295899 12.8094L7.28655 19.7097C7.67511 20.0948 8.32535 20.0988 8.71382 19.7097L15.7045 12.8084C16.099 12.4173 16.098 11.7842 15.7045 11.3941C15.3109 11.003 14.6717 11.003 14.2782 11.3941L9.00856 16.5961Z" fill="black"/>
</svg>
