<svg width="493" height="380" viewBox="0 0 493 380" fill="none" xmlns="http://www.w3.org/2000/svg">
<path d="M12.4881 346.847C12.2447 346.847 12.0357 347.02 11.9905 347.259L7.51849 370.878C7.05182 373.568 5.24348 374.738 2.5018 374.738H0.674935C0.395215 374.738 0.168457 374.964 0.168457 375.244V378.675C0.168457 378.955 0.395215 379.181 0.674935 379.181H2.8518C7.69349 379.181 11.1352 376.609 12.0685 371.346L15.783 351.47C15.8277 351.23 16.037 351.057 16.2808 351.057H31.8038C32.0835 351.057 32.3103 351.283 32.3103 351.563V378.675C32.3103 378.955 32.537 379.181 32.8167 379.181H36.3538C36.6335 379.181 36.8603 378.955 36.8603 378.675V347.353C36.8603 347.073 36.6335 346.847 36.3538 346.847H12.4881Z" fill="black"/>
<path d="M65.3115 363.043C65.3698 354.916 71.2032 350.179 78.7282 350.179C86.1949 350.179 92.0866 354.916 92.0866 363.043C92.0866 371.171 86.1949 375.907 78.7282 375.907C71.2032 375.907 65.3698 371.171 65.3115 363.043ZM96.695 363.043C96.695 352.811 88.8783 346.086 78.7282 346.086C68.5782 346.086 60.7615 352.811 60.7615 363.043C60.7615 373.276 68.5782 380 78.7282 380C88.8783 380 96.695 373.276 96.695 363.043Z" fill="black"/>
<path d="M121.046 346.847C120.766 346.847 120.539 347.073 120.539 347.353V378.675C120.539 378.955 120.766 379.181 121.046 379.181H124.583C124.862 379.181 125.089 378.955 125.089 378.675V351.563C125.089 351.283 125.316 351.057 125.596 351.057H149.024C149.304 351.057 149.531 350.83 149.531 350.55V347.353C149.531 347.073 149.304 346.847 149.024 346.847H121.046Z" fill="black"/>
<path d="M173.282 346.847C173.002 346.847 172.775 347.073 172.775 347.353V378.675C172.775 378.955 173.002 379.181 173.282 379.181H177.276C177.419 379.181 177.555 379.121 177.651 379.015L200.36 353.959C200.671 353.616 201.242 353.836 201.242 354.299V378.675C201.242 378.955 201.469 379.181 201.749 379.181H205.286C205.565 379.181 205.792 378.955 205.792 378.675V347.353C205.792 347.073 205.565 346.847 205.286 346.847H201.351C201.207 346.847 201.071 346.907 200.975 347.014L178.208 372.239C177.897 372.584 177.326 372.364 177.326 371.9V347.353C177.326 347.073 177.099 346.847 176.819 346.847H173.282Z" fill="black"/>
<path d="M262.619 353.963C262.872 353.814 262.946 353.482 262.773 353.245C259.426 348.668 254.124 346.086 247.453 346.086C237.303 346.086 229.603 352.518 229.603 362.985C229.603 373.51 237.128 380 247.453 380C254.405 380 259.44 377.365 262.824 372.787C263 372.549 262.925 372.213 262.668 372.064L259.795 370.399C259.575 370.272 259.296 370.327 259.136 370.525C256.371 373.933 252.753 375.849 247.278 375.849C239.519 375.849 234.211 370.469 234.211 362.985C234.211 355.325 239.344 350.296 247.278 350.296C252.632 350.296 256.461 352.152 259.134 355.494C259.295 355.695 259.579 355.752 259.801 355.622L262.619 353.963Z" fill="black"/>
<path d="M285.123 346.847C284.843 346.847 284.617 347.073 284.617 347.353V350.55C284.617 350.83 284.843 351.057 285.123 351.057H298.402C298.682 351.057 298.908 351.283 298.908 351.563V378.675C298.908 378.955 299.135 379.181 299.415 379.181H303.01C303.29 379.181 303.517 378.955 303.517 378.675V351.563C303.517 351.283 303.744 351.057 304.023 351.057H317.302C317.582 351.057 317.809 350.83 317.809 350.55V347.353C317.809 347.073 317.582 346.847 317.302 346.847H285.123Z" fill="black"/>
<path d="M341.555 346.847C341.275 346.847 341.048 347.073 341.048 347.353V378.675C341.048 378.955 341.275 379.181 341.555 379.181H345.549C345.692 379.181 345.828 379.121 345.924 379.015L368.633 353.959C368.944 353.616 369.515 353.836 369.515 354.299V378.675C369.515 378.955 369.742 379.181 370.022 379.181H373.559C373.839 379.181 374.065 378.955 374.065 378.675V347.353C374.065 347.073 373.839 346.847 373.559 346.847H369.624C369.48 346.847 369.344 346.907 369.248 347.014L346.481 372.239C346.17 372.584 345.598 372.364 345.598 371.9V347.353C345.598 347.073 345.372 346.847 345.092 346.847H341.555Z" fill="black"/>
<path d="M399.374 346.847C399.094 346.847 398.867 347.073 398.867 347.353V378.675C398.867 378.955 399.094 379.181 399.374 379.181H402.911C403.191 379.181 403.417 378.955 403.417 378.675V364.602C403.417 364.322 403.644 364.096 403.924 364.096H416.322C416.496 364.096 416.657 364.184 416.75 364.331L426.018 378.946C426.111 379.093 426.273 379.181 426.446 379.181H430.67C431.07 379.181 431.312 378.741 431.098 378.404L420.688 362.039C420.58 361.868 420.583 361.648 420.698 361.481L430.175 347.639C430.405 347.303 430.165 346.847 429.757 346.847H425.675C425.509 346.847 425.353 346.928 425.258 347.066L416.577 359.667C416.482 359.804 416.326 359.886 416.16 359.886H403.924C403.644 359.886 403.417 359.659 403.417 359.38V347.353C403.417 347.073 403.191 346.847 402.911 346.847H399.374Z" fill="black"/>
<path d="M469.855 351.307C469.934 351.12 470.118 350.998 470.321 350.998H474.43C474.635 350.998 474.82 351.122 474.898 351.312L482.181 369.01C482.318 369.343 482.073 369.709 481.713 369.709H462.817C462.454 369.709 462.209 369.339 462.351 369.005L469.855 351.307ZM467.518 346.847C467.316 346.847 467.134 346.966 467.053 347.151L453.435 378.473C453.29 378.808 453.535 379.181 453.899 379.181H457.694C457.896 379.181 458.079 379.061 458.159 378.876L460.17 374.224C460.25 374.039 460.433 373.919 460.635 373.919H484.061C484.263 373.919 484.446 374.039 484.526 374.224L486.537 378.876C486.617 379.061 486.8 379.181 487.002 379.181H490.688C491.05 379.181 491.296 378.812 491.154 378.478L477.875 347.155C477.795 346.968 477.612 346.847 477.408 346.847H467.518Z" fill="black"/>
<path d="M346.756 16.8689C344.304 8.4301 350.639 0 359.431 0H406.51C415.906 0 424.172 6.20358 426.791 15.2212L446.128 81.7848H365.614L346.756 16.8689Z" fill="#FFA800"/>
<path d="M0 0H306.858C316.253 0 324.519 6.20358 327.139 15.2212L346.475 81.7848H40.1553C30.8177 81.7848 22.5885 75.6562 19.9186 66.7138L0 0Z" fill="#FFA800"/>
<path d="M30.356 101.572H139.248V167.527H66.3777C57.123 167.527 48.9465 161.505 46.2062 152.671L30.356 101.572Z" fill="#FFA800"/>
<path d="M56.7549 187.314H139.249V253.269H92.7767C83.522 253.269 75.3455 247.247 72.6052 238.413L56.7549 187.314Z" fill="#FFA800"/>
<path d="M240.882 101.572H159.048V240.078C159.048 247.363 164.957 253.269 172.247 253.269H240.882V101.572Z" fill="black"/>
<path d="M268.6 101.572H350.434V240.078C350.434 247.363 344.524 253.269 337.235 253.269H268.6V101.572Z" fill="black"/>
<path d="M451.409 101.572H372.215L411.812 253.269H479.792C488.655 253.269 495 244.712 492.419 236.237L451.409 101.572Z" fill="black"/>
<path d="M13.5804 330.443C13.5804 331.011 13.4858 331.389 13.2965 331.578C13.1546 331.767 12.6815 331.862 11.8773 331.862H1.8006C0.712504 331.862 0.168457 331.389 0.168457 330.443V295.693C0.168457 293.991 0.404999 292.336 0.878083 290.728C1.35117 289.073 2.1081 287.631 3.14889 286.402C4.23698 285.126 5.65623 284.109 7.40664 283.353C9.15705 282.596 11.2859 282.218 13.7933 282.218H35.3659C35.9336 282.218 36.2884 282.312 36.4303 282.502C36.6196 282.643 36.7142 283.116 36.7142 283.92V291.934C36.7142 292.549 36.6196 292.974 36.4303 293.21C36.2411 293.4 35.8863 293.494 35.3659 293.494H17.8381C16.892 293.494 16.135 293.636 15.5673 293.92C14.9996 294.156 14.5739 294.463 14.29 294.842C14.0062 295.22 13.8169 295.645 13.7223 296.118C13.6277 296.591 13.5804 297.064 13.5804 297.537V330.443Z" fill="black"/>
<path d="M53.7242 330.443C53.7242 331.011 53.6295 331.389 53.4403 331.578C53.2984 331.767 52.8253 331.862 52.021 331.862H41.9444C40.8563 331.862 40.3122 331.389 40.3122 330.443V286.899C40.3122 285.622 40.5961 284.535 41.1638 283.636C41.7315 282.691 42.9851 282.218 44.9248 282.218H62.9493C65.7405 282.218 68.2005 282.62 70.3294 283.423C72.5056 284.227 74.327 285.362 75.7935 286.828C77.2601 288.246 78.3718 289.924 79.1288 291.863C79.8857 293.801 80.2642 295.905 80.2642 298.175C80.2642 298.931 80.1932 299.877 80.0513 301.012C79.9094 302.146 79.6019 303.328 79.1288 304.558C78.703 305.787 78.0643 307.04 77.2128 308.316C76.3612 309.546 75.2022 310.657 73.7356 311.65C72.3164 312.642 70.5186 313.446 68.3425 314.061C66.2136 314.675 63.6589 314.983 60.6785 314.983H53.7242V330.443ZM66.4265 299.097C66.4265 298.624 66.3555 298.08 66.2136 297.466C66.0716 296.804 65.8114 296.213 65.433 295.693C65.1018 295.173 64.6051 294.723 63.9428 294.345C63.2804 293.967 62.4289 293.778 61.3881 293.778H53.7242V304.487H61.3881C63.0439 304.487 64.2976 303.943 65.1491 302.856C66.0007 301.721 66.4265 300.468 66.4265 299.097Z" fill="black"/>
<path d="M122.359 281.934C123.4 281.934 123.731 282.383 123.353 283.282L109.586 322.855C108.356 326.448 106.582 329.025 104.264 330.585C101.946 332.145 98.7762 332.926 94.755 332.926C93.4776 332.926 92.2003 332.855 90.923 332.713C89.6456 332.571 88.321 332.287 86.9491 331.862C86.2868 331.625 85.8373 331.413 85.6008 331.223C85.3642 331.034 85.3169 330.609 85.4589 329.947L86.8781 322.784C87.02 322.122 87.1856 321.791 87.3748 321.791C87.6114 321.744 88.0608 321.767 88.7231 321.862C89.4328 321.957 90.0241 322.028 90.4972 322.075C91.0176 322.122 91.538 322.146 92.0584 322.146C92.9099 322.146 93.6432 322.146 94.2582 322.146C94.9205 322.098 95.4646 321.98 95.8904 321.791C96.3634 321.602 96.7656 321.295 97.0967 320.869C97.4279 320.444 97.7354 319.829 98.0192 319.025L98.7289 316.898H96.4581C95.7957 316.898 95.2517 316.85 94.8259 316.756C94.4001 316.614 94.0453 316.425 93.7615 316.188C93.4776 315.952 93.2174 315.621 92.9809 315.196C92.7917 314.77 92.5788 314.274 92.3422 313.706L80.4915 283.565C80.2549 282.903 80.2786 282.478 80.5624 282.289C80.8936 282.052 81.2721 281.934 81.6978 281.934H91.8455C92.9336 281.934 93.6432 282.029 93.9744 282.218C94.3055 282.36 94.5894 282.809 94.8259 283.565L98.6579 295.267L102.135 306.543H102.561L105.612 294.771L108.522 283.849C108.758 283.093 109.018 282.596 109.302 282.36C109.586 282.076 110.248 281.934 111.289 281.934H122.359Z" fill="black"/>
<path d="M144.669 281.296C146.798 281.296 148.974 281.509 151.198 281.934C153.421 282.312 155.432 282.998 157.23 283.991C159.027 284.984 160.494 286.355 161.629 288.104C162.812 289.806 163.403 291.958 163.403 294.558C163.403 296.544 162.788 298.506 161.558 300.444C160.376 302.383 158.72 303.919 156.591 305.054V305.48C158.01 305.952 159.24 306.591 160.281 307.394C161.322 308.198 162.173 309.12 162.836 310.16C163.545 311.153 164.042 312.217 164.326 313.352C164.657 314.439 164.823 315.503 164.823 316.543C164.823 319.191 164.279 321.507 163.191 323.493C162.102 325.479 160.612 327.157 158.72 328.528C156.828 329.852 154.628 330.845 152.12 331.507C149.66 332.169 147.035 332.524 144.244 332.571C142.73 332.571 141.074 332.5 139.276 332.358C137.478 332.216 135.657 331.956 133.812 331.578C132.014 331.2 130.24 330.703 128.49 330.089C126.787 329.474 125.759 328.741 124.34 327.89C123.819 327.607 123.535 327.276 123.488 326.897C123.441 326.472 123.606 325.928 123.985 325.266L126.787 318.883C127.118 318.127 127.425 317.678 127.709 317.536C128.04 317.394 128.584 317.512 129.341 317.891C130.193 318.269 131.163 318.647 132.251 319.025C133.386 319.356 134.522 319.664 135.657 319.947C136.84 320.231 138.023 320.467 139.205 320.656C140.388 320.798 141.523 320.869 142.611 320.869C145.355 320.869 147.366 320.349 148.643 319.309C149.968 318.269 150.63 316.898 150.63 315.196C150.63 313.919 150.039 312.879 148.856 312.075C147.721 311.271 145.923 310.822 143.463 310.728L140.341 310.657C139.347 310.704 138.59 310.609 138.07 310.373C137.549 310.089 137.289 309.286 137.289 307.962V303.565C137.289 302.477 137.455 301.744 137.786 301.366C138.164 300.988 138.874 300.775 139.915 300.728L143.889 300.657C145.545 300.61 146.846 300.255 147.792 299.593C148.785 298.931 149.282 297.986 149.282 296.756C149.282 295.385 148.667 294.416 147.437 293.849C146.207 293.281 144.764 292.998 143.108 292.998C141.31 292.998 139.418 293.187 137.431 293.565C135.492 293.943 133.576 294.487 131.683 295.196C130.784 295.527 130.169 295.622 129.838 295.48C129.554 295.291 129.223 294.747 128.845 293.849L126.574 288.175C126.385 287.702 126.243 287.324 126.148 287.04C126.053 286.757 126.006 286.52 126.006 286.331C126.053 286.142 126.172 285.953 126.361 285.764C126.598 285.575 126.905 285.362 127.284 285.126C128.277 284.558 129.436 284.038 130.761 283.565C132.133 283.093 133.576 282.691 135.089 282.36C136.603 282.029 138.164 281.769 139.773 281.58C141.429 281.39 143.061 281.296 144.669 281.296Z" fill="black"/>
<path d="M212.862 306.969C212.862 310.94 212.436 314.51 211.585 317.678C210.733 320.846 209.385 323.54 207.54 325.763C205.742 327.985 203.4 329.687 200.515 330.869C197.629 332.051 194.175 332.642 190.154 332.642C186.322 332.642 182.987 332.074 180.148 330.94C177.357 329.758 175.063 328.079 173.265 325.904C171.467 323.682 170.119 320.987 169.22 317.82C168.369 314.652 167.943 311.082 167.943 307.111C167.943 303.234 168.416 299.711 169.362 296.544C170.355 293.376 171.775 290.681 173.62 288.459C175.512 286.189 177.854 284.464 180.645 283.282C183.436 282.052 186.677 281.438 190.367 281.438C194.199 281.438 197.51 282.052 200.302 283.282C203.14 284.464 205.482 286.166 207.327 288.388C209.219 290.61 210.615 293.305 211.514 296.473C212.413 299.593 212.862 303.092 212.862 306.969ZM198.741 307.04C198.693 305.196 198.528 303.447 198.244 301.792C198.007 300.09 197.581 298.624 196.966 297.395C196.351 296.165 195.5 295.196 194.412 294.487C193.324 293.731 191.952 293.352 190.296 293.352C188.924 293.352 187.718 293.707 186.677 294.416C185.636 295.125 184.785 296.094 184.122 297.324C183.46 298.506 182.963 299.901 182.632 301.508C182.301 303.116 182.135 304.794 182.135 306.543C182.135 308.718 182.277 310.68 182.561 312.43C182.845 314.179 183.318 315.668 183.98 316.898C184.643 318.08 185.518 319.002 186.606 319.664C187.694 320.325 189.042 320.656 190.651 320.656C192.212 320.656 193.513 320.302 194.554 319.593C195.595 318.836 196.422 317.843 197.037 316.614C197.652 315.337 198.078 313.872 198.315 312.217C198.599 310.562 198.741 308.836 198.741 307.04Z" fill="black"/>
<path d="M250.372 304.77C251.696 305.338 252.808 306.071 253.707 306.969C254.653 307.82 255.41 308.789 255.978 309.877C256.593 310.917 257.019 312.028 257.255 313.21C257.539 314.345 257.681 315.479 257.681 316.614C257.681 318.883 257.231 320.964 256.333 322.855C255.481 324.699 254.275 326.306 252.714 327.677C251.152 329.001 249.307 330.041 247.178 330.798C245.097 331.507 242.826 331.862 240.366 331.862H221.916C219.976 331.862 218.722 331.507 218.155 330.798C217.587 330.041 217.303 328.836 217.303 327.181V286.899C217.303 285.338 217.587 284.18 218.155 283.423C218.722 282.62 219.976 282.218 221.916 282.218H240.366C242.495 282.218 244.482 282.454 246.327 282.927C248.172 283.4 249.78 284.156 251.152 285.196C252.524 286.237 253.612 287.56 254.417 289.168C255.221 290.776 255.623 292.714 255.623 294.983C255.623 296.827 255.126 298.624 254.133 300.373C253.139 302.075 251.886 303.399 250.372 304.345V304.77ZM243.843 315.692C243.843 314.321 243.417 313.21 242.566 312.359C241.762 311.46 240.579 311.011 239.018 311.011H230.644V320.302H239.018C239.964 320.302 240.744 320.16 241.359 319.876C241.975 319.593 242.471 319.214 242.85 318.742C243.228 318.269 243.488 317.772 243.63 317.252C243.772 316.732 243.843 316.212 243.843 315.692ZM230.644 300.515H238.095C239.041 300.515 239.917 300.279 240.721 299.806C241.525 299.333 241.927 298.411 241.927 297.04C241.927 295.953 241.596 295.125 240.934 294.558C240.319 293.991 239.467 293.707 238.379 293.707H230.644V300.515Z" fill="black"/>
<path d="M288.135 322.146H274.155L271.813 330.301C271.624 330.822 271.388 331.223 271.104 331.507C270.867 331.744 270.347 331.862 269.543 331.862H259.111C258.638 331.862 258.331 331.744 258.189 331.507C258.094 331.223 258.094 330.892 258.189 330.514L272.168 286.615C272.783 284.724 273.54 283.518 274.439 282.998C275.338 282.431 276.592 282.147 278.2 282.147H283.948C284.8 282.147 285.533 282.194 286.148 282.289C286.81 282.336 287.378 282.502 287.851 282.785C288.371 283.069 288.821 283.518 289.199 284.133C289.625 284.7 290.003 285.504 290.335 286.544L304.314 330.514C304.409 330.751 304.409 331.034 304.314 331.365C304.267 331.696 303.959 331.862 303.392 331.862H292.676C292.109 331.862 291.636 331.791 291.257 331.649C290.879 331.507 290.619 331.176 290.477 330.656L288.135 322.146ZM277.136 311.65H285.225L283.877 306.118L281.606 295.905H281.039L278.626 306.331L277.136 311.65Z" fill="black"/>
<path d="M309.057 316.543C309.482 314.699 310.121 313.163 310.973 311.933C311.824 310.704 313.338 309.806 315.514 309.238V309.096C314.048 308.671 312.818 308.056 311.824 307.253C310.831 306.402 310.026 305.456 309.411 304.416C308.844 303.328 308.418 302.17 308.134 300.941C307.898 299.711 307.779 298.458 307.779 297.182C307.779 294.913 308.134 292.879 308.844 291.083C309.553 289.239 310.618 287.655 312.037 286.331C313.456 285.007 315.207 283.991 317.288 283.282C319.417 282.572 321.877 282.218 324.668 282.218H342.764C344.703 282.218 345.957 282.643 346.525 283.494C347.093 284.298 347.376 285.433 347.376 286.899V330.443C347.376 331.389 346.832 331.862 345.744 331.862H335.668C334.863 331.862 334.367 331.767 334.177 331.578C334.035 331.389 333.964 331.011 333.964 330.443V312.43H329.352C327.365 312.43 325.922 312.902 325.023 313.848C324.172 314.746 323.486 316.212 322.965 318.245L320.127 330.089C319.985 330.562 319.772 330.916 319.488 331.153C319.252 331.389 318.944 331.578 318.566 331.72C318.234 331.814 317.856 331.862 317.43 331.862C317.052 331.862 316.673 331.862 316.295 331.862H306.431C305.863 331.862 305.556 331.72 305.508 331.436C305.508 331.153 305.579 330.68 305.721 330.018L309.057 316.543ZM321.617 297.82C321.617 299.191 322.043 300.231 322.894 300.941C323.746 301.603 324.739 301.934 325.875 301.934H333.964V293.778H325.875C324.314 293.778 323.202 294.203 322.539 295.054C321.924 295.905 321.617 296.827 321.617 297.82Z" fill="black"/>
<path d="M378.847 305.125C377.049 304.321 375.677 303.139 374.731 301.579C373.832 299.971 373.146 298.175 372.673 296.189L369.267 283.494C369.172 283.258 369.149 282.974 369.196 282.643C369.291 282.265 369.645 282.076 370.26 282.076H380.905C381.141 282.076 381.402 282.123 381.685 282.218C382.017 282.312 382.23 282.596 382.324 283.069L385.588 295.054C385.967 296.425 386.416 297.513 386.937 298.317C387.457 299.073 388.025 299.664 388.64 300.09C389.302 300.468 389.988 300.704 390.698 300.799C391.407 300.893 392.117 300.941 392.827 300.941H395.095V283.353C395 282.832 395.048 282.525 395.237 282.431C395.426 282.289 395.757 282.218 396.23 282.218H407.017C407.443 282.218 407.75 282.289 407.939 282.431C408.176 282.525 408.294 282.832 408.294 283.353V300.941H410.492C411.201 300.941 411.911 300.893 412.621 300.799C413.33 300.704 413.993 300.468 414.608 300.09C415.27 299.664 415.861 299.073 416.382 298.317C416.902 297.513 417.351 296.425 417.73 295.054L420.994 283.069C421.089 282.596 421.278 282.312 421.562 282.218C421.893 282.123 422.177 282.076 422.413 282.076H433.129C433.744 282.076 434.075 282.265 434.122 282.643C434.217 282.974 434.217 283.258 434.122 283.494L430.716 296.189C430.243 298.175 429.462 299.948 428.374 301.508C427.333 303.021 426.056 304.227 424.542 305.125V305.48C425.772 305.905 426.789 306.402 427.594 306.969C428.398 307.489 429.06 308.104 429.581 308.813C430.101 309.475 430.503 310.255 430.787 311.153C431.118 312.004 431.426 312.95 431.71 313.99L436.109 330.443C436.204 330.68 436.204 330.987 436.109 331.365C436.062 331.696 435.731 331.862 435.116 331.862H423.975C423.738 331.862 423.478 331.814 423.194 331.72C422.91 331.625 422.697 331.342 422.555 330.869L418.44 315.976C418.108 314.841 417.73 313.919 417.304 313.21C416.878 312.453 416.358 311.886 415.743 311.508C415.128 311.082 414.371 310.799 413.472 310.657C412.621 310.515 411.58 310.444 410.35 310.444H408.294V330.727C408.294 331.247 408.176 331.578 407.939 331.72C407.75 331.814 407.443 331.862 407.017 331.862H396.372C395.899 331.862 395.568 331.814 395.379 331.72C395.19 331.578 395.095 331.247 395.095 330.727V310.444H393.039C391.809 310.444 390.745 310.515 389.846 310.657C388.947 310.799 388.167 311.082 387.504 311.508C386.889 311.886 386.369 312.453 385.943 313.21C385.517 313.919 385.139 314.841 384.808 315.976L380.692 330.869C380.55 331.342 380.337 331.625 380.053 331.72C379.769 331.814 379.509 331.862 379.273 331.862H368.274C367.659 331.862 367.304 331.696 367.209 331.365C367.162 330.987 367.185 330.68 367.28 330.443L371.68 313.99C371.916 313.092 372.2 312.217 372.531 311.366C372.862 310.515 373.288 309.735 373.809 309.026C374.329 308.269 374.991 307.607 375.796 307.04C376.6 306.425 377.617 305.905 378.847 305.48V305.125Z" fill="black"/>
<path d="M448.879 331.862C444.763 331.862 440.724 331.862 437.028 331.862L436.744 323.224C436.744 322.846 436.744 322.468 436.744 322.09C436.744 321.711 436.839 321.357 437.028 321.026C437.217 320.648 437.501 320.34 437.879 320.104C438.305 319.82 438.873 319.631 439.583 319.537L442.137 319.182C443.225 318.284 444.1 317.243 444.763 316.061C445.425 314.832 445.945 313.627 446.324 312.445C446.702 311.263 446.963 310.175 447.105 309.182C447.246 308.142 447.365 307.362 447.459 306.842L449.943 287.608C450.038 286.851 450.18 286.142 450.369 285.48C450.558 284.818 450.842 284.251 451.22 283.778C451.646 283.258 452.214 282.88 452.924 282.643C453.68 282.36 454.627 282.218 455.762 282.218H480.883C482.822 282.218 484.076 282.62 484.644 283.423C485.211 284.18 485.495 285.338 485.495 286.899V319.111L488.547 319.395C489.729 319.489 490.51 319.82 490.888 320.388C491.267 320.908 491.433 321.711 491.385 322.799V331.862C489.526 331.862 483.126 331.862 479.464 331.862H448.879ZM460.375 305.282C460.043 308.402 459.641 311.097 459.168 313.367C458.742 315.636 458.104 317.598 457.252 319.253H472.083V293.707H461.794L460.375 305.282Z" fill="black"/>
</svg>
