<svg width="96" height="140" viewBox="0 0 96 140" fill="none" xmlns="http://www.w3.org/2000/svg">
<path d="M93.3333 28L38.4532 69.44L9.33325 51.52L93.3333 28Z" fill="#FFA800"/>
<path d="M93.3334 28L51.8934 82.88L39.7367 81.5967L38.4534 69.44L93.3334 28Z" fill="#FFA800"/>
<path d="M93.3333 28L69.8133 112L51.8933 82.88L93.3333 28Z" fill="#FFA800"/>
<path d="M92.7033 25.753L84 28.1913V9.33333C84 4.17868 79.8213 0 74.6667 0H9.33333C4.17868 0 0 4.17868 0 9.33333V130.667C0 135.821 4.17868 140 9.33333 140H74.6667C79.8213 140 84 135.821 84 130.667V69.986L95.5804 28.63C95.8083 27.8179 95.5801 26.946 94.9837 26.3496C94.3873 25.7532 93.5154 25.5251 92.7033 25.753ZM69.0037 106.232L54.7167 83.013L87.759 39.2537L69.0037 106.232ZM82.0704 33.5743L38.3203 66.6167L15.1013 52.3297L82.0704 33.5743ZM81.3867 39.9373L50.82 80.4207L41.86 79.4663L40.9057 70.5063L81.3867 39.9373ZM59.9457 4.66667L56.952 7.85867C56.0703 8.79897 54.839 9.33271 53.55 9.33333H30.45C29.1605 9.33169 27.9289 8.79816 27.0457 7.85867L24.0543 4.66667H59.9457ZM74.6667 135.333H9.33333C6.75601 135.333 4.66667 133.244 4.66667 130.667V127.036C6.07914 127.876 7.69008 128.324 9.33333 128.333H74.6667C76.3099 128.324 77.9209 127.876 79.3333 127.036V130.667C79.3333 133.244 77.244 135.333 74.6667 135.333ZM79.3333 119C79.3333 121.577 77.244 123.667 74.6667 123.667H9.33333C6.75601 123.667 4.66667 121.577 4.66667 119V9.33333C4.66667 6.756 6.75601 4.66667 9.33333 4.66667H17.6563L23.6413 11.0483C25.4072 12.9284 27.8707 13.9964 30.45 14H53.55C56.1296 13.9978 58.5936 12.9296 60.3587 11.0483L66.3437 4.66667H74.6667C77.244 4.66667 79.3333 6.756 79.3333 9.33333V29.498L8.70333 49.273C7.81024 49.523 7.14996 50.2781 7.02142 51.1966C6.89289 52.1151 7.3205 53.0225 8.11067 53.508L36.2553 70.826L37.422 81.8323C37.538 82.9263 38.4024 83.7907 39.4963 83.9067L50.5027 85.0733L67.8207 113.218C68.2452 113.912 69.0002 114.334 69.8133 114.333C69.9219 114.334 70.0303 114.326 70.1377 114.31C71.0553 114.181 71.8099 113.522 72.0603 112.63L79.3333 86.653V119Z" fill="black"/>
<path d="M31.017 87.0172L26.3503 91.6838C25.7438 92.2697 25.5005 93.1372 25.714 93.953C25.9276 94.7688 26.5647 95.4059 27.3805 95.6195C28.1963 95.833 29.0638 95.5897 29.6497 94.9832L34.3163 90.3165C35.2006 89.401 35.188 87.9456 34.2879 87.0456C33.3879 86.1456 31.9326 86.1329 31.017 87.0172Z" fill="black"/>
<path d="M45.017 91.6837L40.3503 96.3503C39.7438 96.9362 39.5005 97.8037 39.714 98.6195C39.9276 99.4353 40.5647 100.072 41.3805 100.286C42.1963 100.5 43.0638 100.256 43.6497 99.6497L48.3163 94.983C49.2006 94.0675 49.188 92.6121 48.2879 91.7121C47.3879 90.8121 45.9326 90.7994 45.017 91.6837Z" fill="black"/>
<path d="M29.6497 73.0169C28.7385 72.106 27.2615 72.106 26.3504 73.0169L21.6837 77.6836C21.0771 78.2694 20.8339 79.137 21.0474 79.9528C21.261 80.7686 21.8981 81.4057 22.7139 81.6192C23.5297 81.8327 24.3972 81.5895 24.983 80.9829L29.6497 76.3162C30.5606 75.4051 30.5606 73.9281 29.6497 73.0169Z" fill="black"/>
</svg>
