<svg width="140" height="140" viewBox="0 0 140 140" fill="none" xmlns="http://www.w3.org/2000/svg">
<g clip-path="url(#clip0)">
<path d="M123.261 62.032V12.8862C123.261 7.48063 118.88 3.09961 113.475 3.09961H62.9959H12.5174C7.11212 3.09961 2.73083 7.48117 2.73083 12.8862V63.3647V113.843C2.73083 119.249 7.1124 123.63 12.5174 123.63H63.093C70.9322 131.809 81.9659 136.9 94.1897 136.9C117.982 136.9 137.269 117.613 137.269 93.8204C137.269 81.2341 131.87 69.9083 123.261 62.032Z" fill="#FFA800"/>
<path d="M94.1891 125.198C111.518 125.198 125.566 111.15 125.566 93.8205C125.566 76.4913 111.518 62.4432 94.1891 62.4432C76.86 62.4432 62.8119 76.4913 62.8119 93.8205C62.8119 111.15 76.86 125.198 94.1891 125.198Z" fill="white"/>
<path d="M63.093 123.63H12.5174C7.11212 123.63 2.73083 119.249 2.73083 113.844V63.3647H62.9962V64.1112L62.9989 64.114C55.6314 71.8416 51.1129 82.3033 51.1129 93.8208C51.1126 105.386 55.6716 115.891 63.093 123.63Z" fill="white"/>
<path d="M43.6138 30.5016H35.5939V22.4845C35.5939 20.9764 34.3714 19.7539 32.8634 19.7539C31.3553 19.7539 30.1328 20.9764 30.1328 22.4845V30.5016H22.1156C20.6076 30.5016 19.3851 31.7242 19.3851 33.2322C19.3851 34.7402 20.6076 35.9627 22.1156 35.9627H30.1328V43.9827C30.1328 45.4907 31.3553 46.7132 32.8634 46.7132C34.3714 46.7132 35.5939 45.4907 35.5939 43.9827V35.9627H43.6138C45.1218 35.9627 46.3444 34.7402 46.3444 33.2322C46.3444 31.7242 45.1221 30.5016 43.6138 30.5016Z" fill="black"/>
<path d="M82.3809 35.9628H103.879C105.387 35.9628 106.61 34.7403 106.61 33.2323C106.61 31.7242 105.387 30.5017 103.879 30.5017H82.3809C80.8729 30.5017 79.6504 31.7242 79.6504 33.2323C79.6504 34.7403 80.8727 35.9628 82.3809 35.9628Z" fill="black"/>
<path d="M42.3954 83.9675C41.329 82.9014 39.6001 82.9016 38.5339 83.968L32.8647 89.6372L27.1953 83.9678C26.1289 82.9014 24.3999 82.9014 23.3335 83.9678C22.2671 85.0342 22.2671 86.7631 23.3335 87.8295L29.003 93.499L23.3338 99.1682C22.2671 100.234 22.2669 101.963 23.3333 103.03C23.8665 103.563 24.5654 103.83 25.2643 103.83C25.9626 103.83 26.6615 103.563 27.1947 103.03L32.8645 97.3605L38.5339 103.03C39.0671 103.563 39.766 103.83 40.4647 103.83C41.1633 103.83 41.8625 103.563 42.3954 103.03C43.4618 101.964 43.4618 100.235 42.3954 99.1684L36.726 93.499L42.3957 87.8293C43.4624 86.7626 43.4621 85.0336 42.3954 83.9675Z" fill="black"/>
<path d="M125.992 60.8516V12.8863C125.992 5.98421 120.376 0.368896 113.474 0.368896H62.9959H12.5174C5.61531 0.368896 0 5.98448 0 12.8863V63.3648V113.843C0 120.745 5.61531 126.361 12.5174 126.361H61.9484C70.578 134.928 81.9809 139.631 94.1899 139.631C119.45 139.631 140 119.081 140 93.8208C140 81.4059 134.909 69.46 125.992 60.8516ZM120.531 12.8863V56.3432C112.856 50.9403 103.694 48.0132 94.1896 48.0132C83.6809 48.0132 73.7803 51.4957 65.7264 57.9217V5.82999H113.474C117.365 5.82999 120.531 8.9953 120.531 12.8863ZM5.46109 12.8863C5.46109 8.99558 8.62641 5.83026 12.5171 5.83026H60.2651V60.6342H5.46109V12.8863ZM5.46109 113.843V66.0953H57.7259C51.6712 74.0335 48.382 83.7058 48.382 93.8208C48.382 103.666 51.4948 113.085 57.2395 120.9H12.5174C8.62641 120.9 5.46109 117.734 5.46109 113.843ZM94.1896 134.17C83.0895 134.17 72.7461 129.756 65.0639 121.74C57.8282 114.195 53.8434 104.28 53.8434 93.8208C53.8434 83.4089 57.7968 73.5282 64.9764 65.9972C72.6646 57.9217 83.0397 53.4746 94.1896 53.4746C104.296 53.4746 113.966 57.2291 121.418 64.0467C129.756 71.6759 134.539 82.5281 134.539 93.8208C134.539 116.069 116.438 134.17 94.1896 134.17Z" fill="black"/>
<path d="M94.1896 59.7136C75.3826 59.7136 60.0824 75.0144 60.0824 93.8209C60.0824 112.627 75.3831 127.928 94.1896 127.928C112.996 127.928 128.297 112.628 128.297 93.8209C128.297 75.0141 112.996 59.7136 94.1896 59.7136ZM94.1896 122.467C78.394 122.467 65.5435 109.616 65.5435 93.8209C65.5435 78.0255 78.3942 65.1747 94.1896 65.1747C109.985 65.1747 122.836 78.0252 122.836 93.8209C122.836 109.617 109.985 122.467 94.1896 122.467Z" fill="black"/>
<path d="M104.975 91.0902H96.9202V74.6733C96.9202 73.1653 95.6977 71.9427 94.1897 71.9427C92.6816 71.9427 91.4591 73.1653 91.4591 74.6733V93.8208C91.4591 95.3288 92.6816 96.5513 94.1897 96.5513H104.975C106.483 96.5513 107.705 95.3288 107.705 93.8208C107.705 92.3127 106.483 91.0902 104.975 91.0902Z" fill="black"/>
</g>
<defs>
<clipPath id="clip0">
<rect width="140" height="140" fill="white"/>
</clipPath>
</defs>
</svg>
