<svg width="100" height="100" viewBox="0 0 100 100" fill="none" xmlns="http://www.w3.org/2000/svg">
<g clip-path="url(#clip0)">
<path d="M50.7037 27.8122L45.0786 22.1878L39.4534 27.8122L33.8283 22.1878L28.2031 27.8122V1.95312H50.7037V27.8122Z" fill="#FFA800"/>
<path d="M68.5059 39.2334H76.0254V46.4844H68.5059V39.2334Z" fill="#FFA800"/>
<path d="M79.3823 31.9824H65.1489C63.1462 31.9824 61.5234 33.606 61.5234 35.6079C61.5234 37.6099 63.1462 39.2334 65.1489 39.2334H79.3823C81.3843 39.2334 83.0078 37.6099 83.0078 35.6079C83.0078 33.606 81.3843 31.9824 79.3823 31.9824Z" fill="#FFA800"/>
<path d="M87.291 50.5996L90.6167 47.2739C91.3445 46.5461 92.5248 46.5461 93.2519 47.2739L96.1205 50.1418C96.8484 50.8696 96.8484 52.0491 96.1205 52.777L92.7949 56.1026L87.291 50.5996Z" fill="#FFA800"/>
<path d="M98.0469 72.2656C98.0469 86.5044 86.5044 98.0469 72.2656 98.0469C58.0269 98.0469 46.4844 86.5044 46.4844 72.2656C46.4844 58.0269 58.0269 46.4844 72.2656 46.4844C86.5044 46.4844 98.0469 58.0269 98.0469 72.2656Z" fill="#FFA800"/>
<path d="M90.2344 72.2656C90.2344 82.1892 82.1892 90.2344 72.2656 90.2344C62.3421 90.2344 54.2969 82.1892 54.2969 72.2656C54.2969 62.3421 62.3421 54.2969 72.2656 54.2969C82.1892 54.2969 90.2344 62.3421 90.2344 72.2656Z" fill="white"/>
<path d="M14.3008 59.2102H23.6323C24.7111 59.2102 25.5854 58.3359 25.5854 57.2571C25.5854 56.179 24.7111 55.304 23.6323 55.304H14.3008C13.222 55.304 12.3477 56.179 12.3477 57.2571C12.3477 58.3359 13.222 59.2102 14.3008 59.2102Z" fill="black"/>
<path d="M30.9588 63.3599H14.3008C13.222 63.3599 12.3477 64.2342 12.3477 65.313C12.3477 66.3918 13.222 67.2661 14.3008 67.2661H30.9588C32.0376 67.2661 32.9119 66.3918 32.9119 65.313C32.9119 64.2342 32.0376 63.3599 30.9588 63.3599Z" fill="black"/>
<path d="M72.2656 52.3438C61.2808 52.3438 52.3438 61.2808 52.3438 72.2656C52.3438 83.2504 61.2808 92.1875 72.2656 92.1875C83.2504 92.1875 92.1875 83.2504 92.1875 72.2656C92.1875 61.2808 83.2504 52.3438 72.2656 52.3438ZM72.2656 88.2812C63.4346 88.2812 56.25 81.0966 56.25 72.2656C56.25 63.4346 63.4346 56.25 72.2656 56.25C75.9789 56.25 79.3976 57.5233 82.1167 59.6519L79.4746 62.294C77.3903 60.7803 74.8909 59.9609 72.2649 59.9609C65.4808 59.9609 59.9602 65.4808 59.9602 72.2656C59.9602 73.3444 60.8353 74.2188 61.9133 74.2188C62.9921 74.2188 63.8664 73.3444 63.8664 72.2656C63.8664 67.6346 67.6346 63.8672 72.2649 63.8672C73.8419 63.8672 75.3517 64.3005 76.6609 65.1077L70.8839 70.8847C70.121 71.6476 70.121 72.8836 70.8839 73.6465C71.2654 74.028 71.7651 74.2188 72.2649 74.2188C72.7646 74.2188 73.2643 74.028 73.6458 73.6465L84.8785 62.4146C87.0079 65.1337 88.2812 68.5524 88.2812 72.2656C88.2812 81.0966 81.0966 88.2812 72.2656 88.2812Z" fill="black"/>
<path d="M95.118 56.5407L97.5006 54.158C98.9883 52.6703 98.9883 50.2487 97.5006 48.761L94.632 45.8923C93.1442 44.4046 90.7227 44.4046 89.2349 45.8923L86.6096 48.5176C83.9462 46.9025 81.0349 45.7558 77.9778 45.1187V41.1865H79.3816C82.4577 41.1865 84.9602 38.6841 84.9602 35.6079C84.9602 32.5317 82.4577 30.0293 79.3816 30.0293H78.9062V5.85938C78.9062 2.62833 76.2779 0 73.0469 0H5.85938C2.62833 0 0 2.62833 0 5.85938V73.0469C0 76.2779 2.62833 78.9062 5.85938 78.9062H45.3278C45.7909 80.7983 46.4523 82.6294 47.3007 84.375H36.0352C34.9564 84.375 34.082 85.2493 34.082 86.3281C34.082 87.4069 34.9564 88.2812 36.0352 88.2812H49.6155C50.5173 89.5508 51.5312 90.7532 52.6543 91.877C52.7596 91.9815 52.8664 92.0845 52.9732 92.1875H26.7578C25.679 92.1875 24.8047 93.0618 24.8047 94.1406C24.8047 95.2194 25.679 96.0938 26.7578 96.0938H58.0521C62.3047 98.6404 67.1806 100 72.2656 100C79.6738 100 86.6386 97.1153 91.877 91.877C97.1153 86.6386 100 79.6738 100 72.2656C100 66.5665 98.291 61.1305 95.118 56.5407ZM91.9334 48.7183L94.6747 51.4595L92.6613 53.4737C92.4049 53.1967 92.1448 52.9228 91.877 52.6543C91.2247 52.0027 90.5457 51.387 89.843 50.8087L91.9334 48.7183ZM74.0715 44.5908C73.4734 44.5526 72.8714 44.5312 72.2656 44.5312C71.6599 44.5312 71.0579 44.5526 70.4582 44.5908V41.1865H74.0715V44.5908ZM81.0547 35.6079C81.0547 36.5303 80.304 37.2803 79.3823 37.2803H65.1489C64.2265 37.2803 63.4758 36.5303 63.4758 35.6079C63.4758 34.6855 64.2265 33.9355 65.1489 33.9355H79.3823C80.304 33.9355 81.0547 34.6855 81.0547 35.6079ZM48.7503 3.90625V23.0972L46.4592 20.8061C45.6963 20.0439 44.4603 20.0439 43.6966 20.8061L39.4531 25.0504L35.2089 20.8061C34.8274 20.4247 34.3277 20.2347 33.828 20.2347C33.3282 20.2347 32.8285 20.4247 32.4471 20.8061L30.1559 23.0972V3.90625H48.7503ZM5.85938 75C4.7821 75 3.90625 74.1241 3.90625 73.0469V5.85938C3.90625 4.7821 4.7821 3.90625 5.85938 3.90625H26.2497V27.8122C26.2497 28.6026 26.7258 29.3144 27.4559 29.6173C28.1853 29.9194 29.026 29.7516 29.5845 29.1939L33.828 24.9496L38.0722 29.1939C38.8351 29.9568 40.0711 29.9568 40.834 29.1939L45.0783 24.9496L49.3225 29.1939C49.6956 29.5677 50.1953 29.7661 50.7034 29.7661C50.9552 29.7661 51.2093 29.7173 51.4511 29.6173C52.1805 29.3144 52.6566 28.6026 52.6566 27.8122V3.90625H73.0469C74.1241 3.90625 75 4.7821 75 5.85938V30.0293H65.1489C62.0728 30.0293 59.5703 32.5317 59.5703 35.6079C59.5703 38.6841 62.0728 41.1865 65.1489 41.1865H66.5527V45.1187C61.3235 46.2082 56.5193 48.79 52.655 52.6543C47.4159 57.8926 44.5312 64.8575 44.5312 72.2656C44.5312 73.185 44.5763 74.0974 44.664 75H5.85938ZM89.1144 89.1144C84.6146 93.615 78.6308 96.0938 72.2656 96.0938C65.9004 96.0938 59.9167 93.615 55.4169 89.1144C50.9163 84.6138 48.4375 78.6301 48.4375 72.2656C48.4375 65.9012 50.9163 59.9174 55.4169 55.4169C59.9167 50.9163 65.9004 48.4375 72.2656 48.4375C78.6308 48.4375 84.6146 50.9163 89.1144 55.4169C93.615 59.9174 96.0938 65.9012 96.0938 72.2656C96.0938 78.6301 93.615 84.6138 89.1144 89.1144Z" fill="black"/>
</g>
<defs>
<clipPath id="clip0">
<rect width="100" height="100" fill="white"/>
</clipPath>
</defs>
</svg>
