<svg width="100" height="100" viewBox="0 0 100 100" fill="none" xmlns="http://www.w3.org/2000/svg">
<path d="M71.1914 85.7422H63.0859C60.9283 85.7422 59.1797 87.4908 59.1797 89.6484V97.7539" fill="#FF7480"/>
<path d="M24.1539 6.62842H5.85938C3.70178 6.62842 1.95312 8.37708 1.95312 10.5347V94.1406C1.95312 96.2982 3.70178 98.0469 5.85938 98.0469H59.1797L71.4844 85.7422V10.5347C71.4844 8.37708 69.7357 6.62842 67.5781 6.62842H24.1539Z" fill="white"/>
<path d="M48.2605 41.2978L36.7279 47.6309L25.1953 41.2978V28.633L36.7279 22.2998L48.2605 28.633V41.2978Z" fill="#FFA800"/>
<path d="M25.1953 28.6366V41.2976L36.7279 47.6308L36.7348 47.627V34.9652L25.2022 28.6328L25.1953 28.6366Z" fill="#FFA800"/>
<path d="M25.1953 28.633L36.7279 34.9654L48.2605 28.633L36.7279 22.2998L25.1953 28.633Z" fill="#FFA800"/>
<path d="M98.0469 81.626H87.1094L92.5781 98.046L98.0469 81.626Z" fill="#FFA800"/>
<path d="M98.0469 13.1996V7.42188C98.0469 4.4014 95.5986 1.95312 92.5781 1.95312C89.5576 1.95312 87.1094 4.4014 87.1094 7.42188V13.1996H98.0469Z" fill="#FFA800"/>
<path d="M67.5781 4.67529H53.3531V1.95312C53.3531 0.874328 52.4788 0 51.4 0H22.0375C20.9587 0 20.0844 0.874328 20.0844 1.95312V4.67529H5.85938C2.62833 4.67529 0 7.30362 0 10.5347V94.1406C0 97.3717 2.62833 100 5.85938 100H39.0865C40.1653 100 41.0397 99.1257 41.0397 98.0469C41.0397 96.9681 40.1653 96.0938 39.0865 96.0938H5.85938C4.7821 96.0938 3.90625 95.2179 3.90625 94.1406V10.5347C3.90625 9.45816 4.7821 8.58154 5.85938 8.58154H20.0844V8.74023C20.0844 12.1056 22.8226 14.8438 26.1879 14.8438H47.2488C50.6149 14.8438 53.3524 12.1056 53.3524 8.74023V8.58154H67.5781C68.6554 8.58154 69.5312 9.45816 69.5312 10.5347V83.7891H63.0859C59.8549 83.7891 57.2266 86.4174 57.2266 89.6484V96.0938H38.7123C37.6335 96.0938 36.7592 96.9681 36.7592 98.0469C36.7592 99.1257 37.6335 100 38.7123 100H59.1797C59.6977 100 60.1944 99.794 60.5606 99.4278L72.8653 87.1231C73.2315 86.7569 73.4375 86.2602 73.4375 85.7422V10.5347C73.4375 7.30362 70.8092 4.67529 67.5781 4.67529ZM49.4469 8.74023C49.4469 9.95178 48.4612 10.9375 47.2496 10.9375H26.1879C24.9763 10.9375 23.9906 9.95178 23.9906 8.74023V3.90625H49.4461L49.4469 8.74023ZM63.0859 87.6953H66.7694L61.1328 93.3319V89.6484C61.1328 88.5712 62.0087 87.6953 63.0859 87.6953Z" fill="black"/>
<path d="M18.3536 61.6222C17.5906 60.8593 16.3547 60.8593 15.5917 61.6222C14.8288 62.3844 14.8288 63.6211 15.5917 64.384L18.7869 67.58C19.1684 67.9615 19.6681 68.1522 20.1678 68.1522C20.6676 68.1522 21.1681 67.9615 21.5488 67.58L28.9806 60.1482C29.7435 59.3853 29.7435 58.1485 28.9806 57.3856C28.2176 56.6234 26.9809 56.6234 26.2187 57.3856L20.1678 63.4365L18.3536 61.6222Z" fill="black"/>
<path d="M36.6406 68.1274H46.5588C47.6376 68.1274 48.512 67.2531 48.512 66.1743C48.512 65.0955 47.6376 64.2212 46.5588 64.2212H36.6406C35.5618 64.2212 34.6875 65.0955 34.6875 66.1743C34.6875 67.2531 35.5618 68.1274 36.6406 68.1274Z" fill="black"/>
<path d="M56.4771 56.4087H36.6406C35.5618 56.4087 34.6875 57.283 34.6875 58.3618C34.6875 59.4406 35.5618 60.3149 36.6406 60.3149H56.4771C57.5558 60.3149 58.4302 59.4406 58.4302 58.3618C58.4302 57.283 57.5558 56.4087 56.4771 56.4087Z" fill="black"/>
<path d="M15.5762 82.5481L18.7714 85.744C19.1529 86.1255 19.6526 86.3163 20.1523 86.3163C20.6528 86.3163 21.1525 86.1255 21.534 85.744L28.965 78.3123C29.728 77.5493 29.728 76.3126 28.965 75.5497C28.2029 74.7875 26.9661 74.7875 26.2032 75.5497L20.1523 81.6005L18.338 79.7863C17.5751 79.0233 16.3384 79.0233 15.5754 79.7863C14.8133 80.5492 14.8133 81.7859 15.5762 82.5481Z" fill="black"/>
<path d="M48.512 84.3384C48.512 83.2596 47.6376 82.3853 46.5588 82.3853H36.6406C35.5618 82.3853 34.6875 83.2596 34.6875 84.3384C34.6875 85.4172 35.5618 86.2915 36.6406 86.2915H46.5588C47.6376 86.2915 48.512 85.4172 48.512 84.3384Z" fill="black"/>
<path d="M36.6406 78.479H56.4771C57.5558 78.479 58.4302 77.6047 58.4302 76.5259C58.4302 75.4471 57.5558 74.5728 56.4771 74.5728H36.6406C35.5618 74.5728 34.6875 75.4471 34.6875 76.5259C34.6875 77.6047 35.5618 78.479 36.6406 78.479Z" fill="black"/>
<path d="M49.2004 26.9207L37.6678 20.5876C37.0827 20.2664 36.3731 20.2664 35.788 20.5876L24.2554 26.9207C24.1768 26.9635 24.1028 27.0115 24.0326 27.0634C23.5397 27.4289 23.2422 28.0087 23.2422 28.6328V41.2976C23.2422 42.0109 23.6305 42.667 24.2554 43.0104L35.788 49.3428C36.0809 49.503 36.4044 49.5839 36.7279 49.5839C37.0514 49.5839 37.3749 49.503 37.6678 49.3428L49.2004 43.0104C49.8253 42.667 50.2136 42.0109 50.2136 41.2976V28.6328C50.2136 27.9194 49.8253 27.2633 49.2004 26.9207ZM36.7317 32.7351L29.2564 28.6305L36.7279 24.5282L44.2024 28.6328L36.7317 32.7351ZM27.1484 31.9333L34.7816 36.1248V44.3333L27.1484 40.1425V31.9333ZM38.6879 44.3257V36.1172L46.3074 31.9333V40.1417L38.6879 44.3257Z" fill="black"/>
<path d="M98.0469 0H87.1094C86.0306 0 85.1562 0.874328 85.1562 1.95312V11.2465H83.6784C80.1857 11.2465 77.3438 14.0884 77.3438 17.5819V39.7491C77.3438 40.8279 78.2181 41.7023 79.2969 41.7023C80.3757 41.7023 81.25 40.8279 81.25 39.7491V17.5819C81.25 16.2422 82.3395 15.1535 83.6784 15.1535H85.1562V81.6269C85.1562 81.8367 85.1898 82.045 85.2562 82.2441L90.7249 98.6641C90.9904 99.4614 91.7374 100 92.5781 100C93.4189 100 94.1658 99.4614 94.4313 98.6641L99.9001 82.2441C99.9664 82.045 100 81.8367 100 81.6269V55.2406C100 54.1618 99.1257 53.2875 98.0469 53.2875C96.9681 53.2875 96.0938 54.1618 96.0938 55.2406V79.6738H89.0625V15.1527H96.0938V55.6156C96.0938 56.6944 96.9681 57.5688 98.0469 57.5688C99.1257 57.5688 100 56.6944 100 55.6156V1.95312C100 0.874328 99.1257 0 98.0469 0ZM92.5781 91.8663L89.8186 83.58H95.3377L92.5781 91.8663ZM89.0625 11.2465V3.90625H96.0938V11.2465H89.0625Z" fill="black"/>
</svg>
