<svg width="172" height="32" viewBox="0 0 172 32" fill="none" xmlns="http://www.w3.org/2000/svg">
<path fill-rule="evenodd" clip-rule="evenodd" d="M153.239 0.251832C146.214 1.52409 140.951 7.1743 140.139 14.3135C138.956 24.724 148.33 33.5652 158.643 31.766C167.377 30.2425 173.268 21.9837 171.766 13.369C170.237 4.595 161.889 -1.31497 153.239 0.251832ZM8.49821 1.03351C7.33851 1.14444 6.61498 1.51186 6.39096 2.1032C6.31227 2.31145 6.03556 3.47794 5.77642 4.69559C5.22868 7.26817 5.28706 7.60768 6.32604 7.89638C7.17511 8.13219 9.03629 8.10859 9.88915 7.85108C10.6368 7.62525 11.1156 7.06853 11.2854 6.22829L11.3984 5.66847H10.1843H8.97017L8.82881 6.21416C8.66919 6.83031 8.20325 7.22098 7.94358 6.95657C7.83769 6.84874 7.86197 6.41587 8.01091 5.7546C8.13902 5.18616 8.37406 4.12044 8.53333 3.38613C8.80091 2.15194 8.8555 2.05118 9.25549 2.05118C9.63827 2.05118 9.67942 2.11078 9.61244 2.56793L9.5365 3.08469H10.7981H12.0598V2.31558C12.0598 1.69599 11.9845 1.50514 11.6723 1.33375C11.1391 1.04092 9.77188 0.911557 8.49821 1.03351ZM12.3328 4.16144C11.9623 5.89033 11.6239 7.47918 11.5811 7.69243C11.5053 8.0688 11.5432 8.08 12.8969 8.08H14.2908L15.5304 6.53145C16.2121 5.67984 16.7974 5.01047 16.8309 5.04423C16.8647 5.07799 16.7431 5.77475 16.5609 6.59277L16.2297 8.08L17.3733 8.07983L18.5168 8.07965L19.1763 4.93623C19.5389 3.20733 19.8766 1.61848 19.9267 1.40523C20.013 1.03816 19.966 1.01766 19.0436 1.01766C18.5077 1.01766 17.8601 1.12963 17.6042 1.26622C17.3485 1.40299 16.5969 2.17434 15.934 2.9803C15.2711 3.78627 14.7061 4.34644 14.6786 4.22517C14.6512 4.1039 14.7783 3.33256 14.9613 2.51109L15.294 1.01766L14.1503 1.01784H13.0068L12.3328 4.16144ZM21.8645 1.18096C21.1574 1.39559 20.6899 1.69082 20.5027 2.0405C20.1767 2.64992 19.3408 6.96691 19.4773 7.33604C19.6672 7.8497 20.5111 8.08 22.2015 8.07965C24.3652 8.07931 25.0294 7.674 25.3885 6.13458L25.5008 5.65314L24.2693 5.70395L23.0378 5.7546L22.8436 6.35748C22.7086 6.77639 22.5311 6.97724 22.2619 7.01548C22.0283 7.04855 21.8742 6.98017 21.8738 6.84323C21.8719 6.25206 22.8024 2.45373 23.0006 2.24289C23.3469 1.87479 23.7407 2.11922 23.6412 2.64045C23.5563 3.08417 23.5577 3.08469 24.7783 3.08469C25.9476 3.08469 26.0053 3.06557 26.1117 2.64131C26.2848 1.95179 25.9392 1.4073 25.1976 1.20128C24.4508 0.993893 22.5197 0.98218 21.8645 1.18096ZM26.9677 1.22333C26.671 2.18932 26.6887 2.22343 27.4868 2.22343C27.904 2.22343 28.2455 2.25771 28.2455 2.29956C28.2455 2.34159 27.9743 3.62504 27.6428 5.15171C27.3114 6.67838 27.0402 7.96183 27.0402 8.00386C27.0402 8.04572 27.6494 8.08 28.3941 8.08H29.7482L30.3032 5.45315C30.6084 4.0083 30.8955 2.69075 30.9409 2.52487C31.0038 2.29577 31.2063 2.22343 31.7836 2.22343C32.4545 2.22343 32.5566 2.17193 32.6537 1.7847C32.7143 1.54355 32.7351 1.32134 32.7 1.29103C32.6651 1.26071 31.3764 1.18251 29.8365 1.11723C27.6027 1.02232 27.0228 1.04385 26.9677 1.22333ZM35.0347 1.19078C33.9864 1.34236 33.4864 1.58868 33.2212 2.08442C32.9144 2.65785 32.0145 6.91557 32.1134 7.32605C32.2504 7.89534 33.1441 8.16647 34.8748 8.16371C37.102 8.16027 37.6775 7.80422 38.0362 6.20762L38.1958 5.49622H36.9419H35.688L35.5673 6.14216C35.4282 6.88681 35.2007 7.21874 34.8297 7.21874C34.6173 7.21874 34.5877 7.05699 34.6709 6.35334C34.7274 5.87741 34.8202 5.41233 34.8773 5.31983C34.9345 5.22733 35.709 5.15171 36.5987 5.15171H38.2163L38.401 4.50577C38.5026 4.15058 38.633 3.38286 38.6908 2.79978C38.7936 1.7611 38.7857 1.73458 38.2989 1.48877C37.662 1.16701 36.1521 1.02921 35.0347 1.19078ZM39.6993 1.40523C39.4915 2.02689 38.2788 8.0061 38.3463 8.07621C38.39 8.12134 38.8615 8.1601 39.3942 8.16233L40.3629 8.16612L40.8724 5.79404C41.1528 4.4894 41.4016 3.44297 41.4255 3.46864C41.4632 3.50895 42.0206 7.90309 42.0206 8.15889C42.0206 8.21022 42.4463 8.25225 42.9664 8.25225H43.9123L45.1098 5.88378C45.7685 4.58121 46.3114 3.56717 46.3164 3.63073C46.3212 3.69412 46.1316 4.64236 45.8949 5.73789C45.6581 6.83341 45.4644 7.84729 45.4644 7.99094C45.4644 8.19868 45.7025 8.25225 46.6267 8.25208H47.7889L48.4506 5.10848C48.8145 3.37958 49.1523 1.79073 49.201 1.57748C49.287 1.20284 49.2479 1.18992 48.0341 1.18992C47.1217 1.18992 46.5798 1.28603 46.0521 1.54165C45.3006 1.90545 45.1295 2.17261 44.0693 4.63496C43.666 5.57132 43.66 5.57631 43.5502 5.06559C43.4889 4.78137 43.4296 4.11476 43.4184 3.58405C43.3917 2.32006 43.1359 1.62709 42.6066 1.38594C42.0072 1.11275 39.7923 1.12739 39.6993 1.40523ZM51.1215 1.38301C50.2793 1.62072 49.7608 2.21275 49.6462 3.06781L49.5516 3.7737L50.3921 3.77111C51.4002 3.76784 51.6446 3.63279 51.9989 2.88195C52.1716 2.51574 52.3926 2.30955 52.6118 2.30955C52.9 2.30955 52.9451 2.4055 52.8955 2.91244C52.8632 3.24402 52.7647 3.60282 52.6767 3.70962C52.5889 3.81642 51.923 4.11476 51.1971 4.37262C49.1184 5.11072 49.1062 5.12381 48.6645 7.08696C48.5879 7.42768 48.6533 7.65281 48.9013 7.90086C49.2121 8.21177 49.476 8.24346 51.7432 8.24157C54.1807 8.2395 54.2448 8.23003 54.3302 7.85831C54.8352 5.65865 55.4513 2.59325 55.4513 2.27993C55.4513 1.62589 54.7321 1.30446 53.1514 1.2521C52.3803 1.22661 51.4667 1.28552 51.1215 1.38301ZM155.631 2.08563C155.988 2.44253 155.867 2.52005 154.763 2.64493C153.91 2.74156 153.753 2.80254 154.001 2.9412C154.172 3.03715 154.495 3.07005 154.717 3.01424C155.331 2.86007 155.626 3.04128 155.535 3.51704C155.467 3.86999 155.574 3.99005 156.249 4.31784C156.686 4.53006 157.043 4.81462 157.043 4.95035C157.043 5.26282 155.914 6.33664 155.368 6.54472C155.14 6.63119 154.63 6.70301 154.233 6.70422C153.774 6.7056 153.138 6.89697 152.48 7.23183L151.447 7.7572L151.39 7.20065C151.352 6.82204 151.424 6.59398 151.615 6.48718C151.769 6.40088 152.143 6.10788 152.446 5.83624C152.748 5.56443 153.19 5.18858 153.427 5.00082C153.778 4.72246 153.816 4.61808 153.636 4.43497C153.456 4.25101 153.276 4.28494 152.637 4.62393C152.209 4.85131 151.781 5.18151 151.687 5.35773C151.593 5.53394 151.452 5.63901 151.375 5.5913C151.298 5.54341 151.096 5.65762 150.926 5.84485C150.757 6.03209 150.443 6.18523 150.229 6.18523C149.581 6.18523 149.26 6.36661 149.466 6.61534C149.604 6.78173 149.382 6.9483 148.525 7.32209L147.403 7.81094L147.856 8.17267C148.308 8.53268 148.308 8.53664 147.994 9.01705C147.691 9.47937 147.632 9.49608 146.602 9.4134C145.643 9.3364 145.487 9.36965 145.156 9.72242C144.952 9.93998 144.616 10.1603 144.41 10.212C143.927 10.3332 143.236 11.7295 142.829 13.4062C142.567 14.4828 142.551 14.8233 142.722 15.6512C142.832 16.1881 142.923 16.8726 142.923 17.1725C142.923 17.4724 143.078 17.9716 143.267 18.2818C143.463 18.6039 143.611 19.1505 143.611 19.5561C143.612 20.1483 143.729 20.3915 144.314 21.0203C145.83 22.6494 145.935 22.8439 145.724 23.6406C145.619 24.035 145.578 24.5824 145.631 24.8572C145.766 25.5507 145.503 25.346 144.558 24.0214C143.537 22.5898 142.825 20.9927 142.383 19.1401C141.877 17.0235 141.991 13.7784 142.64 11.7834C143.964 7.71844 147.024 4.43566 150.994 2.82166C152.939 2.03102 155.215 1.66981 155.631 2.08563ZM159.14 2.15608C164.987 3.48655 169.422 8.39591 170.153 14.3481C170.379 16.1876 170.23 18.2429 169.871 18.2429C169.744 18.2429 169.588 18.0048 169.524 17.7139C169.444 17.3485 169.331 17.2145 169.159 17.2805C169.022 17.333 168.768 17.2876 168.595 17.1794C168.422 17.0712 168.174 17.0376 168.042 17.1048C167.912 17.172 167.533 17.3708 167.202 17.5466C166.65 17.8393 166.573 17.8432 166.294 17.5937C165.918 17.2578 165.566 17.5261 165.724 18.0272C165.863 18.4623 166.5 18.7474 167.085 18.6354C167.48 18.5598 167.546 18.6055 167.546 18.9548C167.545 19.4082 166.978 20.451 166.551 20.7836C165.949 21.2531 165.282 21.0447 164.408 20.1134C163.951 19.6262 163.533 19.2717 163.48 19.3253C163.269 19.5365 163.862 20.7779 164.495 21.4499C165.122 22.1158 165.209 22.154 165.924 22.0734C166.596 21.9976 166.685 22.0274 166.685 22.3278C166.685 22.8291 166.051 23.3264 165.487 23.2671C165.025 23.2187 165.001 23.2545 164.89 24.1472C164.786 24.9798 164.714 25.1057 164.212 25.3455C163.704 25.5879 163.658 25.6724 163.724 26.2386C163.79 26.8066 163.721 26.9311 162.974 27.5918C162.521 27.9922 161.873 28.4288 161.534 28.5625C161.195 28.696 160.611 29.0255 160.237 29.2946C159.691 29.688 159.375 29.7838 158.626 29.7838C157.849 29.7838 157.586 29.6975 157.034 29.2605L156.374 28.7372L156.62 28.0392C156.791 27.5531 156.815 27.2449 156.696 27.0236C156.603 26.8489 156.526 26.436 156.526 26.1062C156.526 25.6073 156.404 25.4098 155.801 24.9321C155.131 24.4007 154.957 24.3501 153.469 24.2531C152.039 24.1599 151.808 24.0977 151.384 23.6915C151.122 23.4402 150.57 23.1369 150.157 23.0174C149.184 22.7355 148.907 22.102 149.453 21.408C149.65 21.1574 149.811 20.7727 149.811 20.5531C149.811 19.8069 150.182 19.3074 150.996 18.957C151.433 18.7688 151.985 18.4048 152.222 18.1481C152.458 17.8916 152.904 17.5744 153.212 17.4433C153.973 17.1188 153.915 16.8311 152.997 16.3851L152.223 16.0089L152.566 15.4465C152.755 15.137 152.909 14.7007 152.909 14.4768C152.91 14.0919 152.953 14.0761 153.686 14.1862C154.558 14.3169 154.755 14.1267 154.49 13.4095C154.38 13.1118 154.41 12.8772 154.593 12.5971C154.899 12.1303 154.833 12.0392 154.081 11.8863C153.658 11.8003 153.498 11.667 153.455 11.3654C153.406 11.0284 153.457 10.9761 153.756 11.0543C154.08 11.139 154.115 11.0741 154.115 10.3925C154.115 9.73482 154.17 9.6232 154.536 9.53122C155.049 9.40255 155.348 9.56378 155.307 9.94704C155.239 10.577 155.536 11.3528 155.845 11.3528C156.015 11.3528 156.272 11.3983 156.417 11.4541C156.603 11.5256 156.759 11.3679 156.947 10.9189C157.188 10.3412 157.187 10.2392 156.935 9.81165C156.666 9.35742 156.675 9.3147 157.183 8.61415C157.472 8.2147 157.758 7.66332 157.818 7.38875C157.95 6.78862 158.158 6.71404 159.686 6.71938C160.999 6.72403 160.919 6.75107 161.072 6.25223C161.162 5.95665 161.005 5.75132 160.229 5.15223C159.36 4.48183 159.283 4.36745 159.366 3.87929C159.452 3.37838 159.404 3.31757 158.638 2.95481C158.187 2.74139 157.566 2.5185 157.258 2.45959C156.95 2.40068 156.698 2.24617 156.698 2.11577C156.698 1.79418 157.615 1.80916 159.14 2.15608ZM36.3373 2.52487C36.3368 2.69075 36.2557 3.11707 36.1571 3.47226C36.011 3.99849 35.8981 4.1182 35.5477 4.1182C35.1446 4.1182 35.1248 4.07738 35.234 3.47226C35.3975 2.56638 35.6079 2.22343 36 2.22343C36.2079 2.22343 36.338 2.3397 36.3373 2.52487ZM52.3519 5.41991C52.3519 5.56753 52.2653 6.03261 52.1593 6.45342C51.9957 7.10333 51.9018 7.21874 51.5366 7.21874C51.1745 7.21874 51.1228 7.15742 51.2103 6.83117C51.2673 6.61809 51.3152 6.30787 51.3164 6.14216C51.319 5.81678 51.8987 5.15171 52.1797 5.15171C52.2744 5.15171 52.3519 5.27246 52.3519 5.41991ZM52.0076 10.5883C51.2973 10.8345 50.2845 11.298 49.757 11.6186C48.5626 12.3444 47.0981 13.874 46.6723 14.8407C46.2136 15.882 44.4312 23.588 44.4312 24.5297C44.4312 26.3826 45.7051 27.695 48.1333 28.3439C49.4211 28.6881 57.4415 28.6688 58.7864 28.3182C60.9474 27.7551 63.0703 26.2805 63.9626 24.7225C64.4093 23.9427 66.2999 15.6803 66.2982 14.5155C66.2958 12.7678 65.2704 11.3087 63.5712 10.6347C62.6612 10.2736 62.2912 10.2447 57.9481 10.1947C53.3231 10.1413 53.2923 10.1434 52.0076 10.5883ZM8.20393 10.9177C6.08153 11.667 4.04988 13.3407 3.191 15.0474C2.90086 15.6241 2.32024 17.8923 1.46911 21.774C0.762969 24.9951 0.143433 27.8049 0.0924654 28.0182L0 28.4057H3.3322H6.66439L7.05423 26.554C8.09391 21.6138 9.83904 14.2089 10.0128 13.9994C10.17 13.81 11.2541 13.7643 15.6041 13.7643H21.0003L21.1684 13.1184C21.2607 12.7632 21.4501 12.0266 21.589 11.482L21.8418 10.4915L15.6163 10.4951C9.46677 10.4988 9.37637 10.5039 8.20393 10.9177ZM28.1088 10.7597C26.5942 11.1674 25.3007 11.8987 24.1068 13.0221C22.4126 14.6161 22.1919 15.1394 21.0964 20.1569C20.5714 22.5621 20.0645 24.7705 19.9699 25.0646C19.7766 25.6664 19.209 25.9942 18.3603 25.9942C17.8043 25.9942 17.7845 26.0194 17.5936 26.9704C17.2704 28.5804 16.9916 28.4507 20.6261 28.3809C23.8015 28.3201 23.8683 28.3112 24.6764 27.8361C26.0909 27.0048 26.2221 26.6722 27.652 20.2932C28.3612 17.1287 29.0157 14.365 29.1064 14.1519C29.2688 13.7698 29.3167 13.7643 32.4605 13.7643C34.2144 13.7643 35.6496 13.8236 35.6496 13.8961C35.6496 13.9686 34.9523 17.2035 34.0999 21.085C33.2476 24.9666 32.5502 28.2032 32.5502 28.2778C32.5502 28.3522 34.0395 28.3921 35.8595 28.3665L39.1688 28.3196L41.1042 19.4486C42.1689 14.5696 43.0429 10.5584 43.0468 10.5346C43.0506 10.5108 39.8961 10.4967 36.037 10.5029C30.5337 10.5117 28.8237 10.5671 28.1088 10.7597ZM75.7696 10.8836C74.3038 11.3853 73.1312 12.0862 72.0529 13.1053C70.5624 14.514 70.3861 14.9999 68.8736 21.866C68.1206 25.2847 67.5045 28.1546 67.5045 28.2438C67.5045 28.4495 79.3578 28.4498 81.659 28.244C83.9436 28.0399 85.3574 27.5428 86.4501 26.5601C87.4976 25.6178 88.0635 24.5618 88.5364 22.6668C89.2571 19.7782 88.7482 18.0305 86.9276 17.1425C85.5618 16.4764 84.5202 16.3481 80.4814 16.3481C78.4582 16.3481 76.8027 16.3131 76.8027 16.2704C76.8027 16.2277 76.889 15.7821 76.9944 15.28C77.3312 13.6749 76.9725 13.7643 83.0797 13.7643H88.4425L88.8214 12.3189C89.0299 11.524 89.2003 10.7876 89.2003 10.6826C89.2003 10.5461 87.4399 10.4927 83.0446 10.496C77.1385 10.5003 76.8434 10.516 75.7696 10.8836ZM94.2837 10.7068C93.9488 11.7168 92.8163 17.2057 92.8163 17.8195C92.8163 19.8426 94.6916 21.438 97.5568 21.8521C98.2168 21.9475 100.142 22.0271 101.835 22.029L104.914 22.0324L104.801 22.7335C104.652 23.6676 104.264 24.2221 103.479 24.6226C102.904 24.9161 102.283 24.9669 98.01 25.0704L93.1893 25.1872L92.8237 26.646C92.6224 27.4482 92.4814 28.1282 92.5103 28.157C92.5391 28.1858 95.3511 28.2257 98.759 28.2457C104.726 28.2807 104.991 28.2685 105.903 27.9136C108.172 27.0305 110.194 25.4208 110.959 23.8879C111.266 23.2721 111.832 21.0671 112.717 17.0371C113.435 13.7686 114.06 10.9571 114.107 10.7892C114.188 10.5036 113.981 10.487 110.87 10.5308L107.547 10.5777L106.67 14.4533C106.188 16.5849 105.739 18.5421 105.673 18.8027L105.552 19.2764H102.733C100.221 19.2764 99.8704 19.2407 99.5105 18.9493L99.1067 18.6222L99.6935 16.0641C100.434 12.8348 100.48 12.4127 100.171 11.6716C99.7689 10.7096 99.096 10.4915 96.5299 10.4915C94.943 10.4915 94.3359 10.5497 94.2837 10.7068ZM122.644 10.7337C120.333 11.3116 117.825 13.2126 117.021 14.9957C116.652 15.8133 114.855 23.4902 114.857 24.2376C114.862 25.5446 116.015 27.0784 117.486 27.7345C118.325 28.1083 118.681 28.1429 122.691 28.2407C125.059 28.2986 127.499 28.2819 128.115 28.2037C131.062 27.8292 134.491 25.0356 134.927 22.6544L135.05 21.9845L131.97 22.1118C130.276 22.1819 128.766 22.3056 128.614 22.3867C128.455 22.4718 128.243 22.9795 128.115 23.5832C127.797 25.0794 127.681 25.1329 124.73 25.1329C122.085 25.1329 121.4 24.9939 121.4 24.4577C121.4 24.1883 122.175 20.6665 123.552 14.6807C123.748 13.8301 123.989 13.7643 126.912 13.7643C129.456 13.7643 129.662 13.7883 129.888 14.1111C130.08 14.3856 130.094 14.6421 129.956 15.342C129.697 16.6549 129.792 16.6926 133.376 16.6926H136.333L136.443 15.8934C136.799 13.2915 136.05 11.7955 133.978 10.9721C133.086 10.6173 132.71 10.5894 128.287 10.5494C124.819 10.5181 123.309 10.5675 122.644 10.7337ZM165.222 12.0418C165.163 12.1365 165.152 12.214 165.197 12.214C165.243 12.214 165.403 12.2614 165.554 12.3193C165.755 12.3965 165.8 12.3503 165.722 12.147C165.601 11.8329 165.38 11.7862 165.222 12.0418ZM164.217 12.8457C164.006 13.0569 164.099 13.3893 164.507 13.8802C164.729 14.1481 164.963 14.5803 165.027 14.8409C165.152 15.3561 165.337 15.4362 165.618 15.0974C165.75 14.9386 165.622 14.612 165.143 13.8833C164.366 12.7007 164.364 12.6989 164.217 12.8457ZM59.423 13.5981C59.9384 13.874 59.848 14.5994 58.6525 19.7828C57.2807 25.7296 57.6324 25.3052 54.0766 25.3052C51.9779 25.3052 51.4667 25.2563 51.2449 25.0346C51.0962 24.8856 50.9744 24.6636 50.9744 24.5413C50.9744 24.334 53.1132 15.0919 53.3217 14.3984C53.3734 14.2261 53.6607 13.9357 53.96 13.7531C54.4253 13.4692 54.837 13.421 56.7972 13.4205C58.0581 13.4202 59.2398 13.5001 59.423 13.5981ZM160.749 14.3848C160.403 14.9134 160.585 15.3845 161.07 15.2161C161.27 15.1466 161.768 15.0729 162.177 15.0522C163.097 15.0059 163.305 14.8161 162.928 14.3667C162.487 13.8408 161.098 13.8523 160.749 14.3848ZM157.828 14.7806C157.767 14.8798 157.881 15.0986 158.082 15.2669C158.534 15.6453 159.013 16.5203 158.769 16.5203C158.672 16.5203 158.592 16.6366 158.592 16.7787C158.592 16.9208 158.475 17.0371 158.331 17.0371C158.147 17.0371 158.097 16.9215 158.161 16.6495C158.297 16.0723 157.041 15.0626 156.389 15.2252C155.774 15.3787 154.804 15.984 154.804 16.2139C154.804 16.3142 154.669 16.4954 154.503 16.6165C154.099 16.9117 154.212 16.9903 155.59 17.3725C156.381 17.5919 156.868 17.6474 157.067 17.5408C157.536 17.29 157.616 17.3358 158.125 18.1409C158.388 18.5583 158.8 19.0285 159.041 19.1861C159.462 19.4626 159.493 19.4564 159.905 19.0116C160.208 18.6842 160.442 18.5784 160.711 18.6468C160.919 18.6999 161.286 18.7917 161.527 18.8507C162.275 19.0345 163.12 18.0076 162.731 17.3876C162.63 17.2271 162.328 17.1451 161.9 17.1622C161.285 17.1868 161.195 17.1306 160.844 16.5078C160.634 16.133 160.392 15.8692 160.308 15.9216C160.064 16.072 160.338 17.0996 160.687 17.3484C161.143 17.6729 161.076 17.8984 160.524 17.8984C160.173 17.8984 159.962 17.759 159.739 17.3813C159.571 17.0969 159.474 16.7982 159.524 16.7176C159.574 16.637 159.503 16.4241 159.367 16.2442C159.231 16.0646 159.117 15.7819 159.114 15.616C159.111 15.4343 158.976 15.3146 158.774 15.3146C158.59 15.3146 158.327 15.1539 158.19 14.9575C158.038 14.7413 157.896 14.6714 157.828 14.7806ZM82.0318 18.9529C82.2649 19.0592 82.492 19.2848 82.5363 19.4541C82.6258 19.7964 81.7583 23.5265 81.4594 24.0855C81.0663 24.8201 80.3228 25.012 77.5345 25.098C75.3045 25.1669 74.9087 25.141 74.9087 24.9264C74.9087 24.6737 76.0566 19.382 76.1997 18.9749C76.2998 18.6904 81.4134 18.6711 82.0318 18.9529Z" fill="#006CB8"/>
</svg>
