<svg width="100" height="100" viewBox="0 0 100 100" fill="none" xmlns="http://www.w3.org/2000/svg">
<path d="M60.5469 64.4687V51.1094H86.3281C92.8001 51.1094 98.0469 56.3561 98.0469 62.8281V82.3594C98.0469 84.517 96.5 86.2656 91 86.2656L86.3281 74.9687L79 70.4687L70 72.4687L64 77.9687L62.5 86.2656H53.9062H40C42 79.9688 39 66.9687 39 66.9687H57.5L60.5469 64.4687Z" fill="#FFA800"/>
<path d="M76.5625 80.4062C74.4041 80.4062 72.6562 82.1541 72.6562 84.3125C72.6562 86.4709 74.4041 88.2188 76.5625 88.2188C78.7209 88.2188 80.4688 86.4709 80.4688 84.3125C80.4688 82.1541 78.7209 80.4062 76.5625 80.4062Z" fill="#EDE9E8"/>
<path d="M78.5156 31.5781V39.3906H86.3281V31.5781C86.3281 29.4198 84.5802 27.6719 82.4219 27.6719C80.2658 27.6719 78.5156 29.4221 78.5156 31.5781Z" fill="#FFA800"/>
<path d="M47 15.9687L9.99996 15.9687L9.99996 23.9687L41 23.9687C49.288 23.9687 56.5 23.9687 56.5 23.9687C56.5 21.7609 55.2793 15.9687 47 15.9687Z" fill="#FFA800"/>
<path d="M37.1094 37.4375C38.1874 37.4375 39.0625 38.3126 39.0625 39.3906C39.0625 40.4687 38.1874 41.3438 37.1094 41.3438C36.0313 41.3438 35.1562 40.4687 35.1562 39.3906C35.1562 38.3126 36.0313 37.4375 37.1094 37.4375Z" fill="black"/>
<path d="M76.5625 78.4531C79.7935 78.4531 82.4219 81.0815 82.4219 84.3125C82.4219 87.5435 79.7935 90.1719 76.5625 90.1719C73.3315 90.1719 70.7031 87.5435 70.7031 84.3125C70.7031 81.0815 73.3315 78.4531 76.5625 78.4531ZM76.5625 86.2656C77.6398 86.2656 78.5156 85.3898 78.5156 84.3125C78.5156 83.2352 77.6398 82.3594 76.5625 82.3594C75.4852 82.3594 74.6094 83.2352 74.6094 84.3125C74.6094 85.3898 75.4852 86.2656 76.5625 86.2656Z" fill="black"/>
<path d="M52.047 53.0625H17.5781C16.4994 53.0625 15.625 52.1882 15.625 51.1094V31.5781C15.625 30.4993 16.4994 29.625 17.5781 29.625H43.676C44.4573 29.625 45.163 30.0904 45.4712 30.8091L53.8422 50.3403C54.1008 50.9438 54.039 51.6366 53.6774 52.1844C53.3157 52.7329 52.7031 53.0625 52.047 53.0625ZM42.3882 33.5312H19.5313V37.4375H29.2969C30.3757 37.4375 31.25 38.3118 31.25 39.3906C31.25 40.4694 30.3757 41.3438 29.2969 41.3438H19.5313V49.1562H49.0845L42.3882 33.5312Z" fill="black"/>
<path d="M7.8125 61.8828C7.8125 60.0953 7.8125 18.187 7.8125 15.9531C7.8125 14.8743 8.68683 14 9.76562 14H48.8281C54.2236 14 58.5938 18.3701 58.5938 23.7656C58.5938 24.8444 57.7194 25.7188 56.6406 25.7188H51.7899L61.8347 49.1562H76.5625V31.5781C76.5625 28.9742 78.2448 26.8357 80.4688 26.0514V19.8594C80.4688 18.7821 79.5929 17.9062 78.5156 17.9062C77.4368 17.9062 76.5625 17.0319 76.5625 15.9531C76.5625 14.8743 77.4368 14 78.5156 14C81.7467 14 84.375 16.6283 84.375 19.8594V26.0544C86.6486 26.8609 88.2812 29.0322 88.2812 31.5781V49.2982C94.8982 50.2488 100 55.9525 100 62.8281V82.3594C100 85.5904 97.3717 88.2188 94.1406 88.2188H91.687C89.9292 95.0051 83.7067 99.9375 76.5625 99.9375C69.4183 99.9375 63.1958 95.0051 61.438 88.2188H40.6227C36.9682 95.3774 29.5937 99.9375 21.4844 99.9375C9.63821 99.9375 0 90.2993 0 78.4531C0 71.962 2.83585 65.9791 7.8125 61.8828ZM48.8281 17.9062H11.7188V21.8125C13.2271 21.8125 52.8786 21.8125 54.3549 21.8125C53.5706 19.5893 51.4297 17.9062 48.8281 17.9062ZM11.7188 25.7188V59.3117C14.7202 57.7729 18.0382 56.9688 21.4844 56.9688C27.9762 56.9688 33.96 59.8046 38.0554 64.7812H56.6406C57.7179 64.7812 58.5938 63.9054 58.5938 62.8281V51.5107L47.5403 25.7188H11.7188ZM84.375 41.3438H80.4688V49.1562H84.375V41.3438ZM82.4219 29.625C81.3431 29.625 80.4688 30.5001 80.4688 31.5781V37.4375H84.375V31.5781C84.375 30.5009 83.4991 29.625 82.4219 29.625ZM76.5625 96.0312C82.9155 96.0312 88.2812 90.8387 88.2812 84.3125C88.2812 77.8504 83.0246 72.5938 76.5625 72.5938C70.1004 72.5938 64.8438 77.8504 64.8438 84.3125C64.8438 90.8349 70.2042 96.0312 76.5625 96.0312ZM76.5625 68.6875C85.1784 68.6875 92.1875 75.6966 92.1875 84.3125H94.1406C95.2179 84.3125 96.0938 83.4366 96.0938 82.3594V62.8281C96.0938 57.4433 91.713 53.0625 86.3281 53.0625H62.5V62.8281C62.5 66.0592 59.8717 68.6852 56.6406 68.6852H40.6258C42.1646 71.6874 42.9688 75.0069 42.9688 78.4531C42.9688 80.4566 42.6964 82.4181 42.1593 84.3125H60.9375C60.9375 75.6966 67.9466 68.6875 76.5625 68.6875ZM21.4844 96.0312C31.1234 96.0312 39.0625 88.2332 39.0625 78.4531C39.0625 68.9438 31.4148 60.875 21.4844 60.875C12.0377 60.875 3.90625 68.4693 3.90625 78.4531C3.90625 88.1455 11.792 96.0312 21.4844 96.0312Z" fill="black"/>
<path d="M21.4844 66.7344C27.9465 66.7344 33.2031 71.991 33.2031 78.4531C33.2031 84.9152 27.9465 90.1719 21.4844 90.1719C15.0223 90.1719 9.76562 84.9152 9.76562 78.4531C9.76562 71.991 15.0223 66.7344 21.4844 66.7344ZM21.4844 86.2656C25.7919 86.2656 29.2969 82.7607 29.2969 78.4531C29.2969 74.1456 25.7919 70.6406 21.4844 70.6406C17.1768 70.6406 13.6719 74.1456 13.6719 78.4531C13.6719 82.7607 17.1768 86.2656 21.4844 86.2656Z" fill="black"/>
<path d="M52.7344 60.875H44.9219C43.8431 60.875 42.9688 60.0007 42.9688 58.9219C42.9688 57.8431 43.8431 56.9688 44.9219 56.9688H52.7344C53.8132 56.9688 54.6875 57.8431 54.6875 58.9219C54.6875 60.0007 53.8132 60.875 52.7344 60.875Z" fill="black"/>
<path d="M78.5156 56.9688C79.5944 56.9688 80.4688 57.8431 80.4688 58.9219V62.8281C80.4688 63.9069 79.5944 64.7812 78.5156 64.7812C77.4368 64.7812 76.5625 63.9069 76.5625 62.8281V58.9219C76.5625 57.8431 77.4368 56.9688 78.5156 56.9688Z" fill="black"/>
<path d="M86.3281 56.9688C87.4069 56.9688 88.2812 57.8431 88.2812 58.9219V62.8281C88.2812 63.9069 87.4069 64.7812 86.3281 64.7812C85.2493 64.7812 84.375 63.9069 84.375 62.8281V58.9219C84.375 57.8431 85.2493 56.9688 86.3281 56.9688Z" fill="black"/>
</svg>
