<svg width="100" height="100" viewBox="0 0 100 100" fill="none" xmlns="http://www.w3.org/2000/svg">
<path d="M16.7213 12.6737L11.529 11.7579L3.58941 26.4208L1.75787 36.8072L4.20286 53.3016L9.39691 54.2173L17.2521 39.7127L19.1681 29.1681L16.7213 12.6737Z" fill="#FFA800"/>
<path d="M71.6972 98.2374H61.1773C59.9084 94.4313 46.7784 55.0408 45.0063 49.7244C44.2956 51.8565 29.5431 96.1141 28.8353 98.2374H18.3154C18.3208 98.2198 38.193 33.6041 38.3024 33.3197C39.3236 30.5161 41.9971 28.6318 45.0063 28.6318C48.1403 28.6318 50.9087 30.6761 51.8297 33.6712C52.8357 36.9406 70.8524 95.492 71.6972 98.2374Z" fill="#FFA800"/>
<path d="M83.8884 41.073C86.757 41.5792 88.6712 44.3142 88.1649 47.1828C87.6585 50.0614 84.9121 51.962 82.0569 51.4593L55.9762 47.1459L52.4924 35.8227L83.8884 41.073Z" fill="#EEFAFF"/>
<path d="M82.973 76.0902C85.8853 76.0902 88.2461 73.7293 88.2461 70.817C88.2461 67.9048 85.8853 65.5439 82.973 65.5439C80.0607 65.5439 77.6998 67.9048 77.6998 70.817C77.6998 73.7293 80.0607 76.0902 82.973 76.0902Z" fill="#FFA800"/>
<path d="M38.3006 33.3197L13.9756 28.2522L12.144 38.6385L35.1649 43.4758L38.3024 33.3197H38.3006Z" fill="#EEFAFF"/>
<path d="M45.0063 40.9359C45.9771 40.9359 46.764 40.1489 46.764 39.1781C46.764 38.2074 45.9771 37.4204 45.0063 37.4204C44.0355 37.4204 43.2486 38.2074 43.2486 39.1781C43.2486 40.1489 44.0355 40.9359 45.0063 40.9359Z" fill="black"/>
<path d="M90.0038 70.817C90.0038 67.547 87.7598 64.7912 84.7307 64.0087V53.0718C87.3564 52.392 89.4159 50.2164 89.8959 47.4883C90.5697 43.6702 88.0118 40.0159 84.1784 39.3393L53.8525 34.268L53.51 33.1545C52.3548 29.3979 48.9373 26.8741 45.0063 26.8741C41.8052 26.8741 38.8761 28.6102 37.3073 31.3173L20.7521 27.8685L18.4599 12.4157C18.349 11.6674 17.7716 11.074 17.0265 10.9426L11.8342 10.0268C11.0887 9.89548 10.3434 10.2555 9.98329 10.9208L2.04368 25.5836C1.95369 25.7497 1.89111 25.9294 1.85824 26.1153L0.0267027 36.5017C-0.00616661 36.6878 -0.00862741 36.8778 0.0189687 37.0647L2.46395 53.5591C2.57486 54.3077 3.15263 54.9013 3.8979 55.0324L5.28192 55.2764V62.7314C5.28192 63.7022 6.06885 64.4891 7.03964 64.4891C8.01043 64.4891 8.79735 63.7022 8.79735 62.7314V55.8961C8.85343 55.8907 10.2443 56.343 10.9425 55.054L18.1737 41.7014L32.9185 44.7995L17.0171 96.4797H14.0705V87.6911C14.0705 86.7203 13.2836 85.9334 12.3128 85.9334H8.79735V78.551C8.79735 77.5802 8.01043 76.7933 7.03964 76.7933C6.06885 76.7933 5.28192 77.5802 5.28192 78.551V85.9334H1.76649C0.795704 85.9334 0.00877398 86.7203 0.00877398 87.6911V98.2374C0.00877398 99.2082 0.795704 99.9951 1.76649 99.9951H88.2461C89.2167 99.9951 90.0038 99.2082 90.0038 98.2374V87.6911C90.0038 86.7203 89.2167 85.9334 88.2461 85.9334H84.7307V77.6254C87.7596 76.843 90.0038 74.0871 90.0038 70.817ZM86.4884 70.817C86.4884 72.7555 84.9114 74.3325 82.973 74.3325C81.0346 74.3325 79.4575 72.7555 79.4575 70.817C79.4575 68.8786 81.0346 67.3016 82.973 67.3016C84.9114 67.3016 86.4884 68.8786 86.4884 70.817ZM83.5829 42.804C85.4918 43.1409 86.771 44.9682 86.4339 46.8784C86.1007 48.7728 84.2765 50.0656 82.3618 49.7283C82.3558 49.7273 57.3363 45.5892 57.3363 45.5892L55.0089 38.0258L83.5829 42.804ZM33.9566 41.4259L14.1705 37.2684L15.3918 30.3423L36.0441 34.6448L33.9566 41.4259ZM8.4546 52.2659L5.75545 51.7901L3.53827 36.8314L5.27067 27.0068L12.4712 13.709L15.1682 14.1847L17.0848 27.1046L14.3338 26.5314C13.3632 26.3294 12.4168 26.9699 12.2446 27.9469L10.413 38.3332C10.2484 39.2673 10.8542 40.1635 11.7825 40.3586L14.5843 40.9473L8.4546 52.2659ZM39.9539 33.9214C40.7235 31.8089 42.754 30.3896 45.0063 30.3896C47.384 30.3896 49.451 31.916 50.1501 34.1885L69.3173 96.4797H62.4443C61.9709 95.0598 47.5023 51.6535 46.674 49.1687C46.4348 48.451 45.763 47.9667 45.0065 47.9667C44.25 47.9667 43.5782 48.4508 43.3391 49.1685C43.0857 49.9287 27.786 95.8276 27.5687 96.4797H20.6955C20.8333 96.0304 39.8253 34.2736 39.9539 33.9214ZM52.6533 78.2249L57.6555 93.2307L38.8968 81.9754L52.6533 78.2249ZM39.9293 70.5135L49.132 75.5414L37.1658 78.8038L39.9293 70.5135ZM41.059 67.1246L45.0063 55.2825L50.7115 72.3981L41.059 67.1246ZM35.4345 83.998L56.2376 96.4799H31.274L35.4345 83.998ZM3.52421 89.4488H10.5551V96.4797H3.52421V89.4488ZM86.4884 96.4797H79.4575V89.4488H86.4884V96.4797ZM77.6998 85.9334C76.7292 85.9334 75.9421 86.7203 75.9421 87.6911V96.4797H72.9953L58.4915 49.3436L81.2153 53.1017V64.0087C78.1862 64.7912 75.9421 67.547 75.9421 70.817C75.9421 74.0871 78.1862 76.8428 81.2153 77.6254V85.9334H77.6998Z" fill="black"/>
<path d="M7.03964 72.399C8.0104 72.399 8.79735 71.612 8.79735 70.6413C8.79735 69.6705 8.0104 68.8836 7.03964 68.8836C6.06888 68.8836 5.28192 69.6705 5.28192 70.6413C5.28192 71.612 6.06888 72.399 7.03964 72.399Z" fill="black"/>
</svg>
