<svg width="100" height="100" viewBox="0 0 100 100" fill="none" xmlns="http://www.w3.org/2000/svg">
<path d="M11.5625 33.2031C6.25547 33.2031 1.95312 28.9008 1.95312 23.5938V1.95312H21.1719V23.5938C21.1719 28.9008 16.8695 33.2031 11.5625 33.2031Z" fill="#FFA800"/>
<path d="M50 33.2031C44.693 33.2031 40.3906 28.9008 40.3906 23.5938V1.95312H59.6094V23.5938C59.6094 28.9008 55.307 33.2031 50 33.2031Z" fill="#FFA800"/>
<path d="M88.4375 33.2031C83.1305 33.2031 78.8281 28.9008 78.8281 23.5938V1.95312H98.0469V23.5938C98.0469 28.9008 93.7445 33.2031 88.4375 33.2031Z" fill="#FFA800"/>
<path d="M36.7188 43.3594H63.2812V88.6719H36.7188V43.3594Z" fill="#FFA800"/>
<path d="M98.0469 0H1.95312C0.874609 0 0 0.874609 0 1.95312V23.5938C0 27.3963 1.8457 30.7752 4.6875 32.8838V86.7188H1.95312C0.874609 86.7188 0 87.5934 0 88.6719V98.0469C0 99.1254 0.874609 100 1.95312 100H98.0469C99.1254 100 100 99.1254 100 98.0469V88.6719C100 87.5934 99.1254 86.7188 98.0469 86.7188H95.3125V32.8838C98.1543 30.7752 100 27.3963 100 23.5938V1.95312C100 0.874609 99.1254 0 98.0469 0ZM96.0938 18.75H80.7812V3.90625H96.0938V18.75ZM76.875 18.75H61.5625V3.90625H76.875V18.75ZM23.125 22.6562H38.4375V23.5938C38.4375 27.8154 35.0029 31.25 30.7813 31.25C26.5598 31.25 23.1252 27.8154 23.1252 23.5938L23.125 22.6562ZM42.3438 22.6562H57.6563V23.5938C57.6563 27.8154 54.2217 31.25 50 31.25C45.7783 31.25 42.3438 27.8154 42.3438 23.5938V22.6562ZM61.5625 22.6562H76.875V23.5938C76.875 27.8154 73.4404 31.25 69.2189 31.25C64.9973 31.25 61.5627 27.8154 61.5627 23.5938L61.5625 22.6562ZM57.6563 18.75H42.3438V3.90625H57.6563V18.75ZM38.4375 18.75H23.125V3.90625H38.4375V18.75ZM19.2188 3.90625V18.75H3.90625V3.90625H19.2188ZM3.90625 22.6562H19.2188V23.5938C19.2188 27.8154 15.7842 31.25 11.5625 31.25C7.34082 31.25 3.90625 27.8154 3.90625 23.5938V22.6562ZM81.6432 63.4578C82.0246 63.8391 82.5244 64.0299 83.0242 64.0299C83.524 64.0299 84.0238 63.8391 84.4053 63.4578L91.4062 56.457V72.3957H75.4674L78.8551 69.008C79.6178 68.2453 79.6178 67.0086 78.8551 66.2457C78.0924 65.4836 76.8561 65.4832 76.0928 66.2457L69.9428 72.3955H65.2344V69.1031L82.7752 51.5625H90.7764L81.6432 60.6957C80.8803 61.4584 80.8803 62.6951 81.6432 63.4578ZM65.2344 63.5787V51.5625H77.2506L65.2344 63.5787ZM61.3281 86.7188H38.6719V45.3125H61.3281V86.7188ZM23.4398 63.4578C23.8213 63.8391 24.3211 64.0299 24.8209 64.0299C25.3207 64.0299 25.8205 63.8391 26.202 63.4578L34.7656 54.8943V72.3957H17.2643L20.652 69.008C21.4146 68.2453 21.4146 67.0086 20.652 66.2457C19.8891 65.4832 18.6527 65.4832 17.8896 66.2457L11.7398 72.3955H8.59375V67.5404L24.5719 51.5625H32.573L23.4398 60.6957C22.677 61.4584 22.677 62.6951 23.4398 63.4578ZM8.59375 62.016V51.5625H19.0473L8.59375 62.016ZM96.0938 96.0938H3.90625V90.625H30.4688C31.5473 90.625 32.4219 89.7504 32.4219 88.6719C32.4219 87.5934 31.5473 86.7188 30.4688 86.7188H8.59375V76.3019H34.7656V86.7188H30.4688C29.3902 86.7188 28.5156 87.5934 28.5156 88.6719C28.5156 89.7504 29.3902 90.625 30.4688 90.625H96.0938V96.0938ZM65.2344 86.7188V76.3019H91.4062V86.7188H65.2344ZM91.4062 47.6562H65.2344V43.3594C65.2344 42.2809 64.3598 41.4062 63.2812 41.4062H36.7188C35.6402 41.4062 34.7656 42.2809 34.7656 43.3594V47.6562H8.59375V34.7682C9.5416 35.0203 10.5363 35.1562 11.5625 35.1562C15.5633 35.1562 19.0953 33.1133 21.1719 30.0162C23.2486 33.1133 26.7805 35.1562 30.7813 35.1562C34.782 35.1562 38.3141 33.1133 40.3906 30.0162C42.4672 33.1133 45.9992 35.1562 50 35.1562C54.0008 35.1562 57.5328 33.1133 59.6094 30.0162C61.6861 33.1133 65.218 35.1562 69.2188 35.1562C73.2195 35.1562 76.7514 33.1133 78.8279 30.0162C80.9047 33.1133 84.4365 35.1562 88.4375 35.1562C89.4637 35.1562 90.4584 35.0201 91.4062 34.7682V47.6562ZM88.4375 31.25C84.2158 31.25 80.7812 27.8154 80.7812 23.5938V22.6562H96.0938V23.5938C96.0938 27.8154 92.6592 31.25 88.4375 31.25Z" fill="black"/>
<path d="M44.5312 67.1875C45.0449 67.1875 45.5488 66.9785 45.9119 66.615C46.2754 66.252 46.4844 65.748 46.4844 65.2344C46.4844 64.7207 46.2754 64.2168 45.9119 63.8535C45.5488 63.4902 45.0449 63.2812 44.5312 63.2812C44.0176 63.2812 43.5137 63.49 43.1504 63.8535C42.7871 64.217 42.5781 64.7207 42.5781 65.2344C42.5781 65.748 42.7869 66.252 43.1504 66.615C43.5137 66.9785 44.0176 67.1875 44.5312 67.1875Z" fill="black"/>
</svg>
