<svg width="100" height="100" viewBox="0 0 100 100" fill="none" xmlns="http://www.w3.org/2000/svg">
<g clip-path="url(#clip0)">
<path d="M74.81 8.33333L73.3333 57L88.3333 48.5L86.8566 8.33333H74.81Z" fill="#FFA800"/>
<path d="M13.3333 68.3333H26.6666V75H13.3333V68.3333Z" fill="#FFA800"/>
<path d="M43.3333 68.3333H56.6666V75H43.3333V68.3333Z" fill="#FFA800"/>
<path d="M73.3333 68.3333H86.6666V75H73.3333V68.3333Z" fill="#FFA800"/>
<path d="M48.3333 86.6667H51.6666V98.3333H48.3333V86.6667Z" fill="#4398D1"/>
<path d="M95.845 43.5633C95.3362 43.2646 94.7075 43.2569 94.1916 43.5433L89.605 46.0917L88.3333 1.62C88.3081 0.717708 87.5691 -0.000417439 86.6666 -7.72449e-07H75C74.0975 -0.000417439 73.3585 0.717708 73.3333 1.62L71.78 56L66.6666 58.8333V45C66.6662 44.0796 65.9196 43.3337 64.9991 43.3342C64.7166 43.3344 64.4387 43.4062 64.1916 43.5433L36.6666 58.8333V45C36.6662 44.0796 35.9196 43.3337 34.9991 43.3342C34.7166 43.3344 34.4387 43.4062 34.1916 43.5433L4.19165 60.21C3.66227 60.5035 3.33352 61.0612 3.33331 61.6667V98.3333C3.33331 99.2537 4.07956 100 4.99998 100H95C95.9204 100 96.6666 99.2537 96.6666 98.3333V45C96.6666 44.4094 96.3541 43.8627 95.845 43.5633ZM76.4283 10H85.2383L86.3216 47.915L75.1666 54.11L76.4283 10ZM85.0466 3.33333L85.1433 6.66667H76.525L76.62 3.33333H85.0466ZM38.3333 96.6667V88.3333H48.3333V96.6667H38.3333ZM51.6666 96.6667V88.3333H61.6666V96.6667H51.6666ZM93.3333 96.6667H65V86.6667C65 85.7462 64.2537 85 63.3333 85H36.6666C35.7462 85 35 85.7462 35 86.6667V96.6667H6.66665V62.6483L33.3333 47.8333V61.6667C33.3337 62.5871 34.0804 63.3329 35.0008 63.3325C35.2833 63.3323 35.5612 63.2604 35.8083 63.1233L63.3333 47.8333V61.6667C63.3337 62.5871 64.0804 63.3329 65.0008 63.3325C65.2833 63.3323 65.5612 63.2604 65.8083 63.1233L81.5266 54.3917L88.8333 50.3333L93.3333 47.8333V96.6667Z" fill="black" stroke="black" stroke-width="0.6"/>
<path d="M26.6667 66.6667H13.3334C12.4129 66.6667 11.6667 67.4129 11.6667 68.3333V75C11.6667 75.9204 12.4129 76.6667 13.3334 76.6667H26.6667C27.5871 76.6667 28.3334 75.9204 28.3334 75V68.3333C28.3334 67.4129 27.5871 66.6667 26.6667 66.6667ZM25 73.3333H15V70H25V73.3333Z" fill="black"/>
<path d="M56.6667 66.6667H43.3334C42.4129 66.6667 41.6667 67.4129 41.6667 68.3333V75C41.6667 75.9204 42.4129 76.6667 43.3334 76.6667H56.6667C57.5871 76.6667 58.3334 75.9204 58.3334 75V68.3333C58.3334 67.4129 57.5871 66.6667 56.6667 66.6667ZM55 73.3333H45V70H55V73.3333Z" fill="black"/>
<path d="M86.6667 66.6667H73.3334C72.4129 66.6667 71.6667 67.4129 71.6667 68.3333V75C71.6667 75.9204 72.4129 76.6667 73.3334 76.6667H86.6667C87.5871 76.6667 88.3334 75.9204 88.3334 75V68.3333C88.3334 67.4129 87.5871 66.6667 86.6667 66.6667ZM85 73.3333H75V70H85V73.3333Z" fill="black"/>
</g>
<defs>
<clipPath id="clip0">
<rect width="100" height="100" fill="white"/>
</clipPath>
</defs>
</svg>
