<svg width="100" height="100" viewBox="0 0 100 100" fill="none" xmlns="http://www.w3.org/2000/svg">
<path d="M77 44C88.598 44 98 34.598 98 23C98 11.402 88.598 2 77 2C65.402 2 56 11.402 56 23C56 34.598 65.402 44 77 44Z" fill="#FFA800"/>
<path d="M79.125 10L71 24.0625H75.875L74.25 35L84 22.5L79.125 20.9375V10Z" fill="white"/>
<path d="M100 22.5424C99.9878 16.9809 97.9257 11.6193 94.2084 7.4842C90.4911 3.34914 85.3799 0.731211 79.8535 0.131696C74.3271 -0.467819 68.7739 0.99321 64.2572 4.23503C59.7404 7.47685 56.5775 12.2716 55.3742 17.7013H16.1291C15.7855 17.7009 15.4509 17.8103 15.1738 18.0135C14.8968 18.2167 14.6918 18.503 14.5887 18.8309L0.0726024 65.6282C0.0236442 65.7849 -0.00083782 65.9482 2.18777e-05 66.1123V72.5671C2.18777e-05 72.9951 0.169952 73.4055 0.47243 73.7082C0.774908 74.0108 1.18516 74.1808 1.61292 74.1808H11.2903C11.2903 75.8927 11.9701 77.5345 13.18 78.745C14.3899 79.9555 16.0309 80.6356 17.742 80.6356H37.0968V90.3178H32.2581C30.9748 90.3178 29.744 90.8278 28.8366 91.7357C27.9292 92.6436 27.4194 93.875 27.4194 95.1589V98.3863C27.4194 98.8143 27.5893 99.2247 27.8918 99.5274C28.1943 99.83 28.6045 100 29.0323 100H61.2903C61.7181 100 62.1284 99.83 62.4308 99.5274C62.7333 99.2247 62.9032 98.8143 62.9032 98.3863V95.1589C62.9032 93.875 62.3934 92.6436 61.486 91.7357C60.5786 90.8278 59.3478 90.3178 58.0645 90.3178H53.2258V80.6356H72.5807C74.2917 80.6356 75.9327 79.9555 77.1426 78.745C78.3525 77.5345 79.0323 75.8927 79.0323 74.1808H88.7097C89.1375 74.1808 89.5477 74.0108 89.8502 73.7082C90.1527 73.4055 90.3226 72.9951 90.3226 72.5671V66.1123C90.3234 65.9482 90.299 65.7849 90.25 65.6282L83.6161 44.2483C88.3309 42.8982 92.479 40.0507 95.4344 36.1352C98.3898 32.2198 99.9923 27.4489 100 22.5424ZM58.8807 38.6794L60.4161 46.7479H46.7742V38.6794H58.8807ZM43.5484 46.7479H29.9065L31.4419 38.6794H43.5484V46.7479ZM32.0565 35.452L33.5936 27.3835H43.5484V35.452H32.0565ZM28.7726 35.452H19.8807L22.1839 27.3835H30.3097L28.7726 35.452ZM18.9581 38.6794H28.1516L26.6161 46.7479H16.6484L18.9581 38.6794ZM15.7323 49.9753H26.0081L24.471 58.0438H13.4291L15.7323 49.9753ZM29.292 49.9753H43.5484V58.0438H27.7549L29.292 49.9753ZM46.7742 49.9753H61.0307L62.5678 58.0438H46.7742V49.9753ZM65.8516 58.0438L64.3145 49.9753H74.5903L76.8936 58.0438H65.8516ZM73.0855 44.7066L73.6677 46.7479H63.7L62.2726 39.249C65.3104 42.023 69.0503 43.9106 73.0855 44.7066ZM46.7742 35.452V27.3835H55.3742C56.013 30.281 57.219 33.0233 58.9226 35.452H46.7742ZM59.6774 95.1589V96.7726H30.6452V95.1589C30.6452 94.7309 30.8151 94.3205 31.1176 94.0178C31.4201 93.7152 31.8303 93.5452 32.2581 93.5452H58.0645C58.4923 93.5452 58.9025 93.7152 59.205 94.0178C59.5075 94.3205 59.6774 94.7309 59.6774 95.1589ZM50 90.3178H40.3226V80.6356H50V90.3178ZM72.5807 77.4082H17.742C16.8864 77.4082 16.0659 77.0682 15.461 76.4629C14.856 75.8577 14.5161 75.0368 14.5161 74.1808H75.8065C75.8065 75.0368 75.4666 75.8577 74.8616 76.4629C74.2567 77.0682 73.4362 77.4082 72.5807 77.4082ZM3.22583 70.9534V67.726H87.0968V70.9534H3.22583ZM86.521 64.4986H3.80163L17.3178 20.9287H54.921C54.8823 21.4644 54.8387 21.997 54.8387 22.5424C54.8387 23.0878 54.8823 23.6203 54.921 24.1561H20.9678C20.6175 24.1562 20.2767 24.2705 19.9971 24.4816C19.7174 24.6926 19.5141 24.9891 19.4178 25.326L9.74034 59.2137C9.67169 59.4538 9.65969 59.7066 9.70528 59.9522C9.75086 60.1977 9.85279 60.4293 10.003 60.6288C10.1533 60.8282 10.3478 60.9901 10.5711 61.1015C10.7945 61.213 11.0407 61.2711 11.2903 61.2712H79.0323C79.2819 61.2711 79.5281 61.213 79.7515 61.1015C79.9748 60.9901 80.1693 60.8282 80.3196 60.6288C80.4698 60.4293 80.5717 60.1977 80.6173 59.9522C80.6629 59.7066 80.6509 59.4538 80.5823 59.2137L76.55 45.0906C76.8403 45.1019 77.1258 45.1342 77.4194 45.1342C78.4314 45.1264 79.4417 45.0503 80.4436 44.9067L86.521 64.4986ZM77.4194 41.9068C73.5913 41.9068 69.8493 40.7711 66.6664 38.6433C63.4835 36.5155 61.0027 33.4912 59.5378 29.9528C58.0729 26.4144 57.6896 22.5209 58.4364 18.7646C59.1832 15.0083 61.0266 11.5578 63.7334 8.84969C66.4402 6.14153 69.889 4.29725 73.6434 3.55007C77.3979 2.80289 81.2895 3.18637 84.8261 4.65202C88.3628 6.11766 91.3856 8.59965 93.5123 11.7841C95.6391 14.9686 96.7742 18.7125 96.7742 22.5424C96.7686 27.6764 94.7277 32.5986 91.0992 36.229C87.4706 39.8593 82.5509 41.9012 77.4194 41.9068Z" fill="black"/>
<path d="M83.9054 20.971L80.1999 19.7272V9.61121C80.1999 9.25431 80.0822 8.90751 79.8653 8.62523C79.6485 8.34295 79.3446 8.14118 79.0015 8.05159C78.6585 7.962 78.2955 7.98965 77.9697 8.13022C77.644 8.27078 77.3737 8.51629 77.2015 8.82822L69.2017 23.328C69.0662 23.5732 68.9968 23.8499 69.0001 24.1305C69.0035 24.411 69.0796 24.6859 69.2209 24.9278C69.3621 25.1696 69.5637 25.3702 69.8056 25.5095C70.0475 25.6488 70.3214 25.7221 70.6 25.7221H73.5552L72.216 35.1598C72.1655 35.514 72.2335 35.8751 72.4094 36.1861C72.5852 36.4971 72.8589 36.7402 73.1872 36.8772C73.5155 37.0142 73.8797 37.0373 74.2224 36.9428C74.5651 36.8483 74.8668 36.6416 75.08 36.3553L84.6798 23.4666C84.832 23.2623 84.9338 23.0245 84.9768 22.7729C85.0198 22.5212 85.0028 22.2628 84.9272 22.0191C84.8516 21.7754 84.7195 21.5532 84.5418 21.371C84.3641 21.1887 84.146 21.0516 83.9054 20.971ZM76.2671 29.3905L76.9839 24.3398C77.0165 24.1112 76.9999 23.8782 76.9352 23.6567C76.8705 23.4351 76.7593 23.2302 76.6091 23.0557C76.4589 22.8812 76.2732 22.7413 76.0646 22.6454C75.8559 22.5495 75.6293 22.4999 75.3999 22.4999H73.32L76.9999 15.8284V20.8888C76.9998 21.2271 77.1055 21.5568 77.3019 21.8312C77.4984 22.1056 77.7756 22.3108 78.0943 22.4177L80.7886 23.3216L76.2671 29.3905Z" fill="black"/>
</svg>
