<svg width="100" height="100" viewBox="0 0 100 100" fill="none" xmlns="http://www.w3.org/2000/svg">
<path d="M27.7434 97.9149C26.5718 97.9149 25.4746 97.395 24.7329 96.4883C23.991 95.5811 23.6988 94.4027 23.931 93.2544C24.3498 91.1841 24.7741 88.9655 25.1841 86.8198L25.1981 86.7477C25.6034 84.6285 26.0225 82.4373 26.4348 80.3988H24.0016C22.5658 80.3988 21.3978 79.2308 21.3978 77.795V74.9547C21.3978 73.5189 22.5658 72.3509 24.0016 72.3509H37.7303C39.1662 72.3509 40.3341 73.5189 40.3341 74.9547V77.795C40.3341 79.2308 39.1662 80.3988 37.7303 80.3988H35.2971C35.7094 82.4373 36.1285 84.6284 36.5339 86.7475L36.5478 86.8195C36.958 88.9652 37.3823 91.1838 37.8009 93.2537C38.0331 94.4022 37.7409 95.5807 36.9994 96.4874C36.2571 97.3946 35.1598 97.9144 33.9883 97.9144H27.7438V97.9149H27.7434Z" fill="#FFA800"/>
<path d="M87.1061 25.9577H58.702C57.6564 25.9577 56.8083 26.8054 56.8083 27.8514V43.4736H43.3318L32.5308 23.5406C32.1999 22.9298 31.5607 22.5491 30.8659 22.5491C30.1711 22.5491 29.5321 22.9298 29.201 23.5406L12.7181 53.9591C11.514 56.1813 11.5323 58.7908 12.7494 60.9895H1.89368C0.847932 60.9895 0 61.8373 0 62.8831V97.9149C0 98.9608 0.847932 99.8086 1.89368 99.8086H87.1063C88.1519 99.8086 89 98.9608 89 97.9149V27.8512C88.9998 26.8054 88.1519 25.9577 87.1061 25.9577ZM85.2126 96.0214H74.2297V82.2927H85.2126V96.0214ZM16.1189 59.2608C15.4743 58.1784 15.4477 56.8709 16.0478 55.7632L30.8659 28.4175L45.684 55.7636C46.2841 56.8712 46.2577 58.1788 45.6129 59.2612C44.9682 60.3436 43.8314 60.9899 42.5716 60.9899H35.1266H34.6465H32.7596V52.7527C32.7596 51.7068 31.9117 50.859 30.8659 50.859C29.8202 50.859 28.9722 51.7068 28.9722 52.7527V60.9897H26.6052H19.1602C17.9003 60.9895 16.7634 60.3433 16.1189 59.2608ZM60.5957 29.7449H85.2126V43.4736H72.336H60.5957V29.7449ZM74.2297 47.2608H85.2126V60.9895H74.2297V47.2608ZM70.4425 60.9895H58.7022H48.9826C50.1996 58.7908 50.218 56.1813 49.0139 53.9591L45.3842 47.2608H58.7022H70.4425V60.9895ZM56.8085 78.5055H45.0682H42.1711C42.208 78.2741 42.2278 78.037 42.2278 77.7954V74.955C42.2278 72.4752 40.2104 70.4578 37.7305 70.4578H37.0205V64.7769H42.572H56.8087V78.5055H56.8085ZM32.1913 64.7767H33.2327V70.4576H28.4987V64.7767H32.1913ZM3.78719 64.7767H19.1602H24.7117V70.4576H24.0016C21.5218 70.4576 19.5043 72.475 19.5043 74.9549V77.7952C19.5043 78.0368 19.524 78.2739 19.561 78.5053H16.6638H3.78719V64.7767ZM14.7701 96.0214H3.78719V82.2927H14.7701V96.0214ZM18.5573 82.2927H24.0014H24.128C23.8577 83.6739 23.5881 85.0842 23.3244 86.4644C22.9145 88.6071 22.4909 90.8231 22.0747 92.879C21.859 93.9452 21.9478 95.0294 22.3134 96.0214H18.5575V82.2927H18.5573ZM26.1985 95.2891C25.8178 94.8236 25.6679 94.2188 25.787 93.6295C26.2068 91.554 26.6325 89.3282 27.0441 87.1755C27.4531 85.0372 27.8761 82.8258 28.2908 80.7741C28.4035 80.2173 28.2602 79.6395 27.9004 79.1999C27.5406 78.7603 27.0028 78.5053 26.4347 78.5053H24.0014C23.61 78.5053 23.2914 78.1869 23.2914 77.7952V74.9549C23.2914 74.5632 23.61 74.2448 24.0014 74.2448H26.6052H35.1264H37.7302C38.1217 74.2448 38.4403 74.5632 38.4403 74.9549V77.7952C38.4403 78.1869 38.1217 78.5053 37.7302 78.5053H35.297C34.7289 78.5053 34.1909 78.7603 33.8312 79.1999C33.4716 79.6394 33.3284 80.2175 33.4408 80.7741C33.8557 82.8258 34.2785 85.0371 34.6875 87.1755C35.0991 89.3282 35.5248 91.5539 35.9446 93.6295C36.0637 94.2188 35.9137 94.8239 35.5332 95.2891C35.1523 95.7544 34.5895 96.0214 33.988 96.0214H27.7433C27.1423 96.0214 26.5791 95.7546 26.1985 95.2891ZM43.1743 96.0214H39.4184C39.7841 95.0294 39.8726 93.9452 39.6571 92.879C39.2413 90.8231 38.8175 88.6071 38.4074 86.4644C38.1434 85.0843 37.8739 83.6741 37.6038 82.2927H37.7304H43.1745V96.0214H43.1743ZM70.4425 96.0214H46.9617V82.2927H58.702H70.4423V96.0214H70.4425ZM85.2126 78.5055H72.336H60.5957V64.7767H72.336H85.2126V78.5055Z" fill="black"/>
</svg>
