<svg width="100" height="100" viewBox="0 0 100 100" fill="none" xmlns="http://www.w3.org/2000/svg">
<g clip-path="url(#clip0)">
<path d="M46.6666 53.5313H40V46.8646H33.3333V53.5313H26.6666V60.1979H33.3333V66.8646H40V60.1979H46.6666V53.5313Z" fill="#F6F6E7"/>
<path d="M1.66663 38.5312H71.6666V41.8646H1.66663V38.5312Z" fill="#2F2F3F"/>
<path d="M74.5333 67.3979H98V86.5979H74.5333V67.3979Z" fill="#FFA800"/>
<path d="M2 73.7979H61.7333V80.1979H2V73.7979Z" fill="#FFA800"/>
<path d="M78.8 86.9535V98.3313H58.5333V86.9535L61.9111 84.109V81.2646H75.4222V84.109L78.8 86.9535Z" fill="#FFA800"/>
<path d="M23.3334 25.1979H26.6667V33.5313H23.3334V25.1979Z" fill="#A9BFD1"/>
<path d="M50 25.1979H53.3333V33.5313H50V25.1979Z" fill="#A9BFD1"/>
<path d="M46.6667 51.8646H41.6667V46.8646C41.6667 46.4226 41.4911 45.9986 41.1785 45.6861C40.866 45.3735 40.442 45.1979 40 45.1979H33.3333C32.8913 45.1979 32.4674 45.3735 32.1548 45.6861C31.8423 45.9986 31.6667 46.4226 31.6667 46.8646V51.8646H26.6667C26.2246 51.8646 25.8007 52.0402 25.4882 52.3527C25.1756 52.6653 25 53.0892 25 53.5312V60.1979C25 60.6399 25.1756 61.0639 25.4882 61.3764C25.8007 61.689 26.2246 61.8646 26.6667 61.8646H31.6667V66.8646C31.6667 67.3066 31.8423 67.7305 32.1548 68.0431C32.4674 68.3557 32.8913 68.5312 33.3333 68.5312H40C40.442 68.5312 40.866 68.3557 41.1785 68.0431C41.4911 67.7305 41.6667 67.3066 41.6667 66.8646V61.8646H46.6667C47.1087 61.8646 47.5326 61.689 47.8452 61.3764C48.1577 61.0639 48.3333 60.6399 48.3333 60.1979V53.5312C48.3333 53.0892 48.1577 52.6653 47.8452 52.3527C47.5326 52.0402 47.1087 51.8646 46.6667 51.8646ZM45 58.5312H40C39.558 58.5312 39.134 58.7068 38.8215 59.0194C38.5089 59.332 38.3333 59.7559 38.3333 60.1979V65.1979H35V60.1979C35 59.7559 34.8244 59.332 34.5118 59.0194C34.1993 58.7068 33.7754 58.5312 33.3333 58.5312H28.3333V55.1979H33.3333C33.7754 55.1979 34.1993 55.0223 34.5118 54.7098C34.8244 54.3972 35 53.9733 35 53.5312V48.5312H38.3333V53.5312C38.3333 53.9733 38.5089 54.3972 38.8215 54.7098C39.134 55.0223 39.558 55.1979 40 55.1979H45V58.5312Z" fill="black"/>
<path d="M93.3333 54.6429V45.3333C93.3333 44.8913 93.1577 44.4674 92.8452 44.1548C92.5326 43.8423 92.1087 43.6667 91.6667 43.6667H78.3333C77.8913 43.6667 77.4674 43.8423 77.1548 44.1548C76.8423 44.4674 76.6667 44.8913 76.6667 45.3333V54.6429L73.3333 57.9763V38.4304C73.3315 36.7255 72.6534 35.091 71.4478 33.8855C70.2423 32.68 68.6078 32.0019 66.9029 32H53.3333V23.6667C53.3333 23.2246 53.1577 22.8007 52.8452 22.4882C52.5326 22.1756 52.1087 22 51.6667 22H25C24.558 22 24.134 22.1756 23.8215 22.4882C23.5089 22.8007 23.3333 23.2246 23.3333 23.6667V32H6.43042C4.72554 32.0019 3.09103 32.68 1.8855 33.8855C0.679965 35.091 0.00187489 36.7255 0 38.4304V82.2363C0.00187489 83.9411 0.679965 85.5756 1.8855 86.7812C3.09103 87.9867 4.72554 88.6648 6.43042 88.6667H56.6667V98.6667C56.6667 99.1087 56.8423 99.5326 57.1548 99.8452C57.4674 100.158 57.8913 100.333 58.3333 100.333H78.3333C78.7754 100.333 79.1993 100.158 79.5118 99.8452C79.8244 99.5326 80 99.1087 80 98.6667V97H94.485C95.9472 96.9985 97.3491 96.4169 98.383 95.383C99.4169 94.3491 99.9985 92.9472 100 91.485V63.594C100.002 62.8695 99.8602 62.1518 99.583 61.4824C99.3057 60.813 98.8985 60.2053 98.3848 59.6944L93.3333 54.6429ZM90 47V53.6667H80V47H90ZM73.9723 62.0515L79.0238 57H90.9762L96.0277 62.0515C96.2308 62.2534 96.3919 62.4937 96.5016 62.7583C96.6112 63.0229 96.6674 63.3067 96.6667 63.5931V65.3333H73.3333V63.594C73.3325 63.3074 73.3886 63.0235 73.4983 62.7587C73.6079 62.4939 73.7691 62.2535 73.9723 62.0515ZM71.6667 77H73.3333V80.3333H63.3333V77H65C65.442 77 65.866 76.8244 66.1785 76.5118C66.4911 76.1993 66.6667 75.7754 66.6667 75.3333V70.3333C66.6667 69.8913 66.8423 69.4674 67.1548 69.1548C67.4674 68.8423 67.8913 68.6667 68.3333 68.6667C68.7754 68.6667 69.1993 68.8423 69.5118 69.1548C69.8244 69.4674 70 69.8913 70 70.3333V75.3333C70 75.7754 70.1756 76.1993 70.4882 76.5118C70.8007 76.8244 71.2246 77 71.6667 77ZM70 42V65.62C69.2459 65.353 68.4387 65.2709 67.6463 65.3806C66.8539 65.4903 66.0994 65.7885 65.4462 66.2504C64.793 66.7122 64.2601 67.324 63.8925 68.0345C63.5248 68.745 63.3331 69.5334 63.3333 70.3333V72H3.33333V42H70ZM60 75.3333V78.6667H3.33333V75.3333H60ZM26.6667 25.3333H50V32H26.6667V25.3333ZM6.43042 35.3333H66.9029C67.724 35.3343 68.5112 35.6609 69.0918 36.2415C69.6725 36.8221 69.9991 37.6093 70 38.4304V38.6667H3.33333V38.4304C3.33427 37.6093 3.66087 36.8221 4.24148 36.2415C4.8221 35.6609 5.60931 35.3343 6.43042 35.3333ZM6.43042 85.3333C5.60931 85.3324 4.8221 85.0058 4.24148 84.4252C3.66087 83.8446 3.33427 83.0574 3.33333 82.2363V82H59.3096L57.1548 84.1548C57 84.3096 56.8773 84.4933 56.7935 84.6955C56.7098 84.8977 56.6667 85.1145 56.6667 85.3333H6.43042ZM76.6667 97H60V86.0235L62.3569 83.6667H74.3098L76.6667 86.0235V97ZM76.6667 81.3096V75.3333C76.6667 74.8913 76.4911 74.4674 76.1785 74.1548C75.866 73.8423 75.442 73.6667 75 73.6667H73.3333V68.6667H96.6667V72H88.3333C87.8913 72 87.4674 72.1756 87.1548 72.4882C86.8423 72.8007 86.6667 73.2246 86.6667 73.6667V80.3333C86.6667 80.7754 86.8423 81.1993 87.1548 81.5118C87.4674 81.8244 87.8913 82 88.3333 82H96.6667V85.3333H80C80 85.1145 79.9569 84.8977 79.8732 84.6955C79.7894 84.4933 79.6666 84.3096 79.5119 84.1548L76.6667 81.3096ZM96.6667 75.3333V78.6667H90V75.3333H96.6667ZM94.485 93.6667H80V88.6667H96.6667V91.485C96.666 92.0634 96.4359 92.618 96.0269 93.0269C95.6179 93.4359 95.0634 93.666 94.485 93.6667Z" fill="black"/>
</g>
<defs>
<clipPath id="clip0">
<rect width="100" height="100" fill="white"/>
</clipPath>
</defs>
</svg>
