<svg width="100" height="100" viewBox="0 0 100 100" fill="none" xmlns="http://www.w3.org/2000/svg">
<path d="M10 78.3333H13.3333V98.3333H10V78.3333Z" fill="#414649"/>
<path d="M1.66669 83.3333H21.6667V86.6667H1.66669V83.3333Z" fill="#414649"/>
<path d="M1.66669 76.6667H21.6667V80H1.66669V76.6667Z" fill="#414649"/>
<path d="M1.66669 90H21.6667V93.3333H1.66669V90Z" fill="#414649"/>
<path d="M31.6666 68.3333C33.5076 68.3333 35 66.8409 35 65C35 63.159 33.5076 61.6667 31.6666 61.6667C29.8257 61.6667 28.3333 63.159 28.3333 65C28.3333 66.8409 29.8257 68.3333 31.6666 68.3333Z" fill="#FFA800"/>
<path d="M38.3333 68.3333C40.1743 68.3333 41.6667 66.8409 41.6667 65C41.6667 63.159 40.1743 61.6667 38.3333 61.6667C36.4924 61.6667 35 63.159 35 65C35 66.8409 36.4924 68.3333 38.3333 68.3333Z" fill="#FFA800"/>
<path d="M86.6667 78.3333H90V98.3333H86.6667V78.3333Z" fill="#414649"/>
<path d="M78.3333 83.3333H98.3333V86.6667H78.3333V83.3333Z" fill="#414649"/>
<path d="M78.3333 76.6667H98.3333V80H78.3333V76.6667Z" fill="#414649"/>
<path d="M78.3333 90H98.3333V93.3333H78.3333V90Z" fill="#414649"/>
<path d="M68.3333 68.3333C70.1743 68.3333 71.6667 66.8409 71.6667 65C71.6667 63.159 70.1743 61.6667 68.3333 61.6667C66.4924 61.6667 65 63.159 65 65C65 66.8409 66.4924 68.3333 68.3333 68.3333Z" fill="#FFA800"/>
<path d="M61.6666 68.3333C63.5076 68.3333 65 66.8409 65 65C65 63.159 63.5076 61.6667 61.6666 61.6667C59.8257 61.6667 58.3333 63.159 58.3333 65C58.3333 66.8409 59.8257 68.3333 61.6666 68.3333Z" fill="#FFA800"/>
<path d="M38.3334 60C37.1026 59.9991 35.9151 60.4542 35 61.2773C34.281 60.6326 33.3907 60.2099 32.4366 60.0603C31.4825 59.9107 30.5055 60.0407 29.6237 60.4344C28.7419 60.8281 27.9929 61.4688 27.4674 62.279C26.9418 63.0892 26.6622 64.0342 26.6622 65C26.6622 65.9657 26.9418 66.9108 27.4674 67.721C27.9929 68.5312 28.7419 69.1718 29.6237 69.5656C30.5055 69.9593 31.4825 70.0892 32.4366 69.9396C33.3907 69.7901 34.281 69.3674 35 68.7227C35.6038 69.2633 36.33 69.6491 37.116 69.8466C37.902 70.0442 38.7242 70.0477 39.5119 69.8569C40.2996 69.666 41.029 69.2865 41.6374 68.751C42.2457 68.2155 42.7148 67.5402 43.0041 66.7831C43.2934 66.0261 43.3943 65.21 43.2981 64.4053C43.2018 63.6006 42.9114 62.8313 42.4518 62.1638C41.9921 61.4963 41.3771 60.9505 40.6596 60.5736C39.9422 60.1966 39.1438 59.9998 38.3334 60ZM31.6667 66.6666C31.3371 66.6666 31.0148 66.5689 30.7408 66.3858C30.4667 66.2026 30.2531 65.9423 30.1269 65.6378C30.0008 65.3332 29.9678 64.9981 30.0321 64.6748C30.0964 64.3515 30.2551 64.0545 30.4882 63.8215C30.7213 63.5884 31.0183 63.4296 31.3416 63.3653C31.6649 63.301 32 63.334 32.3045 63.4602C32.6091 63.5863 32.8694 63.7999 33.0525 64.074C33.2356 64.3481 33.3334 64.6703 33.3334 65C33.3329 65.4418 33.1571 65.8655 32.8447 66.1779C32.5322 66.4904 32.1086 66.6661 31.6667 66.6666ZM38.3334 66.6666C38.0037 66.6666 37.6815 66.5689 37.4074 66.3858C37.1333 66.2026 36.9197 65.9423 36.7936 65.6378C36.6674 65.3332 36.6344 64.9981 36.6987 64.6748C36.763 64.3515 36.9218 64.0545 37.1549 63.8215C37.388 63.5884 37.6849 63.4296 38.0082 63.3653C38.3315 63.301 38.6666 63.334 38.9712 63.4602C39.2757 63.5863 39.536 63.7999 39.7192 64.074C39.9023 64.3481 40 64.6703 40 65C39.9996 65.4418 39.8238 65.8655 39.5113 66.1779C39.1989 66.4904 38.7753 66.6661 38.3334 66.6666Z" fill="black"/>
<path d="M99.824 70.9212L94.824 60.9212C94.6855 60.6444 94.4728 60.4116 94.2095 60.2489C93.9462 60.0862 93.6428 60 93.3333 60H89.5346L86.581 51.1396C86.4704 50.8078 86.2582 50.5191 85.9744 50.3146C85.6907 50.1101 85.3498 50 85 50H81.2669L74.6287 26.1029C74.1376 24.3501 73.0876 22.8055 71.6383 21.7039C70.189 20.6024 68.4198 20.0041 66.5994 20H56.6667V6.66667C56.6667 4.89856 55.9643 3.20286 54.714 1.95262C53.4638 0.702379 51.7681 0 50 0C48.2319 0 46.5362 0.702379 45.286 1.95262C44.0357 3.20286 43.3333 4.89856 43.3333 6.66667V20H33.4006C31.5802 20.0041 29.811 20.6024 28.3617 21.7039C26.9124 22.8055 25.8624 24.3501 25.3712 26.1029L18.7331 50H15C14.6502 50 14.3093 50.1101 14.0255 50.3146C13.7418 50.5191 13.5296 50.8078 13.419 51.1396L10.4654 60H6.66667C6.35717 60 6.05379 60.0862 5.79051 60.2489C5.52723 60.4116 5.31447 60.6444 5.17604 60.9212L0.176042 70.9212H0.177292C0.0607356 71.1524 1.32591e-05 71.4078 0 71.6667V95C0.00148882 96.3256 0.528751 97.5965 1.46611 98.5339C2.40347 99.4712 3.67437 99.9985 5 100H18.3333C19.659 99.9985 20.9299 99.4712 21.8672 98.5339C22.8046 97.5965 23.3318 96.3256 23.3333 95V86.6667H76.6667V95C76.6682 96.3256 77.1954 97.5965 78.1328 98.5339C79.0701 99.4712 80.341 99.9985 81.6667 100H95C96.3256 99.9985 97.5965 99.4712 98.5339 98.5339C99.4712 97.5965 99.9985 96.3256 100 95V71.6667C99.9999 71.408 99.9392 71.1529 99.8227 70.9219L99.824 70.9212ZM95.6367 70H80V63.3333H92.3033L95.6367 70ZM96.6667 76.6667H80V73.3333H96.6667V76.6667ZM96.6667 83.3333H90V80H96.6667V83.3333ZM3.33333 73.3333H20V76.6667H3.33333V73.3333ZM10 80V83.3333H3.33333V80H10ZM3.33333 86.6667H10V90H3.33333V86.6667ZM13.3333 86.6667H20V90H13.3333V86.6667ZM13.3333 83.3333V80H20V83.3333H13.3333ZM23.3333 61.9375L26.2013 53.3333H73.7988L76.6667 61.9375V73.3333H23.3333V61.9375ZM80 80H86.6667V83.3333H80V80ZM86.6667 86.6667V90H80V86.6667H86.6667ZM90 86.6667H96.6667V90H90V86.6667ZM86.0208 60H79.5346L77.3125 53.3333H83.799L86.0208 60ZM46.6667 12.4365C47.6793 13.0239 48.8293 13.3333 50 13.3333C51.1707 13.3333 52.3207 13.0239 53.3333 12.4365V33.3333C53.3333 34.2174 52.9821 35.0652 52.357 35.6904C51.7319 36.3155 50.8841 36.6667 50 36.6667C49.1159 36.6667 48.2681 36.3155 47.643 35.6904C47.0179 35.0652 46.6667 34.2174 46.6667 33.3333V12.4365ZM50 3.33333C50.6593 3.33333 51.3037 3.52883 51.8519 3.8951C52.4001 4.26137 52.8273 4.78197 53.0796 5.39105C53.3319 6.00014 53.3979 6.67036 53.2693 7.31697C53.1407 7.96357 52.8232 8.55751 52.357 9.02369C51.8909 9.48986 51.2969 9.80733 50.6503 9.93595C50.0037 10.0646 49.3335 9.99856 48.7244 9.74627C48.1153 9.49397 47.5947 9.06673 47.2284 8.51857C46.8622 7.9704 46.6667 7.32594 46.6667 6.66667C46.6677 5.78293 47.0192 4.9357 47.6441 4.3108C48.269 3.68591 49.1163 3.33438 50 3.33333ZM50 40C51.7675 39.998 53.462 39.295 54.7118 38.0452C55.9617 36.7954 56.6647 35.1008 56.6667 33.3333V23.3333H63.3333V38.3333C63.3318 39.659 62.8046 40.9299 61.8672 41.8672C60.9299 42.8046 59.659 43.3318 58.3333 43.3333H41.6667C40.341 43.3318 39.0701 42.8046 38.1328 41.8672C37.1954 40.9299 36.6682 39.659 36.6667 38.3333V23.3333H43.3333V33.3333C43.3353 35.1008 44.0383 36.7954 45.2881 38.0452C46.538 39.295 48.2325 39.998 50 40ZM28.5833 26.9952C28.8751 25.9549 29.4952 25.0367 30.3511 24.3774C31.207 23.718 32.253 23.3528 33.3333 23.336V38.3333C33.3358 40.5427 34.2146 42.6609 35.7768 44.2231C37.3391 45.7854 39.4573 46.6642 41.6667 46.6667H58.3333C60.5427 46.6642 62.6609 45.7854 64.2231 44.2231C65.7854 42.6609 66.6642 40.5427 66.6667 38.3333V23.336C67.747 23.3528 68.793 23.718 69.6489 24.3774C70.5048 25.0367 71.1249 25.9549 71.4167 26.9952L77.8073 50H22.1927L28.5833 26.9952ZM16.2013 53.3333H22.6875L20.4652 60H13.9792L16.2013 53.3333ZM7.69667 63.3333H20V70H4.36333L7.69667 63.3333ZM3.33333 95V93.3333H10V96.6667H5C4.55812 96.6662 4.13449 96.4904 3.82204 96.178C3.50958 95.8655 3.33383 95.4419 3.33333 95ZM18.3333 96.6667H13.3333V93.3333H20V95C19.9995 95.4419 19.8237 95.8655 19.5113 96.178C19.1988 96.4904 18.7752 96.6662 18.3333 96.6667ZM23.3333 83.3333V76.6667H76.6667V83.3333H23.3333ZM80 95V93.3333H86.6667V96.6667H81.6667C81.2248 96.6662 80.8012 96.4904 80.4887 96.178C80.1762 95.8655 80.0005 95.4419 80 95ZM95 96.6667H90V93.3333H96.6667V95C96.6662 95.4419 96.4904 95.8655 96.178 96.178C95.8655 96.4904 95.4419 96.6662 95 96.6667Z" fill="black"/>
<path d="M68.3334 60C67.1026 59.9991 65.9151 60.4542 65 61.2773C64.281 60.6326 63.3907 60.2099 62.4366 60.0603C61.4825 59.9107 60.5055 60.0407 59.6237 60.4344C58.7419 60.8281 57.9929 61.4688 57.4674 62.279C56.9418 63.0892 56.6622 64.0342 56.6622 65C56.6622 65.9657 56.9418 66.9108 57.4674 67.721C57.9929 68.5312 58.7419 69.1718 59.6237 69.5656C60.5055 69.9593 61.4825 70.0892 62.4366 69.9396C63.3907 69.7901 64.281 69.3674 65 68.7227C65.6038 69.2633 66.33 69.6491 67.116 69.8466C67.902 70.0442 68.7242 70.0477 69.5119 69.8569C70.2996 69.666 71.029 69.2865 71.6374 68.751C72.2457 68.2155 72.7148 67.5402 73.0041 66.7831C73.2934 66.0261 73.3943 65.21 73.298 64.4053C73.2018 63.6006 72.9114 62.8313 72.4518 62.1638C71.9921 61.4963 71.3771 60.9505 70.6596 60.5736C69.9422 60.1966 69.1438 59.9998 68.3334 60ZM61.6667 66.6666C61.3371 66.6666 61.0148 66.5689 60.7408 66.3858C60.4667 66.2026 60.2531 65.9423 60.1269 65.6378C60.0008 65.3332 59.9678 64.9981 60.0321 64.6748C60.0964 64.3515 60.2551 64.0545 60.4882 63.8215C60.7213 63.5884 61.0183 63.4296 61.3416 63.3653C61.6649 63.301 62 63.334 62.3045 63.4602C62.6091 63.5863 62.8694 63.7999 63.0525 64.074C63.2356 64.3481 63.3334 64.6703 63.3334 65C63.3329 65.4418 63.1571 65.8655 62.8447 66.1779C62.5322 66.4904 62.1086 66.6661 61.6667 66.6666ZM68.3334 66.6666C68.0037 66.6666 67.6815 66.5689 67.4074 66.3858C67.1333 66.2026 66.9197 65.9423 66.7936 65.6378C66.6674 65.3332 66.6344 64.9981 66.6987 64.6748C66.763 64.3515 66.9218 64.0545 67.1549 63.8215C67.3879 63.5884 67.6849 63.4296 68.0082 63.3653C68.3315 63.301 68.6666 63.334 68.9712 63.4602C69.2757 63.5863 69.536 63.7999 69.7192 64.074C69.9023 64.3481 70 64.6703 70 65C69.9995 65.4418 69.8238 65.8655 69.5113 66.1779C69.1989 66.4904 68.7752 66.6661 68.3334 66.6666Z" fill="black"/>
</svg>
