<svg width="100" height="100" viewBox="0 0 100 100" fill="none" xmlns="http://www.w3.org/2000/svg">
<g clip-path="url(#clip0)">
<path d="M86.1732 18.2007L67.3187 88.8535H44.9936L76.3771 15.4274L86.1732 18.2007Z" fill="#FFA800"/>
<path d="M28.6514 25.6851L24.4415 15.4274L14.6454 18.2045L32.6202 88.8535H44.9936L49.8306 77.5383L34.7298 39.6149L28.6514 25.6851Z" fill="#FFA800"/>
<path d="M98.214 86.9003H97.9233V28.0014C97.9233 25.3143 97.0146 22.8371 95.4918 20.8557C95.4445 20.7863 95.3918 20.7191 95.3346 20.6558C93.6806 18.5974 91.349 17.1059 88.681 16.5237L90.8279 8.93707C90.8424 8.88824 90.8516 8.83942 90.8623 8.78983C91.8068 5.10941 89.6339 1.30692 85.9589 0.267029C85.3294 0.0900269 84.6832 0 84.0385 0C80.9135 0 78.1372 2.08893 77.2797 5.08194C77.2781 5.08804 77.2751 5.09415 77.2736 5.09949L76.6121 7.43561C74.7711 5.04761 71.9925 3.67889 68.972 3.67889H31.8497C28.8292 3.67889 26.0513 5.04761 24.2096 7.43561L23.5481 5.09949C23.5298 5.03387 23.5069 4.96979 23.4818 4.90646C22.5052 2.05231 19.8471 0.14267 16.8228 0.14267C16.1781 0.14267 15.5319 0.232697 14.901 0.411224C11.2785 1.43433 9.12857 5.06134 9.94568 8.71506C9.95789 8.78906 9.97314 8.86307 9.99374 8.93631L12.1399 16.5237C9.49097 17.1013 7.17392 18.5745 5.52216 20.6093C5.43671 20.6985 5.36118 20.7954 5.29556 20.8977C3.79181 22.8722 2.89688 25.3342 2.89688 28.0014V53.4882V53.5011V53.5225V53.5355V86.9003H2.14844C1.06964 86.9003 0.195312 87.7747 0.195312 88.8535V98.0469C0.195312 99.1257 1.06964 100 2.14844 100H98.214C99.2928 100 100.167 99.1257 100.167 98.0469V88.8535C100.167 87.7747 99.2928 86.9003 98.214 86.9003ZM6.80237 28.0014C6.80237 27.3621 6.88095 26.741 7.02591 26.1459L12.4123 35.8414L6.80237 45.9602V28.0014ZM20.3217 8.04291L22.0306 14.0816L15.9927 15.7928L14.2838 9.75266L20.3217 8.04291ZM12.693 63.6322L7.08313 53.5118L12.693 43.3914V63.6322ZM12.693 28.3035L9.32693 22.2427C10.2661 21.3745 11.4174 20.7321 12.693 20.4041V28.3035ZM12.4123 71.183L6.80313 81.3019V61.0634L12.4123 71.183ZM12.693 78.7338V86.9003H8.16574L12.693 78.7338ZM16.5993 33.8058L30.1079 86.9003H16.5993V33.8058ZM17.0067 19.5656L23.2964 17.7826L32.9147 40.3374C33.3237 41.3345 34.465 41.8121 35.463 41.4024C36.4609 40.9927 36.9377 39.8521 36.528 38.8542L27.3544 17.3805H73.4184L49.894 72.419L36.544 38.8931C36.145 37.8906 35.0082 37.4023 34.0073 37.8006C33.0048 38.1996 32.5157 39.3356 32.9147 40.3374L47.7173 77.5116L43.7042 86.9003H34.1385L17.0067 19.5656ZM86.5372 9.75266L84.8289 15.7898L78.791 14.0808L80.5 8.04291L82.7759 8.68759L86.5372 9.75266ZM88.1264 20.4041C89.4028 20.7321 90.5533 21.3745 91.4925 22.2427L88.1271 28.3028L88.1264 20.4041ZM88.1271 43.3922L93.737 53.5118L88.1271 63.6307V43.3922ZM94.017 61.0626V81.3026L88.4071 71.183L94.017 61.0626ZM94.017 28.0014V45.961L88.4071 35.8414L93.7935 26.1452C93.9384 26.7403 94.017 27.3621 94.017 28.0014ZM51.6258 78.3058L51.6266 78.3051L77.4979 17.775L83.7906 19.5564L65.8188 86.9003H47.9523L51.6258 78.3058ZM84.2209 33.094V35.8192V35.8231V35.8566V35.8612V71.1555V71.1769V71.1891V71.2097V86.9003H69.8616L84.2209 33.094ZM88.1271 78.7346L92.6537 86.9003H88.1271V78.7346ZM84.0385 3.90625C84.3246 3.90625 84.6146 3.94669 84.8969 4.02679C85.8376 4.2923 86.557 4.96521 86.9194 5.80063L83.8829 4.9408L82.2273 4.47235C82.74 4.11148 83.3656 3.90625 84.0385 3.90625ZM27.2667 9.86481C28.3623 8.41599 30.0331 7.58514 31.8497 7.58514H68.972C70.7893 7.58514 72.4594 8.41599 73.555 9.86557C74.3561 10.9245 74.7559 12.1887 74.72 13.4743H26.1024C26.0666 12.188 26.4656 10.9238 27.2667 9.86481ZM15.9615 4.17023C16.2468 4.09012 16.5359 4.04968 16.8221 4.04968C17.4164 4.04968 17.9787 4.21524 18.4593 4.50974L14.0152 5.76706C14.3959 5.01404 15.0818 4.41895 15.9615 4.17023ZM96.2608 96.0938H4.10156V90.8066H4.84161C4.8439 90.8066 4.84772 90.8073 4.84772 90.8073C4.85001 90.8073 4.85153 90.8066 4.85382 90.8066H95.9656C95.9679 90.8066 95.9694 90.8073 95.9717 90.8073C95.974 90.8073 95.9755 90.8066 95.9778 90.8066H96.2608V96.0938Z" fill="black"/>
</g>
<defs>
<clipPath id="clip0">
<rect width="100" height="100" fill="white"/>
</clipPath>
</defs>
</svg>
