<svg width="100" height="100" viewBox="0 0 100 100" fill="none" xmlns="http://www.w3.org/2000/svg">
<path d="M54.1241 59.9384C53.913 58.9838 53.0669 58.3042 52.0893 58.3038H47.9197C46.9421 58.3042 46.0962 58.9838 45.8849 59.9384L37.5456 97.4648C37.297 98.589 38.0067 99.7019 39.1309 99.9507C39.2785 99.9834 39.4292 99.9998 39.5804 100H60.4285C61.5799 99.9996 62.513 99.0657 62.5124 97.9143C62.5124 97.7633 62.4958 97.6124 62.4632 97.4648L54.1241 59.9384Z" fill="#FFA800"/>
<path d="M50.0046 54.1342C45.399 54.1342 41.6653 50.4006 41.6653 45.795C41.6653 41.1894 45.399 37.4557 50.0046 37.4557C54.6102 37.4557 58.3438 41.1894 58.3438 45.795C58.3438 50.4006 54.6102 54.1342 50.0046 54.1342ZM50.0046 41.6254C47.7018 41.6254 45.835 43.4922 45.835 45.795C45.835 48.0978 47.7018 49.9645 50.0046 49.9645C52.3074 49.9645 54.1741 48.0978 54.1741 45.795C54.1741 43.4922 52.3074 41.6254 50.0046 41.6254Z" fill="black"/>
<path d="M50.0046 41.6255C45.399 41.6255 41.6653 37.8918 41.6653 33.2862C41.6653 32.9609 41.6653 32.6566 46.7022 2.79808C46.9551 1.17526 48.3622 -0.0152316 50.0046 0.00450889C51.6487 -0.0156225 53.0585 1.17408 53.3153 2.79808C58.3438 32.3605 58.3438 33.036 58.3438 33.2862C58.3436 37.892 54.6102 41.6255 50.0046 41.6255ZM50.0046 8.24352C48.4576 17.4166 45.9267 32.4606 45.835 33.4613C45.8833 35.7641 47.7893 37.5918 50.0921 37.5433C52.3949 37.495 54.2226 35.589 54.1741 33.2862C54.0949 32.5607 52.4563 22.6662 50.0046 8.24352Z" fill="black"/>
<path d="M13.2202 70.3791C11.3621 70.3549 9.87529 68.829 9.89934 66.9708C9.91204 65.9873 10.3545 65.0588 11.1103 64.4292C34.2351 45.2698 34.7354 44.9821 35.0063 44.832C38.9958 42.5292 44.0969 43.8966 46.3997 47.8863C48.7025 51.8758 47.3351 56.9769 43.3454 59.2797C43.0993 59.4214 42.7616 59.6174 14.425 70.1624C14.0394 70.3044 13.6315 70.3779 13.2202 70.3791ZM39.1635 47.884C38.432 47.8828 37.7129 48.0739 37.0787 48.4385C36.4948 48.8553 29.2147 54.843 17.4814 64.5707C31.8916 59.2044 40.7353 55.8812 41.4233 55.5853C43.3739 54.3612 43.9628 51.7877 42.7389 49.8371C41.9694 48.611 40.6192 47.8716 39.1717 47.884H39.1635Z" fill="black"/>
<path d="M86.7888 70.3873C86.3786 70.3852 85.972 70.3103 85.588 70.1663C57.4015 59.6964 56.9803 59.4546 56.6717 59.2795C52.6821 56.9767 51.3146 51.8756 53.6174 47.8861C55.9202 43.8966 61.0212 42.529 65.0107 44.8318C65.2109 44.9444 65.6237 45.1862 88.8942 64.429C90.3245 65.6119 90.525 67.7304 89.3422 69.1607C88.7163 69.9173 87.7911 70.3625 86.8093 70.3791L86.7888 70.3873ZM60.8873 47.8548C59.3804 47.8634 57.99 48.6671 57.2307 49.9688C56.0775 51.9622 56.7586 54.5129 58.752 55.666C58.7536 55.667 58.7552 55.6678 58.7567 55.6688C59.1736 55.8523 63.8687 57.6451 82.5235 64.5834C72.9083 56.6403 63.481 48.864 62.7762 48.347C62.1994 48.0188 61.5468 47.8476 60.8832 47.8507L60.8873 47.8548Z" fill="black"/>
<path d="M60.4285 100H39.5804C38.429 99.9996 37.4959 99.0657 37.4965 97.9143C37.4965 97.7633 37.5131 97.6124 37.5457 97.4648L45.885 59.9384C46.0961 58.9838 46.9422 58.3042 47.9198 58.3038H52.0894C53.067 58.3042 53.9129 58.9838 54.1242 59.9384L62.4635 97.4648C62.7121 98.589 62.0024 99.7019 60.8782 99.9507C60.7302 99.9834 60.5795 100 60.4285 100ZM42.1781 95.8303H57.8307L50.4171 62.4733H49.5831L42.1781 95.8303Z" fill="black"/>
</svg>
