<svg width="16" height="16" viewBox="0 0 16 16" fill="none" xmlns="http://www.w3.org/2000/svg">
<path d="M8 16C12.4113 16 16 12.4113 16 8C16 3.5888 12.4113 0 8 0C3.5888 0 0 3.5888 0 8C0 12.4113 3.5888 16 8 16ZM8 2.18176C11.2082 2.18176 13.8182 4.79182 13.8182 8C13.8182 11.2082 11.2082 13.8182 8 13.8182C4.79182 13.8182 2.18183 11.2082 2.18183 8C2.18183 4.79182 4.79182 2.18176 8 2.18176ZM5.26772 11.0767L4.76867 10.5476L7.12731 8.32321V3.92728H8.87269V7.12731H11.6741V8.87283H7.60466L5.26772 11.0767Z" fill="black"/>
</svg>
