<svg width="200" height="200" viewBox="0 0 200 200" fill="none" xmlns="http://www.w3.org/2000/svg">
<g clip-path="url(#clip0)">
<path d="M101.407 55.6244L90.1571 44.3756L78.9068 55.6244L67.6565 44.3756L56.4062 55.6244V3.90625H101.407V55.6244Z" fill="#FFA800"/>
<path d="M137.012 78.4668H152.051V92.9688H137.012V78.4668Z" fill="#FFA800"/>
<path d="M158.765 63.9648H130.298C126.292 63.9648 123.047 67.2119 123.047 71.2158C123.047 75.2197 126.292 78.4668 130.298 78.4668H158.765C162.769 78.4668 166.016 75.2197 166.016 71.2158C166.016 67.2119 162.769 63.9648 158.765 63.9648Z" fill="#FFA800"/>
<path d="M174.57 101.2L181.222 94.5488C182.677 93.0931 185.038 93.0931 186.492 94.5488L192.229 100.285C193.685 101.74 193.685 104.099 192.229 105.555L185.578 112.206L174.57 101.2Z" fill="#FFA800"/>
<path d="M196.094 144.531C196.094 173.009 173.009 196.094 144.531 196.094C116.054 196.094 92.9688 173.009 92.9688 144.531C92.9688 116.054 116.054 92.9688 144.531 92.9688C173.009 92.9688 196.094 116.054 196.094 144.531Z" fill="#FFA800"/>
<path d="M180.469 144.531C180.469 164.378 164.378 180.469 144.531 180.469C124.684 180.469 108.594 164.378 108.594 144.531C108.594 124.684 124.684 108.594 144.531 108.594C164.378 108.594 180.469 124.684 180.469 144.531Z" fill="white"/>
<path d="M28.6133 118.42H47.2763C49.4339 118.42 51.1826 116.672 51.1826 114.514C51.1826 112.358 49.4339 110.608 47.2763 110.608H28.6133C26.4557 110.608 24.707 112.358 24.707 114.514C24.707 116.672 26.4557 118.42 28.6133 118.42Z" fill="black"/>
<path d="M61.9293 126.719H28.6133C26.4557 126.719 24.707 128.467 24.707 130.625C24.707 132.783 26.4557 134.531 28.6133 134.531H61.9293C64.0869 134.531 65.8356 132.783 65.8356 130.625C65.8356 128.467 64.0869 126.719 61.9293 126.719Z" fill="black"/>
<path d="M144.531 104.688C122.562 104.688 104.688 122.562 104.688 144.531C104.688 166.501 122.562 184.375 144.531 184.375C166.501 184.375 184.375 166.501 184.375 144.531C184.375 122.562 166.501 104.688 144.531 104.688ZM144.531 176.562C126.869 176.562 112.5 162.193 112.5 144.531C112.5 126.869 126.869 112.5 144.531 112.5C151.958 112.5 158.795 115.047 164.233 119.304L158.949 124.588C154.781 121.561 149.782 119.922 144.53 119.922C130.962 119.922 119.92 130.962 119.92 144.531C119.92 146.689 121.671 148.438 123.827 148.438C125.984 148.438 127.733 146.689 127.733 144.531C127.733 135.269 135.269 127.734 144.53 127.734C147.684 127.734 150.703 128.601 153.322 130.215L141.768 141.769C140.242 143.295 140.242 145.767 141.768 147.293C142.531 148.056 143.53 148.438 144.53 148.438C145.529 148.438 146.529 148.056 147.292 147.293L169.757 124.829C174.016 130.267 176.562 137.105 176.562 144.531C176.562 162.193 162.193 176.562 144.531 176.562Z" fill="black"/>
<path d="M190.236 113.081L195.001 108.316C197.977 105.341 197.977 100.497 195.001 97.522L189.264 91.7847C186.288 88.8092 181.445 88.8092 178.47 91.7847L173.219 97.0352C167.892 93.8049 162.07 91.5115 155.956 90.2374V82.373H158.763C164.915 82.373 169.92 77.3682 169.92 71.2158C169.92 65.0635 164.915 60.0586 158.763 60.0586H157.812V11.7188C157.812 5.25665 152.556 0 146.094 0H11.7188C5.25665 0 0 5.25665 0 11.7188V146.094C0 152.556 5.25665 157.812 11.7188 157.812H90.6555C91.5817 161.597 92.9047 165.259 94.6014 168.75H72.0703C69.9127 168.75 68.1641 170.499 68.1641 172.656C68.1641 174.814 69.9127 176.562 72.0703 176.562H99.231C101.035 179.102 103.062 181.506 105.309 183.754C105.519 183.963 105.733 184.169 105.946 184.375H53.5156C51.358 184.375 49.6094 186.124 49.6094 188.281C49.6094 190.439 51.358 192.188 53.5156 192.188H116.104C124.609 197.281 134.361 200 144.531 200C159.348 200 173.277 194.231 183.754 183.754C194.231 173.277 200 159.348 200 144.531C200 133.133 196.582 122.261 190.236 113.081ZM183.867 97.4365L189.349 102.919L185.323 106.947C184.81 106.393 184.29 105.846 183.754 105.309C182.449 104.005 181.091 102.774 179.686 101.617L183.867 97.4365ZM148.143 89.1815C146.947 89.1052 145.743 89.0625 144.531 89.0625C143.32 89.0625 142.116 89.1052 140.916 89.1815V82.373H148.143V89.1815ZM162.109 71.2158C162.109 73.0606 160.608 74.5605 158.765 74.5605H130.298C128.453 74.5605 126.952 73.0606 126.952 71.2158C126.952 69.371 128.453 67.8711 130.298 67.8711H158.765C160.608 67.8711 162.109 69.371 162.109 71.2158ZM97.5006 7.8125V46.1945L92.9184 41.6122C91.3925 40.0879 88.9206 40.0879 87.3932 41.6122L78.9062 50.1007L70.4178 41.6122C69.6548 40.8493 68.6554 40.4694 67.6559 40.4694C66.6565 40.4694 65.657 40.8493 64.8941 41.6122L60.3119 46.1945V7.8125H97.5006ZM11.7188 150C9.56421 150 7.8125 148.248 7.8125 146.094V11.7188C7.8125 9.56421 9.56421 7.8125 11.7188 7.8125H52.4994V55.6244C52.4994 57.2052 53.4515 58.6288 54.9118 59.2346C56.3705 59.8389 58.0521 59.5032 59.169 58.3878L67.6559 49.8993L76.1444 58.3878C77.6703 59.9136 80.1422 59.9136 81.6681 58.3878L90.1566 49.8993L98.645 58.3878C99.3912 59.1354 100.391 59.5322 101.407 59.5322C101.91 59.5322 102.419 59.4345 102.902 59.2346C104.361 58.6288 105.313 57.2052 105.313 55.6244V7.8125H146.094C148.248 7.8125 150 9.56421 150 11.7188V60.0586H130.298C124.146 60.0586 119.141 65.0635 119.141 71.2158C119.141 77.3682 124.146 82.373 130.298 82.373H133.105V90.2374C122.647 92.4164 113.039 97.58 105.31 105.309C94.8318 115.785 89.0625 129.715 89.0625 144.531C89.0625 146.37 89.1525 148.195 89.328 150H11.7188ZM178.229 178.229C169.229 187.23 157.262 192.188 144.531 192.188C131.801 192.188 119.833 187.23 110.834 178.229C101.833 169.228 96.875 157.26 96.875 144.531C96.875 131.802 101.833 119.835 110.834 110.834C119.833 101.833 131.801 96.875 144.531 96.875C157.262 96.875 169.229 101.833 178.229 110.834C187.23 119.835 192.188 131.802 192.188 144.531C192.188 157.26 187.23 169.228 178.229 178.229Z" fill="black"/>
</g>
<defs>
<clipPath id="clip0">
<rect width="200" height="200" fill="white"/>
</clipPath>
</defs>
</svg>
