<svg width="22" height="22" viewBox="0 0 22 22" fill="none" xmlns="http://www.w3.org/2000/svg">
<path fill-rule="evenodd" clip-rule="evenodd" d="M18.1573 13.2012L18.1525 13.2196C17.7784 14.7289 16.0923 16.3495 14.5438 16.6862L14.5264 16.69C13.2744 16.929 12.0127 17.048 10.752 17.048C10.3809 17.048 10.0097 17.0364 9.63858 17.0161L7.92824 18.7905C7.50478 19.2307 6.76056 18.9308 6.76056 18.3213V16.6359C5.27019 16.2111 3.70909 14.665 3.35055 13.2196L3.34667 13.2012C2.88444 11.093 2.88444 8.95479 3.34667 6.84658L3.35055 6.8282C3.72556 5.31888 5.41167 3.6983 6.95921 3.36161L6.97762 3.35774C9.4816 2.88075 12.0214 2.88075 14.5264 3.35774L14.5438 3.36161C16.0923 3.6983 17.7784 5.31888 18.1525 6.8282L18.1573 6.84658C18.6195 8.95479 18.6195 11.093 18.1573 13.2012ZM14.2928 13.0367C14.0893 13.4682 13.7938 13.8272 13.3664 14.0555C13.2463 14.1203 13.1019 14.1407 12.9662 14.1832C12.8102 14.1358 12.661 14.1039 12.5224 14.0468C11.0882 13.4528 9.76843 12.6865 8.72285 11.511C8.12786 10.8424 7.66273 10.0887 7.2693 9.29052C7.08228 8.91222 6.9253 8.51844 6.76541 8.12757C6.61908 7.77152 6.83421 7.4029 7.06096 7.13393C7.27318 6.88238 7.54741 6.68888 7.84394 6.54666C8.07553 6.43539 8.30326 6.49925 8.47187 6.69565C8.83719 7.11845 9.17248 7.56351 9.4438 8.05404C9.61048 8.3559 9.56493 8.72452 9.2626 8.92964C9.18895 8.97995 9.12209 9.038 9.05329 9.09411C8.99321 9.14346 8.937 9.19377 8.89533 9.26053C8.81975 9.38243 8.81684 9.52756 8.86529 9.66011C9.23837 10.6847 9.86824 11.481 10.9003 11.9096C11.066 11.9783 11.2317 12.0586 11.4216 12.0363C11.7404 11.9996 11.8441 11.6503 12.067 11.4674C12.285 11.2894 12.5641 11.2865 12.7996 11.4355C13.035 11.5845 13.2627 11.7441 13.4895 11.9047C13.7124 12.0634 13.9333 12.2182 14.1388 12.3982C14.3364 12.5714 14.4043 12.7997 14.2928 13.0348V13.0367ZM12.441 9.69881C12.3519 9.70074 12.3867 9.69881 12.4207 9.69784C12.2772 9.693 12.1988 9.60883 12.1833 9.47144C12.1716 9.37082 12.1629 9.2702 12.1396 9.17248C12.0922 8.98091 11.9904 8.80289 11.8286 8.68486C11.752 8.62971 11.6658 8.58907 11.5747 8.56295C11.4594 8.53005 11.3402 8.53876 11.2249 8.5107C11.0999 8.48071 11.0311 8.37912 11.0505 8.26205C11.0679 8.15563 11.1716 8.07242 11.2879 8.08113C12.0156 8.13337 12.535 8.50877 12.6096 9.36405C12.6145 9.42403 12.6213 9.48789 12.6077 9.54594C12.5864 9.63979 12.5185 9.68817 12.4507 9.69784C12.4565 9.69784 12.4555 9.69881 12.44 9.69978L12.441 9.69881ZM11.9885 7.74347C11.7656 7.63414 11.5243 7.56641 11.2791 7.52578C11.1726 7.50836 11.064 7.49772 10.9565 7.48224C10.8266 7.46386 10.7568 7.38162 10.7627 7.25294C10.7685 7.13297 10.8566 7.04686 10.9875 7.05363C11.4177 7.07782 11.8334 7.1707 12.2162 7.37291C12.9943 7.7841 13.4391 8.43427 13.569 9.30116C13.5748 9.34083 13.5845 9.37953 13.5874 9.4192C13.5951 9.51692 13.599 9.61367 13.6068 9.74235C13.6038 9.76557 13.6019 9.82071 13.5883 9.87296C13.5389 10.0607 13.2531 10.0848 13.1872 9.89521C13.1678 9.8391 13.1649 9.77524 13.1649 9.71429C13.1639 9.31761 13.0777 8.92093 12.8771 8.57649C12.6707 8.22142 12.3577 7.92342 11.9885 7.74347ZM14.3936 10.4244C14.2434 10.4264 14.1756 10.3006 14.1659 10.1661C14.1465 9.90005 14.1329 9.63205 14.0961 9.36792C13.9023 7.97277 12.7879 6.81853 11.3964 6.57084C11.1871 6.53311 10.9729 6.52344 10.7607 6.50118C10.627 6.48667 10.4506 6.47893 10.4216 6.31252C10.3964 6.1732 10.5146 6.06193 10.6473 6.05516C10.6832 6.05322 10.72 6.05516 10.7559 6.05516C12.5573 6.10547 10.8654 6.05903 10.7607 6.05516C12.6348 6.10934 14.1727 7.35259 14.5031 9.20247C14.5593 9.51788 14.5797 9.84103 14.6049 10.1613C14.6155 10.2958 14.539 10.4225 14.3936 10.4244Z" fill="black"/>
</svg>
