<svg width="100" height="100" viewBox="0 0 100 100" fill="none" xmlns="http://www.w3.org/2000/svg">
<path d="M8.50957 61.9642L1.95312 57.6849V8.78882L30.1461 26.7396L8.50957 61.9642Z" fill="#FFA800"/>
<path d="M91.4905 65.8707L98.0469 61.5912V12.6951L69.8539 30.646L91.4905 65.8707Z" fill="#FFA800"/>
<path d="M98.9865 10.9829C98.3615 10.64 97.5992 10.6648 96.9978 11.0478L62.1762 33.0751C62.0574 33.1482 61.9484 33.2341 61.8492 33.329C58.317 32.4316 54.5646 32.8314 51.2459 34.5031C48.1273 33.2611 42.215 32.8318 37.9529 32.6869L38.4641 31.8558C38.7354 31.4146 38.8203 30.8837 38.7002 30.3798C38.5801 29.8759 38.2648 29.4404 37.8234 29.1691L3.00215 7.14174C2.40078 6.75892 1.63867 6.73412 1.01348 7.07689C0.388477 7.41986 0 8.07611 0 8.789V57.6849C0 58.3447 0.333203 58.9597 0.885547 59.3205L7.44199 63.5999C8.33359 64.1818 9.60039 63.9201 10.1738 62.9867L11.3652 61.047L16.3361 64.1042C16.7477 64.3574 17.2328 64.4447 17.7061 64.3589C18.3662 65.4839 19.2268 66.49 20.2396 67.305L21.1437 68.0328C19.8342 70.1527 20.2354 72.9861 22.1842 74.6386L23.3811 75.6538C23.9111 76.1033 24.5148 76.4283 25.1576 76.6277C24.9342 78.3046 25.5379 80.0593 26.9133 81.2257L28.1102 82.2408C28.9904 82.9873 30.0713 83.3982 31.2041 83.4361C31.4273 84.5187 31.9965 85.5363 32.898 86.3007L34.0949 87.3158C35.0191 88.0996 36.1637 88.5185 37.358 88.5185C37.5068 88.5185 37.6564 88.5121 37.8066 88.4988C38.1795 88.4662 38.542 88.3925 38.8906 88.283C39.1889 88.8722 39.6057 89.4121 40.1383 89.8634L41.3352 90.8787C42.2594 91.6625 43.4039 92.0814 44.5982 92.0814C44.7471 92.0814 44.8967 92.075 45.0469 92.0617C46.4031 91.9431 47.6309 91.2986 48.5037 90.2474L48.601 90.1302L50.6854 91.8078C51.8164 92.7179 53.1764 93.1646 54.5234 93.1646C56.1551 93.1646 57.7676 92.5093 58.9303 91.2287C59.7164 90.3628 60.2309 89.2896 60.4236 88.1556C62.342 88.4369 64.3432 87.7968 65.7162 86.2843C66.4949 85.4267 67.0072 84.3656 67.2039 83.2433C67.7639 83.3263 68.3379 83.3296 68.907 83.2486C70.5471 83.0144 72.0365 82.0943 72.9936 80.7238C73.7789 79.5992 74.1195 78.2824 74.0479 76.9886C74.084 76.9841 74.1203 76.9792 74.1564 76.9742C75.7965 76.7402 77.2859 75.8199 78.243 74.4494C79.1883 73.0956 79.4883 71.4636 79.2012 69.9277C80.0367 69.3562 80.793 68.666 81.4447 67.8886C81.3748 67.9732 82.2059 68.1878 82.2723 68.2029C82.7758 68.3167 83.2055 68.2927 83.6637 68.0109L88.6344 64.9537L89.8258 66.8933C90.392 67.8152 91.6529 68.097 92.5576 67.5066L99.1141 63.2271C99.6666 62.8664 99.9996 62.2513 99.9996 61.5915V12.6953C100 11.9822 99.6115 11.3259 98.9865 10.9829ZM7.8959 59.2318L3.90625 56.6275V12.348C16.6826 20.4828 11.3308 17.0753 27.475 27.3546L7.8959 59.2318ZM16.7188 59.7538L13.4096 57.7187L30.7873 29.4273L34.1135 31.473L16.7188 59.7538ZM24.5648 69.9476C24.5648 69.9476 26.19 67.9904 26.1969 67.9822C26.5881 67.5111 27.3439 67.4197 27.8336 67.8347L29.0305 68.8498C29.5375 69.2798 29.6029 70.0478 29.1762 70.5617C29.1762 70.5617 27.0611 72.9187 26.7521 72.9456C26.4449 72.973 26.1453 72.8763 25.9074 72.6748L24.7104 71.6595C24.2035 71.2294 24.1381 70.4615 24.5648 69.9476ZM29.4398 78.2464C28.9328 77.8164 28.8674 77.0484 29.2941 76.5345C29.2941 76.5345 30.9262 74.5691 30.9277 74.5671C31.3168 74.0986 32.0764 74.0091 32.5627 74.4218L33.7596 75.4369C34.2664 75.8667 34.332 76.6341 33.9053 77.1488L32.2732 79.1146C32.0717 79.3572 31.7906 79.5058 31.4814 79.5328C31.1744 79.5591 30.8744 79.4634 30.6367 79.2617L29.4398 78.2464ZM37.465 84.591C37.1678 84.6179 36.8596 84.5382 36.6215 84.3363L35.4246 83.3212C34.9176 82.8912 34.8521 82.1232 35.2789 81.6093L36.9115 79.6437C37.3047 79.099 37.7938 78.8572 38.5477 79.4964L39.7445 80.5115C40.2518 80.9415 40.317 81.7095 39.8902 82.2234C39.8902 82.2234 38.2641 84.182 38.2582 84.189C38.0633 84.4238 37.7699 84.5634 37.465 84.591ZM47.1305 85.7861C47.1305 85.7861 45.5055 87.7433 45.4984 87.7517C45.0982 88.2337 44.3383 88.3029 43.8617 87.8992L42.6648 86.8839C42.1582 86.4542 42.0926 85.6873 42.518 85.1734C42.518 85.1734 44.1496 83.2081 44.1512 83.2064C44.5467 82.73 45.2916 82.6384 45.7877 83.0591L46.9846 84.0742C47.492 84.5042 47.5572 85.2722 47.1305 85.7861ZM75.0406 72.2124C74.6055 72.8355 73.8477 73.1738 73.0934 73.0997C72.4262 73.0343 71.9748 72.5915 71.4008 72.3085C70.5078 71.8685 69.426 72.1703 68.8904 73.0099C68.3549 73.8496 68.5367 74.9576 69.3125 75.5818C70.1977 76.2941 70.4123 77.5972 69.791 78.4869C69.4461 78.9806 68.9363 79.2982 68.3551 79.3812C67.7955 79.4611 67.2482 79.3121 66.8129 78.9615L65.0896 77.5748C65.0873 77.5728 65.085 77.5708 65.0824 77.5689C64.2418 76.8925 63.0125 77.0255 62.3363 77.866C61.6602 78.7062 61.793 79.9357 62.6348 80.613C63.0721 80.9658 63.3375 81.4744 63.3822 82.0451C63.4285 82.6378 63.2303 83.2109 62.8242 83.6581C62.1014 84.4542 60.799 84.5267 59.9205 83.8199L58.2967 82.513C57.4562 81.8365 56.2268 81.9699 55.5506 82.8101C54.8744 83.6503 55.0072 84.8798 55.8477 85.5562C56.2859 85.9089 56.5518 86.4177 56.5965 86.9894C56.6428 87.5824 56.4445 88.1552 56.0385 88.6027C55.3158 89.3988 54.0131 89.4712 53.135 88.7644L50.9211 86.9828C51.7557 84.9759 51.2471 82.5669 49.5113 81.0951L48.3145 80.08C47.2748 79.1986 45.9566 78.7791 44.6027 78.897C44.2301 78.9296 43.8676 79.0033 43.5189 79.1128C43.2207 78.5236 42.8037 77.9837 42.2713 77.5322L41.0744 76.5171C40.1937 75.7705 39.1131 75.3556 37.9799 75.3185C37.7562 74.2373 37.1873 73.221 36.2867 72.4574L35.0898 71.4423C34.5596 70.9927 33.9566 70.6642 33.3137 70.465C33.5357 68.789 32.932 67.0361 31.5576 65.8705L30.3607 64.8554C29.3215 63.974 28.0037 63.5537 26.649 63.6724C25.507 63.7722 24.457 64.2462 23.6322 65.0208L22.6893 64.2619C21.8578 63.5927 21.1842 62.722 20.7416 61.7437L20.4617 61.1251L35.5855 36.5367C39.2158 36.5972 43.4938 36.8474 46.5586 37.3226L36.4166 43.572C33.4029 45.429 32.4242 49.3966 34.235 52.4163C35.1145 53.8828 36.5121 54.913 38.1707 55.3175C39.8418 55.7249 41.5744 55.449 43.049 54.5404L50.1193 50.1837L74.5711 69.3144C75.4484 70.0283 75.6596 71.3257 75.0406 72.2124ZM77.2812 66.4964C77.1936 66.4171 64.1871 56.231 64.1871 56.231L65.8693 55.1755C66.783 54.6023 67.0592 53.3968 66.4857 52.4831C65.9125 51.5693 64.7068 51.2933 63.7934 51.8667L60.9162 53.6718L51.4553 46.2697C50.8117 45.7662 49.9227 45.7165 49.2271 46.1453L40.9996 51.215C40.4207 51.5716 39.7447 51.6806 39.0959 51.5226C38.4598 51.3675 37.923 50.9714 37.5848 50.4076C36.8684 49.2128 37.2635 47.6382 38.4656 46.8976C38.4656 46.8976 53.0193 37.9035 53.0713 37.9566C56.1309 36.4421 59.6703 36.3671 62.774 37.7747L79.1498 64.3988C79.1498 64.3988 77.9678 65.9759 77.2812 66.4964ZM83.2812 63.6599L65.8863 35.379L69.2125 33.3333L86.5902 61.6248L83.2812 63.6599ZM96.0938 60.5335L92.1041 63.1376L91.0869 61.4816C91.0498 61.3956 91.0088 61.3113 90.9592 61.2306L72.5252 31.2605C78.9405 27.1757 81.3981 25.6103 96.0938 16.2542V60.5335Z" fill="black"/>
</svg>
