<svg width="22" height="22" viewBox="0 0 22 22" fill="none" xmlns="http://www.w3.org/2000/svg">
<path d="M19 10.794C19 15.0985 15.4837 18.5879 11.1454 18.5879C9.76818 18.5879 8.47431 18.2359 7.34862 17.6181L3 19L4.41778 14.8183C3.70258 13.6439 3.29067 12.2665 3.29067 10.794C3.29067 6.48942 6.80729 3 11.1454 3C15.4841 3 19 6.48942 19 10.794ZM15.1118 12.589C15.0633 12.5095 14.9351 12.4615 14.7428 12.366C14.55 12.2706 13.6032 11.8082 13.4272 11.7447C13.2507 11.6811 13.122 11.6491 12.9938 11.8402C12.8656 12.0315 12.4965 12.4615 12.384 12.589C12.2716 12.7168 12.1595 12.7328 11.9668 12.6372C11.7744 12.5417 11.1541 12.3397 10.4187 11.6891C9.8464 11.1828 9.45991 10.5577 9.34756 10.3662C9.23538 10.1751 9.33582 10.0718 9.432 9.97671C9.51876 9.89102 9.62471 9.7536 9.72089 9.64213C9.81742 9.53049 9.84942 9.45102 9.91324 9.32338C9.97778 9.19591 9.9456 9.08444 9.89724 8.98862C9.84925 8.89316 9.46382 7.95307 9.30347 7.57049C9.14311 7.18827 8.98293 7.25191 8.8704 7.25191C8.75822 7.25191 8.62969 7.23591 8.50133 7.23591C8.37298 7.23591 8.16427 7.28373 7.98773 7.47484C7.81138 7.66613 7.31413 8.12836 7.31413 9.06827C7.31413 10.0084 8.00373 10.9166 8.10027 11.0439C8.19644 11.1712 9.43182 13.163 11.3892 13.928C13.3467 14.6926 13.3467 14.4375 13.6997 14.4055C14.0524 14.3737 14.8386 13.9435 14.9996 13.4976C15.1596 13.051 15.1596 12.6686 15.1118 12.589Z" fill="black"/>
</svg>
