<svg width="48" height="48" viewBox="0 0 48 48" fill="none" xmlns="http://www.w3.org/2000/svg">
<path d="M41.9939 9.71522C41.9907 9.42684 41.8791 9.14428 41.6672 8.93222L33.0642 0.329156C33.0638 0.328781 33.0635 0.328687 33.0632 0.328406C32.86 0.125437 32.5793 0 32.2695 0H8.36997C7.06525 0 6.00391 1.06125 6.00391 2.36597V45.6339C6.00391 46.9386 7.06516 47.9999 8.36987 47.9999H39.6302C40.9349 47.9999 41.9962 46.9387 41.9962 45.6339V9.72684C41.9964 9.72272 41.9943 9.71925 41.9939 9.71522ZM33.3933 3.83728L38.159 8.60297H33.5117C33.4465 8.60297 33.3933 8.54981 33.3933 8.48466V3.83728ZM39.7486 45.634C39.7486 45.6992 39.6955 45.7523 39.6303 45.7523H8.36997C8.30481 45.7523 8.25175 45.6992 8.25175 45.634V2.36597C8.25175 2.30081 8.30481 2.24775 8.36997 2.24775H31.1456V8.48466C31.1456 9.78928 32.207 10.8508 33.5117 10.8508H39.7487V45.634H39.7486Z" fill="black"/>
<path d="M33.9451 15.3765H14.0536C13.4329 15.3765 12.9297 15.8796 12.9297 16.5003C12.9297 17.121 13.4329 17.6242 14.0536 17.6242H33.945C34.5656 17.6242 35.0689 17.121 35.0689 16.5003C35.069 15.8796 34.5656 15.3765 33.9451 15.3765Z" fill="black"/>
<path d="M33.9451 22.1582H14.0536C13.4329 22.1582 12.9297 22.6615 12.9297 23.2821C12.9297 23.9027 13.4329 24.406 14.0536 24.406H33.945C34.5656 24.406 35.0689 23.9027 35.0689 23.2821C35.069 22.6615 34.5656 22.1582 33.9451 22.1582Z" fill="black"/>
<path d="M33.9451 28.9399H14.0536C13.4329 28.9399 12.9297 29.4432 12.9297 30.0638C12.9297 30.6845 13.4329 31.1877 14.0536 31.1877H33.945C34.5656 31.1877 35.0689 30.6845 35.0689 30.0638C35.069 29.4433 34.5656 28.9399 33.9451 28.9399Z" fill="black"/>
<path d="M23.9993 35.7217H14.0536C13.4329 35.7217 12.9297 36.2249 12.9297 36.8456C12.9297 37.4663 13.4329 37.9694 14.0536 37.9694H23.9993C24.6199 37.9694 25.1232 37.4663 25.1232 36.8456C25.1232 36.2248 24.6199 35.7217 23.9993 35.7217Z" fill="black"/>
</svg>
